SplineFontDB: 3.2
FontName: Shinsen-Bold
FullName: Shinsen Bold
FamilyName: Shinsen
Weight: Bold
Copyright: Copyright (c) 2021, retr0
UComments: "2021-1-28: Created with FontForge (http://fontforge.org)"
Version: 001.000
ItalicAngle: 0
UnderlinePosition: -120
UnderlineWidth: 60
Ascent: 1000
Descent: 200
InvalidEm: 0
LayerCount: 2
Layer: 0 0 "Back" 1
Layer: 1 0 "Fore" 0
XUID: [1021 774 -246617221 13794]
FSType: 0
OS2Version: 0
OS2_WeightWidthSlopeOnly: 0
OS2_UseTypoMetrics: 1
CreationTime: 1611867349
ModificationTime: 1611903655
PfmFamily: 33
TTFWeight: 700
TTFWidth: 5
LineGap: 108
VLineGap: 0
OS2TypoAscent: 0
OS2TypoAOffset: 1
OS2TypoDescent: 0
OS2TypoDOffset: 1
OS2TypoLinegap: 108
OS2WinAscent: 0
OS2WinAOffset: 1
OS2WinDescent: 0
OS2WinDOffset: 1
HheadAscent: 0
HheadAOffset: 1
HheadDescent: 0
HheadDOffset: 1
OS2Vendor: 'PfEd'
Lookup: 258 0 0 "'kern' Horizontal Kerning in Latin lookup 0" { "'kern' Horizontal Kerning in Latin lookup 0-2" [100,10,2] "'kern' Horizontal Kerning in Latin lookup 0-1" [0,0,3] } ['kern' ('DFLT' <'dflt' > 'latn' <'dflt' > ) ]
MarkAttachClasses: 1
DEI: 91125
LangName: 1033 "" "" "" "" "" "" "" "" "" "" "" "" "" "" "" "" "Shinsen"
Encoding: ISO8859-1
UnicodeInterp: none
NameList: AGL For New Fonts
DisplaySize: -48
AntiAlias: 1
FitToEm: 0
WidthSeparation: 100
WinInfo: 0 39 14
BeginPrivate: 0
EndPrivate
TeXData: 1 0 0 174762 87381 58254 428169 1048576 58254 783286 444596 497025 792723 393216 433062 380633 303038 157286 324010 404750 52429 2506097 1059062 262144
BeginChars: 256 190

StartChar: exclam
Encoding: 33 33 0
Width: 210
Flags: MW
LayerCount: 2
Fore
SplineSet
55 200 m 1
 55 790 l 1
 155 790 l 1
 155 200 l 1
 55 200 l 1
50 55 m 0
 50 85.3759765625 74.6240234375 110 105 110 c 0
 135.375976562 110 160 85.3759765625 160 55 c 0
 160 24.6240234375 135.375976562 0 105 0 c 0
 74.6240234375 0 50 24.6240234375 50 55 c 0
EndSplineSet
Validated: 1
EndChar

StartChar: quotedbl
Encoding: 34 34 1
Width: 350
Flags: MW
LayerCount: 2
Fore
SplineSet
200 600 m 1
 200 790 l 1
 300 790 l 1
 300 600 l 1
 200 600 l 1
50 600 m 1
 50 790 l 1
 150 790 l 1
 150 600 l 1
 50 600 l 1
EndSplineSet
Validated: 1
EndChar

StartChar: numbersign
Encoding: 35 35 2
Width: 550
Flags: MW
LayerCount: 2
Fore
SplineSet
433.330078125 590 m 1
 422.41015625 463.33984375 l 1
 500 463.33984375 l 1
 500 363.33984375 l 1
 413.790039062 363.33984375 l 1
 402.870117188 236.669921875 l 1
 450 236.669921875 l 1
 450 136.669921875 l 1
 394.25 136.669921875 l 1
 383.330078125 10 l 1
 283.330078125 10 l 1
 294.259765625 136.669921875 l 1
 227.58984375 136.669921875 l 1
 216.669921875 10 l 1
 116.669921875 10 l 1
 127.58984375 136.66015625 l 1
 50 136.66015625 l 1
 50 236.66015625 l 1
 136.209960938 236.66015625 l 1
 147.129882812 363.330078125 l 1
 100 363.330078125 l 1
 100 463.330078125 l 1
 155.75 463.330078125 l 1
 166.669921875 590 l 1
 266.669921875 590 l 1
 255.740234375 463.330078125 l 1
 322.41015625 463.330078125 l 1
 333.330078125 590 l 1
 433.330078125 590 l 1
302.870117188 236.669921875 m 1
 313.790039062 363.33984375 l 1
 247.120117188 363.33984375 l 1
 236.200195312 236.669921875 l 1
 302.870117188 236.669921875 l 1
EndSplineSet
Validated: 1
EndChar

StartChar: dollar
Encoding: 36 36 3
Width: 500
Flags: MW
LayerCount: 2
Fore
SplineSet
448.709960938 312.759765625 m 0
 448.879882812 311.33984375 449.030273438 309.919921875 449.16015625 308.490234375 c 0
 449.719726562 302.33984375 450 296.169921875 450 290 c 2
 450 200 l 2
 450 125.969726562 409.780273438 61.33984375 350 26.759765625 c 0
 334.530273438 17.7998046875 317.740234375 10.8701171875 300 6.2998046875 c 1
 300 -100 l 1
 200 -100 l 1
 200 6.2998046875 l 1
 182.259765625 10.8701171875 165.469726562 17.8095703125 150 26.759765625 c 0
 90.2197265625 61.33984375 50 125.969726562 50 200 c 1
 150 200 l 1
 150 162.98046875 170.110351562 130.669921875 200 113.379882812 c 1
 200 399.790039062 l 1
 120.799804688 423.41015625 61.8095703125 503.280273438 60.0498046875 585.58984375 c 0
 60.0302734375 586.5703125 60.01953125 587.540039062 60.009765625 588.51953125 c 0
 60 589.009765625 60 589.509765625 60 590 c 2
 60 600 l 2
 60 671.830078125 95.98046875 734.8203125 150 770.08984375 c 0
 165.349609375 780.110351562 182.150390625 787.889648438 200 793 c 1
 200 900 l 1
 299.990234375 900 l 1
 299.990234375 793 l 1
 317.83984375 787.889648438 334.639648438 780.110351562 349.990234375 770.08984375 c 0
 404.009765625 734.8203125 439.990234375 671.830078125 439.990234375 600 c 1
 344.990234375 600 l 1
 344.990234375 635.919921875 327 667.41015625 299.990234375 685.040039062 c 1
 299.990234375 478.870117188 l 1
 321.98046875 471.75 343.209960938 462.629882812 363.16015625 448.849609375 c 0
 398.209960938 424.639648438 426.540039062 390.309570312 440.370117188 349.75 c 0
 444.459960938 337.759765625 447.259765625 325.33984375 448.709960938 312.759765625 c 0
200 507.83984375 m 1
 200 685.040039062 l 1
 172.990234375 667.400390625 155 635.919921875 155 600 c 2
 155 600 155 590.009765625 155 590 c 0
 155 567.1796875 162.98046875 545.759765625 176.26953125 527.48046875 c 0
 182.700195312 518.650390625 190.870117188 512.459960938 200 507.83984375 c 1
350 200 m 0
 350 253.799804688 363.690429688 332.639648438 310.9296875 367.900390625 c 0
 307.4296875 370.240234375 303.76953125 372.309570312 300 374.16015625 c 1
 300 113.379882812 l 1
 329.889648438 130.669921875 350 162.990234375 350 200 c 0
EndSplineSet
Validated: 33
EndChar

StartChar: percent
Encoding: 37 37 4
Width: 630
Flags: MW
LayerCount: 2
Fore
SplineSet
565 790 m 1
 165 10 l 1
 65 10 l 1
 465 790 l 1
 565 790 l 1
175 550 m 0
 105.959960938 550 50 605.959960938 50 675 c 0
 50 744.040039062 105.959960938 800 175 800 c 0
 244.040039062 800 300 744.040039062 300 675 c 0
 300 605.959960938 244.040039062 550 175 550 c 0
175 725 m 0
 147.389648438 725 125 702.610351562 125 675 c 0
 125 647.389648438 147.389648438 625 175 625 c 0
 202.610351562 625 225 647.389648438 225 675 c 0
 225 702.610351562 202.610351562 725 175 725 c 0
455 250 m 0
 524.040039062 250 580 194.040039062 580 125 c 0
 580 55.9599609375 524.040039062 0 455 0 c 0
 385.959960938 0 330 55.9599609375 330 125 c 0
 330 194.040039062 385.959960938 250 455 250 c 0
455 75 m 0
 482.610351562 75 505 97.3896484375 505 125 c 0
 505 152.610351562 482.610351562 175 455 175 c 0
 427.389648438 175 405 152.610351562 405 125 c 0
 405 97.3896484375 427.389648438 75 455 75 c 0
EndSplineSet
Validated: 1
EndChar

StartChar: ampersand
Encoding: 38 38 5
Width: 550
Flags: MW
LayerCount: 2
Fore
SplineSet
300 390 m 1
 300 490 l 1
 500 490 l 1
 500 390 l 1
 450 390 l 1
 450 200 l 2
 450 163.5703125 440.259765625 129.41015625 423.240234375 100 c 0
 405.6796875 69.6396484375 380.360351562 44.3203125 350 26.759765625 c 0
 320.58984375 9.740234375 286.4296875 0 250 0 c 0
 213.5703125 0 179.41015625 9.740234375 150 26.759765625 c 0
 119.639648438 44.3203125 94.3203125 69.6396484375 76.759765625 100 c 0
 59.740234375 129.41015625 50 163.5703125 50 200 c 2
 50 290 l 2
 50 349.740234375 76.1904296875 403.349609375 117.709960938 440 c 1
 76.1904296875 476.650390625 50 530.259765625 50 590 c 2
 50 600 l 2
 50 636.4296875 59.740234375 670.58984375 76.759765625 700 c 0
 94.3203125 730.360351562 119.639648438 755.6796875 150 773.240234375 c 0
 179.41015625 790.259765625 213.5703125 800 250 800 c 0
 286.4296875 800 320.58984375 790.259765625 350 773.240234375 c 0
 380.360351562 755.6796875 405.6796875 730.360351562 423.240234375 700 c 0
 440.259765625 670.58984375 450 636.4296875 450 600 c 1
 350 600 l 1
 350 655.23046875 305.23046875 700 250 700 c 0
 194.76953125 700 150 655.23046875 150 600 c 2
 150 590 l 2
 150 534.76953125 194.76953125 490 250 490 c 1
 250 390 l 1
 194.76953125 390 150 345.23046875 150 290 c 2
 150 200 l 2
 150 144.76953125 194.76953125 100 250 100 c 0
 305.23046875 100 350 144.76953125 350 200 c 2
 350 390 l 1
 300 390 l 1
EndSplineSet
Validated: 1
EndChar

StartChar: quotesingle
Encoding: 39 39 6
Width: 200
Flags: MW
LayerCount: 2
Fore
SplineSet
50 600 m 1
 50 790 l 1
 150 790 l 1
 150 600 l 1
 50 600 l 1
EndSplineSet
Validated: 1
EndChar

StartChar: parenleft
Encoding: 40 40 7
Width: 300
Flags: MW
LayerCount: 2
Fore
SplineSet
150 -73.240234375 m 0
 119.639648438 -55.6796875 94.3203125 -30.3603515625 76.759765625 0 c 0
 59.740234375 29.41015625 50 63.5703125 50 100 c 2
 50 700 l 2
 50 736.4296875 59.740234375 770.58984375 76.759765625 800 c 0
 111.33984375 859.780273438 175.969726562 900 250 900 c 1
 250 800 l 1
 194.76953125 800 150 755.23046875 150 700 c 2
 150 100 l 2
 150 44.76953125 194.76953125 0 250 0 c 1
 250 -100 l 1
 213.5703125 -100 179.41015625 -90.259765625 150 -73.240234375 c 0
EndSplineSet
Validated: 1
EndChar

StartChar: parenright
Encoding: 41 41 8
Width: 300
Flags: MW
LayerCount: 2
Fore
SplineSet
223.240234375 0 m 0
 205.6796875 -30.3603515625 180.360351562 -55.6796875 150 -73.240234375 c 0
 120.58984375 -90.259765625 86.4296875 -100 50 -100 c 1
 50 0 l 1
 105.23046875 0 150 44.76953125 150 100 c 2
 150 700 l 2
 150 755.23046875 105.23046875 800 50 800 c 1
 50 900 l 1
 124.030273438 900 188.66015625 859.780273438 223.240234375 800 c 0
 240.259765625 770.58984375 250 736.4296875 250 700 c 2
 250 100 l 2
 250 63.5703125 240.259765625 29.41015625 223.240234375 0 c 0
EndSplineSet
Validated: 1
EndChar

StartChar: asterisk
Encoding: 42 42 9
Width: 500
Flags: MW
LayerCount: 2
Fore
SplineSet
450 651.030273438 m 1
 341.98046875 590 l 1
 450 528.969726562 l 1
 404.009765625 451.030273438 l 1
 295.990234375 512.059570312 l 1
 295.990234375 390 l 1
 204.009765625 390 l 1
 204.009765625 512.059570312 l 1
 95.990234375 451.030273438 l 1
 50 528.969726562 l 1
 158.01953125 590 l 1
 50 651.030273438 l 1
 95.990234375 728.969726562 l 1
 204.009765625 667.940429688 l 1
 204.009765625 790 l 1
 295.990234375 790 l 1
 295.990234375 667.940429688 l 1
 404.009765625 728.969726562 l 1
 450 651.030273438 l 1
EndSplineSet
Validated: 1
EndChar

StartChar: plus
Encoding: 43 43 10
Width: 500
Flags: MW
LayerCount: 2
Fore
SplineSet
300 540 m 1
 300 390 l 1
 450 390 l 1
 450 290 l 1
 300 290 l 1
 300 140 l 1
 200 140 l 1
 200 290 l 1
 50 290 l 1
 50 390 l 1
 200 390 l 1
 200 540 l 1
 300 540 l 1
EndSplineSet
Validated: 1
EndChar

StartChar: comma
Encoding: 44 44 11
Width: 250
Flags: MW
LayerCount: 2
Fore
SplineSet
50 -100 m 1
 100 100 l 1
 200 100 l 1
 150 -100 l 1
 50 -100 l 1
EndSplineSet
Validated: 1
EndChar

StartChar: hyphen
Encoding: 45 45 12
Width: 400
Flags: MW
LayerCount: 2
Fore
SplineSet
50 290 m 1
 50 390 l 1
 350 390 l 1
 350 290 l 1
 50 290 l 1
EndSplineSet
Validated: 1
EndChar

StartChar: period
Encoding: 46 46 13
Width: 210
Flags: MW
LayerCount: 2
Fore
SplineSet
50 54.8203125 m 0
 50 85.1953125 74.6240234375 109.8203125 105 109.8203125 c 0
 135.375976562 109.8203125 160 85.1953125 160 54.8203125 c 0
 160 24.4443359375 135.375976562 -0.1796875 105 -0.1796875 c 0
 74.6240234375 -0.1796875 50 24.4443359375 50 54.8203125 c 0
EndSplineSet
Validated: 1
EndChar

StartChar: slash
Encoding: 47 47 14
Width: 500
Flags: MW
LayerCount: 2
Fore
SplineSet
50 10 m 1
 350 790 l 1
 450 790 l 1
 150 10 l 1
 50 10 l 1
EndSplineSet
Validated: 1
EndChar

StartChar: zero
Encoding: 48 48 15
Width: 500
Flags: MW
LayerCount: 2
Fore
SplineSet
350 773.240234375 m 0
 380.360351562 755.6796875 405.6796875 730.360351562 423.240234375 700 c 0
 440.259765625 670.58984375 450 636.4296875 450 600 c 2
 450 200 l 2
 450 163.5703125 440.259765625 129.41015625 423.240234375 100 c 0
 405.6796875 69.6396484375 380.360351562 44.3203125 350 26.759765625 c 0
 320.58984375 9.740234375 286.4296875 0 250 0 c 0
 213.5703125 0 179.41015625 9.740234375 150 26.759765625 c 0
 119.639648438 44.3203125 94.3203125 69.6396484375 76.759765625 100 c 0
 59.740234375 129.41015625 50 163.5703125 50 200 c 2
 50 600 l 2
 50 636.4296875 59.740234375 670.58984375 76.759765625 700 c 0
 94.3203125 730.360351562 119.639648438 755.6796875 150 773.240234375 c 0
 179.41015625 790.259765625 213.5703125 800 250 800 c 0
 286.4296875 800 320.58984375 790.259765625 350 773.240234375 c 0
350 200 m 2
 350 600 l 2
 350 655.23046875 305.23046875 700 250 700 c 0
 194.76953125 700 150 655.23046875 150 600 c 2
 150 200 l 2
 150 144.76953125 194.76953125 100 250 100 c 0
 305.23046875 100 350 144.76953125 350 200 c 2
EndSplineSet
Validated: 1
EndChar

StartChar: one
Encoding: 49 49 16
Width: 350
Flags: MW
LayerCount: 2
Fore
SplineSet
200 10 m 1
 200 660 l 1
 50 600 l 1
 50 700 l 1
 200 760 l 1
 300 800 l 1
 300 700 l 1
 300 10 l 1
 200 10 l 1
EndSplineSet
Validated: 1
EndChar

StartChar: two
Encoding: 50 50 17
Width: 500
Flags: MW
LayerCount: 2
Fore
SplineSet
161.3203125 136.400390625 m 0
 159.169921875 127.509765625 157.3203125 118.700195312 155.780273438 110 c 1
 450 110 l 1
 450 10 l 1
 50 10 l 1
 50.41015625 60.400390625 l 2
 50.4599609375 67.650390625 50.91015625 74.3798828125 51.33984375 80 c 0
 53.3203125 105.83984375 57.650390625 132.719726562 64.2197265625 159.900390625 c 0
 65.0595703125 163.370117188 65.9501953125 166.91015625 66.8701171875 170.41015625 c 0
 81.2998046875 225.25 104.330078125 275.919921875 135.330078125 321.040039062 c 0
 168.509765625 369.33984375 209.16015625 408.709960938 256.16015625 438.080078125 c 0
 291.41015625 460.110351562 319.3203125 492.049804688 334.75 528.01953125 c 0
 353.080078125 570.75 354.349609375 617.76953125 337.98046875 647.790039062 c 0
 320.700195312 679.509765625 286.240234375 700 250.200195312 700 c 0
 195.110351562 700 150.299804688 655.139648438 150.299804688 600 c 1
 50.400390625 600 l 1
 50.400390625 710.280273438 140.030273438 800 250.200195312 800 c 0
 285.860351562 800 321.110351562 790.240234375 352.16015625 771.780273438 c 0
 383.1796875 753.330078125 408.599609375 727.01953125 425.6796875 695.690429688 c 0
 442.379882812 665.059570312 450.509765625 628.0703125 449.200195312 588.740234375 c 0
 448.080078125 555.139648438 440.25 520.509765625 426.549804688 488.5703125 c 0
 403.16015625 434.030273438 361.440429688 385.969726562 309.0703125 353.25 c 0
 240.030273438 310.110351562 186.959960938 234.190429688 163.48046875 144.950195312 c 0
 162.73046875 142.099609375 162 139.219726562 161.3203125 136.400390625 c 0
EndSplineSet
Validated: 33
EndChar

StartChar: three
Encoding: 51 51 18
Width: 500
Flags: MW
LayerCount: 2
Fore
SplineSet
350 773.240234375 m 0
 380.360351562 755.6796875 405.6796875 730.360351562 423.240234375 700 c 0
 440.259765625 670.58984375 450 636.4296875 450 600 c 2
 450 590 l 2
 450 553.5703125 440.259765625 519.41015625 423.240234375 490 c 0
 412.360351562 471.1796875 398.490234375 454.299804688 382.290039062 440 c 1
 398.490234375 425.700195312 412.360351562 408.8203125 423.240234375 390 c 0
 440.259765625 360.58984375 450 326.4296875 450 290 c 2
 450 200 l 2
 450 163.5703125 440.259765625 129.41015625 423.240234375 100 c 0
 405.6796875 69.6396484375 380.360351562 44.3203125 350 26.759765625 c 0
 320.58984375 9.740234375 286.4296875 0 250 0 c 0
 213.5703125 0 179.41015625 9.740234375 150 26.759765625 c 0
 119.639648438 44.3203125 94.3203125 69.6396484375 76.759765625 100 c 0
 59.740234375 129.41015625 50 163.5703125 50 200 c 1
 150 200 l 1
 150 144.76953125 194.76953125 100 250 100 c 0
 305.23046875 100 350 144.76953125 350 200 c 2
 350 290 l 2
 350 345.23046875 305.23046875 390 250 390 c 2
 200.349609375 390 l 1
 200.349609375 490 l 1
 250 490 l 2
 305.23046875 490 350 534.76953125 350 590 c 2
 350 600 l 2
 350 655.23046875 305.23046875 700 250 700 c 0
 194.76953125 700 150 655.23046875 150 600 c 1
 50 600 l 1
 50 636.4296875 59.740234375 670.58984375 76.759765625 700 c 0
 94.3203125 730.360351562 119.639648438 755.6796875 150 773.240234375 c 0
 179.41015625 790.259765625 213.5703125 800 250 800 c 0
 286.4296875 800 320.58984375 790.259765625 350 773.240234375 c 0
EndSplineSet
Validated: 1
EndChar

StartChar: four
Encoding: 52 52 19
Width: 500
Flags: MW
LayerCount: 2
Fore
SplineSet
350 790 m 1
 450 790 l 1
 450 10 l 1
 350 10 l 1
 350 390 l 1
 250 390 l 2
 213.5703125 390 179.41015625 399.740234375 150 416.759765625 c 0
 138.459960938 423.4296875 127.639648438 431.23046875 117.709960938 440 c 0
 101.509765625 454.299804688 87.6396484375 471.1796875 76.759765625 490 c 0
 59.740234375 519.41015625 50 553.5703125 50 590 c 2
 50 790 l 1
 150 790 l 1
 150 590 l 2
 150 534.76953125 194.76953125 490 250 490 c 2
 350 490 l 1
 350 790 l 1
EndSplineSet
Validated: 1
EndChar

StartChar: five
Encoding: 53 53 20
Width: 500
Flags: MW
LayerCount: 2
Fore
SplineSet
50 390 m 1
 50 790 l 1
 450 790 l 1
 450 690 l 1
 150 690 l 1
 150 490 l 1
 250 490 l 2
 286.4296875 490 320.58984375 480.259765625 350 463.240234375 c 0
 361.540039062 456.5703125 372.360351562 448.76953125 382.290039062 440 c 0
 398.490234375 425.700195312 412.360351562 408.8203125 423.240234375 390 c 0
 440.259765625 360.58984375 450 326.4296875 450 290 c 2
 450 200 l 2
 450 163.5703125 440.259765625 129.41015625 423.240234375 100 c 0
 405.6796875 69.6396484375 380.360351562 44.3203125 350 26.759765625 c 0
 320.58984375 9.740234375 286.4296875 0 250 0 c 0
 213.5703125 0 179.41015625 9.740234375 150 26.759765625 c 0
 119.639648438 44.3203125 94.3203125 69.6396484375 76.759765625 100 c 0
 59.740234375 129.41015625 50 163.5703125 50 200 c 1
 150 200 l 1
 150 144.76953125 194.76953125 100 250 100 c 0
 305.23046875 100 350 144.76953125 350 200 c 2
 350 290 l 2
 350 345.23046875 305.23046875 390 250 390 c 2
 50 390 l 1
EndSplineSet
Validated: 1
EndChar

StartChar: six
Encoding: 54 54 21
Width: 500
Flags: MW
LayerCount: 2
Fore
SplineSet
250 700 m 0
 194.76953125 700 150 655.23046875 150 600 c 2
 150 463.240234375 l 1
 179.41015625 480.259765625 213.5703125 490 250 490 c 0
 286.4296875 490 320.58984375 480.259765625 350 463.240234375 c 0
 361.540039062 456.5703125 372.360351562 448.76953125 382.290039062 440 c 0
 398.490234375 425.700195312 412.360351562 408.8203125 423.240234375 390 c 0
 440.259765625 360.58984375 450 326.4296875 450 290 c 2
 450 200 l 2
 450 163.5703125 440.259765625 129.41015625 423.240234375 100 c 0
 405.6796875 69.6396484375 380.360351562 44.3203125 350 26.759765625 c 0
 320.58984375 9.740234375 286.4296875 0 250 0 c 0
 213.5703125 0 179.41015625 9.740234375 150 26.759765625 c 0
 119.639648438 44.3203125 94.3203125 69.6396484375 76.759765625 100 c 0
 59.740234375 129.41015625 50 163.5703125 50 200 c 2
 50 600 l 2
 50 636.4296875 59.740234375 670.58984375 76.759765625 700 c 0
 94.3203125 730.360351562 119.639648438 755.6796875 150 773.240234375 c 0
 179.41015625 790.259765625 213.5703125 800 250 800 c 0
 286.4296875 800 320.58984375 790.259765625 350 773.240234375 c 0
 380.360351562 755.6796875 405.6796875 730.360351562 423.240234375 700 c 0
 440.259765625 670.58984375 450 636.4296875 450 600 c 1
 350 600 l 1
 350 655.23046875 305.23046875 700 250 700 c 0
250 390 m 0
 194.76953125 390 150 345.23046875 150 290 c 2
 150 200 l 2
 150 144.76953125 194.76953125 100 250 100 c 0
 305.23046875 100 350 144.76953125 350 200 c 2
 350 290 l 2
 350 345.23046875 305.23046875 390 250 390 c 0
EndSplineSet
Validated: 1
EndChar

StartChar: seven
Encoding: 55 55 22
Width: 500
Flags: MW
LayerCount: 2
Fore
SplineSet
50 690 m 1
 50 790 l 1
 450 790 l 1
 450 690 l 1
 160 10 l 1
 50 10 l 1
 340 690 l 1
 50 690 l 1
EndSplineSet
Validated: 1
EndChar

StartChar: eight
Encoding: 56 56 23
Width: 500
Flags: MW
LayerCount: 2
Fore
SplineSet
350 773.240234375 m 0
 380.360351562 755.6796875 405.6796875 730.360351562 423.240234375 700 c 0
 440.259765625 670.58984375 450 636.4296875 450 600 c 2
 450 590 l 2
 450 553.5703125 440.259765625 519.41015625 423.240234375 490 c 0
 412.360351562 471.1796875 398.490234375 454.299804688 382.290039062 440 c 1
 398.490234375 425.700195312 412.360351562 408.8203125 423.240234375 390 c 0
 440.259765625 360.58984375 450 326.4296875 450 290 c 2
 450 200 l 2
 450 163.5703125 440.259765625 129.41015625 423.240234375 100 c 0
 405.6796875 69.6396484375 380.360351562 44.3203125 350 26.759765625 c 0
 320.58984375 9.740234375 286.4296875 0 250 0 c 0
 213.5703125 0 179.41015625 9.740234375 150 26.759765625 c 0
 119.639648438 44.3203125 94.3203125 69.6396484375 76.759765625 100 c 0
 59.740234375 129.41015625 50 163.5703125 50 200 c 2
 50 290 l 2
 50 326.4296875 59.740234375 360.58984375 76.759765625 390 c 0
 87.6396484375 408.8203125 101.509765625 425.700195312 117.709960938 440 c 1
 101.509765625 454.299804688 87.6396484375 471.1796875 76.759765625 490 c 0
 59.740234375 519.41015625 50 553.5703125 50 590 c 2
 50 600 l 2
 50 636.4296875 59.740234375 670.58984375 76.759765625 700 c 0
 94.3203125 730.360351562 119.639648438 755.6796875 150 773.240234375 c 0
 179.41015625 790.259765625 213.5703125 800 250 800 c 0
 286.4296875 800 320.58984375 790.259765625 350 773.240234375 c 0
350 200 m 2
 350 290 l 2
 350 345.23046875 305.23046875 390 250 390 c 0
 194.76953125 390 150 345.23046875 150 290 c 2
 150 200 l 2
 150 144.76953125 194.76953125 100 250 100 c 0
 305.23046875 100 350 144.76953125 350 200 c 2
350 590 m 2
 350 600 l 2
 350 655.23046875 305.23046875 700 250 700 c 0
 194.76953125 700 150 655.23046875 150 600 c 2
 150 590 l 2
 150 534.76953125 194.76953125 490 250 490 c 0
 305.23046875 490 350 534.76953125 350 590 c 2
EndSplineSet
Validated: 1
EndChar

StartChar: nine
Encoding: 57 57 24
Width: 500
Flags: MW
LayerCount: 2
Fore
SplineSet
350 773.240234375 m 0
 380.360351562 755.6796875 405.6796875 730.360351562 423.240234375 700 c 0
 440.259765625 670.58984375 450 636.4296875 450 600 c 2
 450 200 l 2
 450 163.5703125 440.259765625 129.41015625 423.240234375 100 c 0
 405.6796875 69.6396484375 380.360351562 44.3203125 350 26.759765625 c 0
 320.58984375 9.740234375 286.4296875 0 250 0 c 0
 213.5703125 0 179.41015625 9.740234375 150 26.759765625 c 0
 119.639648438 44.3203125 94.3203125 69.6396484375 76.759765625 100 c 0
 59.740234375 129.41015625 50 163.5703125 50 200 c 1
 150 200 l 1
 150 144.76953125 194.76953125 100 250 100 c 0
 305.23046875 100 350 144.76953125 350 200 c 2
 350 416.759765625 l 1
 320.58984375 399.740234375 286.4296875 390 250 390 c 0
 213.5703125 390 179.41015625 399.740234375 150 416.759765625 c 0
 138.459960938 423.4296875 127.639648438 431.23046875 117.709960938 440 c 0
 101.509765625 454.299804688 87.6396484375 471.1796875 76.759765625 490 c 0
 59.740234375 519.41015625 50 553.5703125 50 590 c 2
 50 600 l 2
 50 636.4296875 59.740234375 670.58984375 76.759765625 700 c 0
 94.3203125 730.360351562 119.639648438 755.6796875 150 773.240234375 c 0
 179.41015625 790.259765625 213.5703125 800 250 800 c 0
 286.4296875 800 320.58984375 790.259765625 350 773.240234375 c 0
350 590 m 2
 350 600 l 2
 350 655.23046875 305.23046875 700 250 700 c 0
 194.76953125 700 150 655.23046875 150 600 c 2
 150 590 l 2
 150 534.76953125 194.76953125 490 250 490 c 0
 305.23046875 490 350 534.76953125 350 590 c 2
EndSplineSet
Validated: 1
EndChar

StartChar: colon
Encoding: 58 58 25
Width: 210
Flags: MW
LayerCount: 2
Fore
SplineSet
50 54.8203125 m 0
 50 85.1953125 74.6240234375 109.8203125 105 109.8203125 c 0
 135.375976562 109.8203125 160 85.1953125 160 54.8203125 c 0
 160 24.4443359375 135.375976562 -0.1796875 105 -0.1796875 c 0
 74.6240234375 -0.1796875 50 24.4443359375 50 54.8203125 c 0
50 445 m 0
 50 475.375976562 74.6240234375 500 105 500 c 0
 135.375976562 500 160 475.375976562 160 445 c 0
 160 414.624023438 135.375976562 390 105 390 c 0
 74.6240234375 390 50 414.624023438 50 445 c 0
EndSplineSet
Validated: 1
EndChar

StartChar: semicolon
Encoding: 59 59 26
Width: 260
Flags: MW
LayerCount: 2
Fore
SplineSet
200 100 m 1
 150 -100 l 1
 50 -100 l 1
 100 100 l 1
 200 100 l 1
100 445 m 0
 100 475.375976562 124.624023438 500 155 500 c 0
 185.375976562 500 210 475.375976562 210 445 c 0
 210 414.624023438 185.375976562 390 155 390 c 0
 124.624023438 390 100 414.624023438 100 445 c 0
EndSplineSet
Validated: 1
EndChar

StartChar: less
Encoding: 60 60 27
Width: 355
Flags: MW
LayerCount: 2
Fore
SplineSet
195 540 m 1
 305 540 l 1
 160 340 l 1
 305 140 l 1
 195 140 l 1
 50 340 l 1
 195 540 l 1
EndSplineSet
Validated: 1
EndChar

StartChar: equal
Encoding: 61 61 28
Width: 500
Flags: MW
LayerCount: 2
Fore
SplineSet
50 190 m 1
 50 290 l 1
 450 290 l 1
 450 190 l 1
 50 190 l 1
50 390 m 1
 50 490 l 1
 450 490 l 1
 450 390 l 1
 50 390 l 1
EndSplineSet
Validated: 1
EndChar

StartChar: greater
Encoding: 62 62 29
Width: 355
Flags: MW
LayerCount: 2
Fore
SplineSet
50 540 m 1
 160 540 l 1
 305 340 l 1
 160 140 l 1
 50 140 l 1
 195 340 l 1
 50 540 l 1
EndSplineSet
Validated: 1
EndChar

StartChar: question
Encoding: 63 63 30
Width: 500
Flags: MW
LayerCount: 2
Fore
SplineSet
250 800 m 0
 324.030273438 800 388.66015625 759.780273438 423.240234375 700 c 0
 440.259765625 670.58984375 450 636.4296875 450 600 c 2
 450 590 l 2
 450 553.5703125 440.259765625 519.41015625 423.240234375 490 c 0
 412.360351562 471.1796875 398.490234375 454.299804688 382.290039062 440 c 0
 359.040039062 419.469726562 330.969726562 404.26953125 300 396.309570312 c 1
 300 200 l 1
 200 200 l 1
 200 490 l 1
 250 490 l 2
 305.23046875 490 350 534.76953125 350 590 c 2
 350 600 l 2
 350 655.23046875 305.23046875 700 250 700 c 0
 194.76953125 700 150 655.23046875 150 600 c 1
 50 600 l 1
 50 636.4296875 59.740234375 670.58984375 76.759765625 700 c 0
 111.33984375 759.780273438 175.969726562 800 250 800 c 0
195 55 m 0
 195 85.3759765625 219.624023438 110 250 110 c 0
 280.375976562 110 305 85.3759765625 305 55 c 0
 305 24.6240234375 280.375976562 0 250 0 c 0
 219.624023438 0 195 24.6240234375 195 55 c 0
EndSplineSet
Validated: 1
EndChar

StartChar: at
Encoding: 64 64 31
Width: 713
Flags: MW
LayerCount: 2
Fore
SplineSet
356.5 538 m 0
 438.370117188 538 515.33984375 506.120117188 573.23046875 448.23046875 c 0
 631.120117188 390.33984375 663 313.370117188 663 231.5 c 2
 663 128.379882812 l 2
 663 80.3798828125 643.25 50.5498046875 626.6796875 33.98046875 c 0
 604.759765625 12.0703125 575.400390625 0 544 0 c 0
 535.73046875 0 527.610351562 0.83984375 519.719726562 2.4697265625 c 1
 577.8203125 -55.6298828125 l 1
 573.23046875 -60.23046875 l 2
 515.33984375 -118.120117188 438.379882812 -150 356.5 -150 c 0
 274.629882812 -150 197.669921875 -118.120117188 139.76953125 -60.23046875 c 0
 81.8798828125 -2.330078125 50 74.6298828125 50 156.5 c 2
 50 231.5 l 2
 50 313.370117188 81.8798828125 390.33984375 139.76953125 448.23046875 c 0
 197.66015625 506.120117188 274.629882812 538 356.5 538 c 0
575 128.379882812 m 2
 575 231.5 l 2
 575 351.98046875 476.98046875 450 356.5 450 c 0
 236.01953125 450 138 351.98046875 138 231.5 c 2
 138 156.5 l 2
 138 36.01953125 236.01953125 -62 356.5 -62 c 0
 414.870117188 -62 469.740234375 -39.26953125 511 2 c 2
 513.059570312 4.0498046875 l 1
 493.599609375 9.2900390625 475.830078125 19.48046875 461.3203125 33.98046875 c 0
 460.209960938 35.099609375 459.110351562 36.25 458.030273438 37.41015625 c 0
 450.799804688 31.240234375 443 25.7197265625 434.759765625 20.9501953125 c 0
 411.08984375 7.240234375 384.030273438 0 356.5 0 c 0
 328.969726562 0 301.91015625 7.240234375 278.240234375 20.9501953125 c 0
 254.5 34.6796875 234.6796875 54.5 220.940429688 78.25 c 0
 207.240234375 101.91015625 200 128.969726562 200 156.5 c 2
 200 231.5 l 2
 200 259.030273438 207.240234375 286.08984375 220.950195312 309.759765625 c 0
 234.6796875 333.5 254.5 353.3203125 278.25 367.059570312 c 0
 301.91015625 380.759765625 328.969726562 388 356.5 388 c 0
 380.309570312 388 403.780273438 382.580078125 425 372.25 c 1
 425 380.5 l 1
 513 380.5 l 1
 513 128.379882812 l 2
 513 90.91015625 536.73046875 88 544 88 c 0
 551.26953125 88 575 90.91015625 575 128.379882812 c 2
425 231.5 m 2
 425 269.26953125 394.26953125 300 356.5 300 c 0
 318.73046875 300 288 269.26953125 288 231.5 c 2
 288 156.5 l 2
 288 118.73046875 318.73046875 88 356.5 88 c 0
 394.26953125 88 425 118.73046875 425 156.5 c 2
 425 231.5 l 2
EndSplineSet
Validated: 1
EndChar

StartChar: A
Encoding: 65 65 32
Width: 500
Flags: MW
LayerCount: 2
Fore
SplineSet
394.23046875 300 m 1
 413.459960938 200 l 1
 450 10 l 1
 350 10 l 1
 313.459960938 200 l 1
 186.540039062 200 l 1
 150 10 l 1
 50 10 l 1
 86.5400390625 200 l 1
 105.76953125 300 l 1
 200 790 l 1
 300 790 l 1
 394.23046875 300 l 1
205.76953125 300 m 1
 294.23046875 300 l 1
 250 530 l 1
 205.76953125 300 l 1
EndSplineSet
Validated: 1
EndChar

StartChar: B
Encoding: 66 66 33
Width: 500
Flags: MW
LayerCount: 2
Fore
SplineSet
423.240234375 490 m 0
 412.360351562 471.1796875 398.490234375 454.299804688 382.290039062 440 c 1
 398.490234375 425.700195312 412.360351562 408.8203125 423.240234375 390 c 0
 440.259765625 360.58984375 450 326.4296875 450 290 c 2
 450 210 l 2
 450 173.5703125 440.259765625 139.41015625 423.240234375 110 c 0
 405.6796875 79.6396484375 380.360351562 54.3203125 350 36.759765625 c 0
 320.58984375 19.740234375 286.4296875 10 250 10 c 2
 150 10 l 1
 50 10 l 1
 50 790 l 1
 150 790 l 1
 250 790 l 2
 286.4296875 790 320.58984375 780.259765625 350 763.240234375 c 0
 380.360351562 745.6796875 405.6796875 720.360351562 423.240234375 690 c 0
 440.259765625 660.58984375 450 626.4296875 450 590 c 0
 450 553.5703125 440.259765625 519.41015625 423.240234375 490 c 0
350 210 m 2
 350 290 l 2
 350 345.23046875 305.23046875 390 250 390 c 2
 150 390 l 1
 150 110 l 1
 250 110 l 2
 305.23046875 110 350 154.76953125 350 210 c 2
250 490 m 2
 305.23046875 490 350 534.76953125 350 590 c 0
 350 645.23046875 305.23046875 690 250 690 c 2
 150 690 l 1
 150 490 l 1
 250 490 l 2
EndSplineSet
Validated: 1
EndChar

StartChar: C
Encoding: 67 67 34
Width: 500
Flags: MW
LayerCount: 2
Fore
SplineSet
250 700 m 0
 194.76953125 700 150 655.23046875 150 600 c 2
 150 200 l 2
 150 144.76953125 194.76953125 100 250 100 c 0
 305.23046875 100 350 144.76953125 350 200 c 1
 450 200 l 1
 450 125.969726562 409.780273438 61.33984375 350 26.759765625 c 0
 320.58984375 9.740234375 286.4296875 0 250 0 c 0
 213.5703125 0 179.41015625 9.740234375 150 26.759765625 c 0
 90.2197265625 61.33984375 50 125.969726562 50 200 c 2
 50 600 l 2
 50 674.030273438 90.2197265625 738.66015625 150 773.240234375 c 0
 179.41015625 790.259765625 213.5703125 800 250 800 c 0
 286.4296875 800 320.58984375 790.259765625 350 773.240234375 c 0
 409.780273438 738.66015625 450 674.030273438 450 600 c 1
 350 600 l 1
 350 655.23046875 305.23046875 700 250 700 c 0
EndSplineSet
Validated: 1
EndChar

StartChar: D
Encoding: 68 68 35
Width: 500
Flags: MW
LayerCount: 2
Fore
SplineSet
350 763.240234375 m 0
 380.360351562 745.6796875 405.6796875 720.360351562 423.240234375 690 c 0
 440.259765625 660.58984375 450 626.4296875 450 590 c 2
 450 210 l 2
 450 173.5703125 440.259765625 139.41015625 423.240234375 110 c 0
 405.6796875 79.6396484375 380.360351562 54.3203125 350 36.759765625 c 0
 320.58984375 19.740234375 286.4296875 10 250 10 c 2
 150 10 l 1
 50 10 l 1
 50 790 l 1
 150 790 l 1
 250 790 l 2
 286.4296875 790 320.58984375 780.259765625 350 763.240234375 c 0
350 210 m 2
 350 590 l 2
 350 645.23046875 305.23046875 690 250 690 c 2
 150 690 l 1
 150 110 l 1
 250 110 l 2
 305.23046875 110 350 154.76953125 350 210 c 2
EndSplineSet
Validated: 1
EndChar

StartChar: E
Encoding: 69 69 36
Width: 500
Flags: MW
LayerCount: 2
Fore
SplineSet
450 10 m 1
 150 10 l 1
 50 10 l 1
 50 110 l 1
 50 390 l 1
 50 490 l 1
 50 690 l 1
 50 790 l 1
 150 790 l 1
 450 790 l 1
 450 690 l 1
 150 690 l 1
 150 490 l 1
 450 490 l 1
 450 390 l 1
 150 390 l 1
 150 110 l 1
 450 110 l 1
 450 10 l 1
EndSplineSet
Validated: 1
EndChar

StartChar: F
Encoding: 70 70 37
Width: 500
Flags: MW
LayerCount: 2
Fore
SplineSet
50 790 m 1
 150 790 l 1
 450 790 l 1
 450 690 l 1
 150 690 l 1
 150 490 l 1
 450 490 l 1
 450 390 l 1
 150 390 l 1
 150 10 l 1
 50 10 l 1
 50 390 l 1
 50 490 l 1
 50 690 l 1
 50 790 l 1
EndSplineSet
Validated: 1
EndChar

StartChar: G
Encoding: 71 71 38
Width: 500
Flags: MW
LayerCount: 2
Fore
SplineSet
150 26.759765625 m 0
 119.639648438 44.3203125 94.3203125 69.6396484375 76.759765625 100 c 0
 59.740234375 129.41015625 50 163.5703125 50 200 c 2
 50 600 l 2
 50 636.4296875 59.740234375 670.58984375 76.759765625 700 c 0
 94.3203125 730.360351562 119.639648438 755.6796875 150 773.240234375 c 0
 179.41015625 790.259765625 213.5703125 800 250 800 c 0
 286.4296875 800 320.58984375 790.259765625 350 773.240234375 c 0
 380.360351562 755.6796875 405.6796875 730.360351562 423.240234375 700 c 0
 440.259765625 670.58984375 450 636.4296875 450 600 c 1
 350 600 l 1
 350 655.23046875 305.23046875 700 250 700 c 0
 194.76953125 700 150 655.23046875 150 600 c 2
 150 200 l 2
 150 144.76953125 194.76953125 100 250 100 c 0
 305.23046875 100 350 144.76953125 350 200 c 2
 350 390 l 1
 250 390 l 1
 250 490 l 1
 450 490 l 1
 450 200 l 2
 450 163.5703125 440.259765625 129.41015625 423.240234375 100 c 0
 405.6796875 69.6396484375 380.360351562 44.3203125 350 26.759765625 c 0
 320.58984375 9.740234375 286.4296875 0 250 0 c 0
 213.5703125 0 179.41015625 9.740234375 150 26.759765625 c 0
EndSplineSet
Validated: 1
EndChar

StartChar: H
Encoding: 72 72 39
Width: 500
Flags: MW
LayerCount: 2
Fore
SplineSet
350 790 m 1
 450 790 l 1
 450 490 l 1
 450 390 l 1
 450 10 l 1
 350 10 l 1
 350 390 l 1
 150 390 l 1
 150 10 l 1
 50 10 l 1
 50 390 l 1
 50 490 l 1
 50 790 l 1
 150 790 l 1
 150 490 l 1
 350 490 l 1
 350 790 l 1
EndSplineSet
Validated: 1
EndChar

StartChar: I
Encoding: 73 73 40
Width: 300
Flags: MW
LayerCount: 2
Fore
SplineSet
50 110 m 1
 100 110 l 1
 100 690 l 1
 50 690 l 1
 50 790 l 1
 100 790 l 1
 200 790 l 1
 250 790 l 1
 250 690 l 1
 200 690 l 1
 200 110 l 1
 250 110 l 1
 250 10 l 1
 200 10 l 1
 100 10 l 1
 50 10 l 1
 50 110 l 1
EndSplineSet
Validated: 1
EndChar

StartChar: J
Encoding: 74 74 41
Width: 500
Flags: MW
LayerCount: 2
Fore
SplineSet
350 200 m 2
 350 790 l 1
 450 790 l 1
 450 200 l 2
 450 125.969726562 409.780273438 61.33984375 350 26.759765625 c 0
 320.58984375 9.740234375 286.4296875 0 250 0 c 0
 139.540039062 0 50 89.5400390625 50 200 c 1
 150 200 l 1
 150 144.76953125 194.76953125 100 250 100 c 0
 305.23046875 100 350 144.76953125 350 200 c 2
EndSplineSet
Validated: 1
EndChar

StartChar: K
Encoding: 75 75 42
Width: 500
Flags: MW
LayerCount: 2
Fore
SplineSet
340 790 m 1
 450 790 l 1
 260 440 l 1
 450 10 l 1
 339 10 l 1
 150 437.740234375 l 1
 150 10 l 1
 50 10 l 1
 50 790 l 1
 150 790 l 1
 150 440 l 1
 340 790 l 1
EndSplineSet
Validated: 1
EndChar

StartChar: L
Encoding: 76 76 43
Width: 500
Flags: MW
LayerCount: 2
Fore
SplineSet
150 790 m 1
 150 110 l 1
 450 110 l 1
 450 10 l 1
 150 10 l 1
 50 10 l 1
 50 110 l 1
 50 790 l 1
 150 790 l 1
EndSplineSet
Validated: 1
EndChar

StartChar: M
Encoding: 77 77 44
Width: 600
Flags: MW
LayerCount: 2
Fore
SplineSet
300 490 m 1
 450 790 l 1
 550 790 l 1
 550 10 l 1
 450 10 l 1
 450 590 l 1
 350 390 l 1
 250 390 l 1
 150 590 l 1
 150 10 l 1
 50 10 l 1
 50 790 l 1
 150 790 l 1
 300 490 l 1
EndSplineSet
Validated: 1
EndChar

StartChar: N
Encoding: 78 78 45
Width: 500
Flags: MW
LayerCount: 2
Fore
SplineSet
350 525 m 1
 350 790 l 1
 450 790 l 1
 450 10 l 1
 350 10 l 1
 350 375 l 1
 150 640 l 1
 150 10 l 1
 50 10 l 1
 50 790 l 1
 150 790 l 1
 350 525 l 1
EndSplineSet
Validated: 1
EndChar

StartChar: O
Encoding: 79 79 46
Width: 500
Flags: MW
LayerCount: 2
Fore
SplineSet
150 26.759765625 m 0
 90.2197265625 61.33984375 50 125.969726562 50 200 c 2
 50 600 l 2
 50 674.030273438 90.2197265625 738.66015625 150 773.240234375 c 0
 179.41015625 790.259765625 213.5703125 800 250 800 c 0
 286.4296875 800 320.58984375 790.259765625 350 773.240234375 c 0
 409.780273438 738.66015625 450 674.030273438 450 600 c 2
 450 200 l 2
 450 125.969726562 409.780273438 61.33984375 350 26.759765625 c 0
 320.58984375 9.740234375 286.4296875 0 250 0 c 0
 213.5703125 0 179.41015625 9.740234375 150 26.759765625 c 0
150 600 m 2
 150 200 l 2
 150 144.76953125 194.76953125 100 250 100 c 0
 305.23046875 100 350 144.76953125 350 200 c 2
 350 600 l 2
 350 655.23046875 305.23046875 700 250 700 c 0
 194.76953125 700 150 655.23046875 150 600 c 2
EndSplineSet
Validated: 1
EndChar

StartChar: P
Encoding: 80 80 47
Width: 500
Flags: MW
LayerCount: 2
Fore
SplineSet
250 790 m 2
 324.030273438 790 388.66015625 749.780273438 423.240234375 690 c 0
 440.259765625 660.58984375 450 626.4296875 450 590 c 0
 450 553.5703125 440.259765625 519.41015625 423.240234375 490 c 0
 388.66015625 430.219726562 324.030273438 390 250 390 c 2
 150 390 l 1
 150 10 l 1
 50 10 l 1
 50 790 l 1
 150 790 l 1
 250 790 l 2
250 490 m 2
 305.23046875 490 350 534.76953125 350 590 c 0
 350 645.23046875 305.23046875 690 250 690 c 2
 150 690 l 1
 150 490 l 1
 250 490 l 2
EndSplineSet
Validated: 1
EndChar

StartChar: Q
Encoding: 81 81 48
Width: 500
Flags: MW
LayerCount: 2
Fore
SplineSet
350 773.240234375 m 0
 409.780273438 738.66015625 450 674.030273438 450 600 c 2
 450 200 l 2
 450 161.0703125 438.870117188 124.740234375 419.629882812 94.009765625 c 1
 450 63.6396484375 l 1
 386.360351562 0 l 1
 355.990234375 30.3701171875 l 2
 354.01953125 29.1298828125 352.01953125 27.9296875 350 26.759765625 c 0
 320.58984375 9.740234375 286.4296875 0 250 0 c 0
 213.5703125 0 179.41015625 9.740234375 150 26.759765625 c 0
 90.2197265625 61.33984375 50 125.969726562 50 200 c 2
 50 600 l 2
 50 674.030273438 90.2197265625 738.66015625 150 773.240234375 c 0
 179.41015625 790.259765625 213.5703125 800 250 800 c 0
 286.4296875 800 320.58984375 790.259765625 350 773.240234375 c 0
350 200 m 1
 350 600 l 2
 350 655.23046875 305.23046875 700 250 700 c 0
 194.76953125 700 150 655.23046875 150 600 c 2
 150 200 l 2
 150 144.76953125 194.76953125 100 250 100 c 0
 260.950195312 100 271.48046875 101.76953125 281.33984375 105.01953125 c 1
 259.080078125 127.280273438 l 1
 322.719726562 190.919921875 l 1
 344.98046875 168.66015625 l 1
 348.23046875 178.51953125 350 189.049804688 350 200 c 1
EndSplineSet
Validated: 1
EndChar

StartChar: R
Encoding: 82 82 49
Width: 500
Flags: MW
LayerCount: 2
Fore
SplineSet
423.240234375 490 m 0
 412.360351562 471.1796875 398.490234375 454.299804688 382.290039062 440 c 1
 398.490234375 425.700195312 412.360351562 408.8203125 423.240234375 390 c 0
 440.259765625 360.58984375 450 326.4296875 450 290 c 2
 450 10 l 1
 350 10 l 1
 350 290 l 2
 350 345.23046875 305.23046875 390 250 390 c 2
 150 390 l 1
 150 10 l 1
 50 10 l 1
 50 790 l 1
 150 790 l 1
 250 790 l 2
 286.4296875 790 320.58984375 780.259765625 350 763.240234375 c 0
 380.360351562 745.6796875 405.6796875 720.360351562 423.240234375 690 c 0
 440.259765625 660.58984375 450 626.4296875 450 590 c 0
 450 553.5703125 440.259765625 519.41015625 423.240234375 490 c 0
250 490 m 2
 305.23046875 490 350 534.76953125 350 590 c 0
 350 645.23046875 305.23046875 690 250 690 c 2
 150 690 l 1
 150 490 l 1
 250 490 l 2
EndSplineSet
Validated: 1
EndChar

StartChar: S
Encoding: 83 83 50
Width: 500
Flags: MW
LayerCount: 2
Fore
SplineSet
448.709960938 312.759765625 m 0
 448.879882812 311.33984375 449.030273438 309.919921875 449.16015625 308.490234375 c 0
 449.719726562 302.33984375 450 296.169921875 450 290 c 2
 450 200 l 2
 450 125.969726562 409.780273438 61.33984375 350 26.759765625 c 0
 320.58984375 9.740234375 286.4296875 0 250 0 c 0
 213.5703125 0 179.41015625 9.740234375 150 26.759765625 c 0
 90.2197265625 61.33984375 50 125.969726562 50 200 c 1
 150 200 l 1
 150 144.76953125 194.76953125 100 250 100 c 0
 305.23046875 100 350 144.76953125 350 200 c 0
 350 253.799804688 363.690429688 332.639648438 310.940429688 367.900390625 c 0
 298.200195312 376.400390625 283.440429688 381.379882812 268.5703125 385.040039062 c 0
 248.379882812 390.009765625 227.6796875 392.709960938 207.5 397.740234375 c 0
 124.540039062 418.41015625 61.8701171875 500.700195312 60.0498046875 585.58984375 c 0
 60.0302734375 586.5703125 60.01953125 587.540039062 60.009765625 588.51953125 c 0
 60 589.009765625 60 589.509765625 60 590 c 2
 60 600 l 2
 60 671.830078125 95.98046875 734.8203125 150 770.08984375 c 0
 179.049804688 789.049804688 213.309570312 800 250 800 c 0
 286.690429688 800 320.950195312 789.049804688 350 770.08984375 c 0
 404.01953125 734.8203125 440 671.830078125 440 600 c 1
 345 600 l 1
 345 655.23046875 302.469726562 700 250 700 c 0
 197.530273438 700 155 655.23046875 155 600 c 2
 155 600 155 590.009765625 155 590 c 0
 155 567.1796875 162.98046875 545.759765625 176.259765625 527.48046875 c 0
 188.530273438 510.620117188 207.0703125 503.370117188 226.73046875 498.3203125 c 0
 274.610351562 486.030273438 321.66015625 477.51953125 363.16015625 448.849609375 c 0
 398.209960938 424.639648438 426.540039062 390.309570312 440.370117188 349.75 c 0
 444.459960938 337.759765625 447.259765625 325.33984375 448.709960938 312.759765625 c 0
EndSplineSet
Validated: 33
EndChar

StartChar: T
Encoding: 84 84 51
Width: 500
Flags: MW
LayerCount: 2
Fore
SplineSet
200 790 m 1
 300 790 l 1
 450 790 l 1
 450 690 l 1
 300 690 l 1
 300 10 l 1
 200 10 l 1
 200 690 l 1
 50 690 l 1
 50 790 l 1
 200 790 l 1
EndSplineSet
Validated: 1
EndChar

StartChar: U
Encoding: 85 85 52
Width: 500
Flags: MW
LayerCount: 2
Fore
SplineSet
350 200 m 2
 350 790 l 1
 450 790 l 1
 450 200 l 2
 450 125.969726562 409.780273438 61.33984375 350 26.759765625 c 0
 320.58984375 9.740234375 286.4296875 0 250 0 c 0
 213.5703125 0 179.41015625 9.740234375 150 26.759765625 c 0
 90.2197265625 61.33984375 50 125.969726562 50 200 c 2
 50 790 l 1
 150 790 l 1
 150 200 l 2
 150 144.76953125 194.76953125 100 250 100 c 0
 305.23046875 100 350 144.76953125 350 200 c 2
EndSplineSet
Validated: 1
EndChar

StartChar: V
Encoding: 86 86 53
Width: 500
Flags: MW
LayerCount: 2
Fore
SplineSet
250 270 m 1
 350 790 l 1
 450 790 l 1
 300 10 l 1
 200 10 l 1
 50 790 l 1
 150 790 l 1
 250 270 l 1
EndSplineSet
Validated: 1
EndChar

StartChar: W
Encoding: 87 87 54
Width: 700
Flags: MW
LayerCount: 2
Fore
SplineSet
550 175 m 2
 550 790 l 1
 650 790 l 1
 650 175 l 2
 650 105.190429688 609.120117188 44.9296875 550 16.849609375 c 0
 527.26953125 6.0400390625 501.83984375 0 475 0 c 0
 448.16015625 0 422.73046875 6.0400390625 400 16.849609375 c 0
 381.259765625 25.740234375 364.349609375 37.8798828125 350 52.5302734375 c 1
 335.650390625 37.8798828125 318.740234375 25.740234375 300 16.849609375 c 0
 277.26953125 6.0400390625 251.83984375 0 225 0 c 0
 198.16015625 0 172.73046875 6.0400390625 150 16.849609375 c 0
 90.8798828125 44.9296875 50 105.190429688 50 175 c 2
 50 790 l 1
 150 790 l 1
 150 175 l 2
 150 133.580078125 183.580078125 100 225 100 c 0
 266.419921875 100 300 133.580078125 300 175 c 2
 300 790 l 1
 400 790 l 1
 400 175 l 2
 400 133.580078125 433.580078125 100 475 100 c 0
 516.419921875 100 550 133.580078125 550 175 c 2
EndSplineSet
Validated: 1
EndChar

StartChar: X
Encoding: 88 88 55
Width: 500
Flags: MW
LayerCount: 2
Fore
SplineSet
340 790 m 1
 450 790 l 1
 305 400 l 1
 450 10 l 1
 340 10 l 1
 250 252.0703125 l 1
 160 10 l 1
 50 10 l 1
 195 400 l 1
 50 790 l 1
 160 790 l 1
 250 547.9296875 l 1
 340 790 l 1
EndSplineSet
Validated: 1
EndChar

StartChar: Y
Encoding: 89 89 56
Width: 500
Flags: MW
LayerCount: 2
Fore
SplineSet
300 643.330078125 m 1
 350 790 l 1
 450 790 l 1
 300 350 l 1
 300 10 l 1
 200 10 l 1
 200 350 l 1
 50 790 l 1
 150 790 l 1
 200 643.330078125 l 1
 250 496.669921875 l 1
 300 643.330078125 l 1
EndSplineSet
Validated: 1
EndChar

StartChar: Z
Encoding: 90 90 57
Width: 500
Flags: MW
LayerCount: 2
Fore
SplineSet
50 690 m 1
 50 790 l 1
 450 790 l 1
 450 690 l 1
 160 110 l 1
 450 110 l 1
 450 10 l 1
 50 10 l 1
 50 110 l 1
 340 690 l 1
 50 690 l 1
EndSplineSet
Validated: 1
EndChar

StartChar: bracketleft
Encoding: 91 91 58
Width: 300
Flags: MW
LayerCount: 2
Fore
SplineSet
50 900 m 1
 150 900 l 1
 250 900 l 1
 250 800 l 1
 150 800 l 1
 150 0 l 1
 250 0 l 1
 250 -100 l 1
 150 -100 l 1
 50 -100 l 1
 50 0 l 1
 50 800 l 1
 50 900 l 1
EndSplineSet
Validated: 1
EndChar

StartChar: backslash
Encoding: 92 92 59
Width: 500
Flags: MW
LayerCount: 2
Fore
SplineSet
50 790 m 1
 150 790 l 1
 450 10 l 1
 350 10 l 1
 50 790 l 1
EndSplineSet
Validated: 1
EndChar

StartChar: bracketright
Encoding: 93 93 60
Width: 300
Flags: MW
LayerCount: 2
Fore
SplineSet
50 900 m 1
 150 900 l 1
 250 900 l 1
 250 800 l 1
 250 0 l 1
 250 -100 l 1
 150 -100 l 1
 50 -100 l 1
 50 0 l 1
 150 0 l 1
 150 800 l 1
 50 800 l 1
 50 900 l 1
EndSplineSet
Validated: 1
EndChar

StartChar: asciicircum
Encoding: 94 94 61
Width: 500
Flags: MW
LayerCount: 2
Fore
SplineSet
50 655 m 1
 250 800 l 1
 450 655 l 1
 450 545 l 1
 250 690 l 1
 50 545 l 1
 50 655 l 1
EndSplineSet
Validated: 1
EndChar

StartChar: underscore
Encoding: 95 95 62
Width: 500
Flags: MW
LayerCount: 2
Fore
SplineSet
50 10 m 1
 50 110 l 1
 450 110 l 1
 450 10 l 1
 50 10 l 1
EndSplineSet
Validated: 1
EndChar

StartChar: grave
Encoding: 96 96 63
Width: 250
Flags: MW
LayerCount: 2
Fore
SplineSet
50 790 m 1
 150 790 l 1
 200 600 l 1
 100 600 l 1
 50 790 l 1
EndSplineSet
Validated: 1
EndChar

StartChar: a
Encoding: 97 97 64
Width: 500
Flags: MW
LayerCount: 2
Fore
SplineSet
350 473.240234375 m 1
 350 490 l 1
 450 490 l 1
 450 300 l 1
 450 200 l 1
 450 10 l 1
 350 10 l 1
 350 26.759765625 l 1
 320.58984375 9.740234375 286.4296875 0 250 0 c 0
 213.5703125 0 179.41015625 9.740234375 150 26.759765625 c 0
 119.639648438 44.3203125 94.3203125 69.6396484375 76.759765625 100 c 0
 59.740234375 129.41015625 50 163.5703125 50 200 c 2
 50 300 l 2
 50 336.4296875 59.740234375 370.58984375 76.759765625 400 c 0
 94.3203125 430.360351562 119.639648438 455.6796875 150 473.240234375 c 0
 179.41015625 490.259765625 213.5703125 500 250 500 c 0
 286.4296875 500 320.58984375 490.259765625 350 473.240234375 c 1
250 100 m 0
 305.23046875 100 350 144.76953125 350 200 c 2
 350 300 l 2
 350 355.23046875 305.23046875 400 250 400 c 0
 194.76953125 400 150 355.23046875 150 300 c 2
 150 200 l 2
 150 144.76953125 194.76953125 100 250 100 c 0
EndSplineSet
Validated: 1
EndChar

StartChar: b
Encoding: 98 98 65
Width: 500
Flags: MW
LayerCount: 2
Fore
SplineSet
350 473.240234375 m 0
 380.360351562 455.6796875 405.6796875 430.360351562 423.240234375 400 c 0
 440.259765625 370.58984375 450 336.4296875 450 300 c 2
 450 200 l 2
 450 163.5703125 440.259765625 129.41015625 423.240234375 100 c 0
 405.6796875 69.6396484375 380.360351562 44.3203125 350 26.759765625 c 0
 320.58984375 9.740234375 286.4296875 0 250 0 c 0
 213.5703125 0 179.41015625 9.740234375 150 26.759765625 c 1
 150 10 l 1
 50 10 l 1
 50 200 l 1
 50 300 l 1
 50 790 l 1
 150 790 l 1
 150 473.240234375 l 1
 179.41015625 490.259765625 213.5703125 500 250 500 c 0
 286.4296875 500 320.58984375 490.259765625 350 473.240234375 c 0
350 200 m 2
 350 300 l 2
 350 355.23046875 305.23046875 400 250 400 c 0
 194.76953125 400 150 355.23046875 150 300 c 2
 150 200 l 2
 150 144.76953125 194.76953125 100 250 100 c 0
 305.23046875 100 350 144.76953125 350 200 c 2
EndSplineSet
Validated: 1
EndChar

StartChar: c
Encoding: 99 99 66
Width: 500
Flags: MW
LayerCount: 2
Fore
SplineSet
250 400 m 0
 194.76953125 400 150 355.23046875 150 300 c 2
 150 200 l 2
 150 144.76953125 194.76953125 100 250 100 c 0
 305.23046875 100 350 144.76953125 350 200 c 1
 450 200 l 1
 450 163.5703125 440.259765625 129.41015625 423.240234375 100 c 0
 405.6796875 69.6396484375 380.360351562 44.3203125 350 26.759765625 c 0
 320.58984375 9.740234375 286.4296875 0 250 0 c 0
 213.5703125 0 179.41015625 9.740234375 150 26.759765625 c 0
 119.639648438 44.3203125 94.3203125 69.6396484375 76.759765625 100 c 0
 59.740234375 129.41015625 50 163.5703125 50 200 c 2
 50 300 l 2
 50 336.4296875 59.740234375 370.58984375 76.759765625 400 c 0
 94.3203125 430.360351562 119.639648438 455.6796875 150 473.240234375 c 0
 179.41015625 490.259765625 213.5703125 500 250 500 c 0
 286.4296875 500 320.58984375 490.259765625 350 473.240234375 c 0
 380.360351562 455.6796875 405.6796875 430.360351562 423.240234375 400 c 0
 440.259765625 370.58984375 450 336.4296875 450 300 c 1
 350 300 l 1
 350 355.23046875 305.23046875 400 250 400 c 0
EndSplineSet
Validated: 1
EndChar

StartChar: d
Encoding: 100 100 67
Width: 500
Flags: MW
LayerCount: 2
Fore
SplineSet
350 473.240234375 m 1
 350 790 l 1
 450 790 l 1
 450 300 l 1
 450 200 l 1
 450 10 l 1
 350 10 l 1
 350 26.759765625 l 1
 320.58984375 9.740234375 286.4296875 0 250 0 c 0
 213.5703125 0 179.41015625 9.740234375 150 26.759765625 c 0
 119.639648438 44.3203125 94.3203125 69.6396484375 76.759765625 100 c 0
 59.740234375 129.41015625 50 163.5703125 50 200 c 2
 50 300 l 2
 50 336.4296875 59.740234375 370.58984375 76.759765625 400 c 0
 94.3203125 430.360351562 119.639648438 455.6796875 150 473.240234375 c 0
 179.41015625 490.259765625 213.5703125 500 250 500 c 0
 286.4296875 500 320.58984375 490.259765625 350 473.240234375 c 1
250 100 m 0
 305.23046875 100 350 144.76953125 350 200 c 2
 350 300 l 2
 350 355.23046875 305.23046875 400 250 400 c 0
 194.76953125 400 150 355.23046875 150 300 c 2
 150 200 l 2
 150 144.76953125 194.76953125 100 250 100 c 0
EndSplineSet
Validated: 1
EndChar

StartChar: e
Encoding: 101 101 68
Width: 500
Flags: MW
LayerCount: 2
Fore
SplineSet
150 26.759765625 m 0
 119.639648438 44.3203125 94.3203125 69.6396484375 76.759765625 100 c 0
 59.740234375 129.41015625 50 163.5703125 50 200 c 2
 50 300 l 2
 50 336.4296875 59.740234375 370.58984375 76.759765625 400 c 0
 94.3203125 430.360351562 119.639648438 455.6796875 150 473.240234375 c 0
 179.41015625 490.259765625 213.5703125 500 250 500 c 0
 286.4296875 500 320.58984375 490.259765625 350 473.240234375 c 0
 380.360351562 455.6796875 405.6796875 430.360351562 423.240234375 400 c 0
 440.259765625 370.58984375 450 336.4296875 450 300 c 2
 450 200 l 1
 439 200 l 1
 350 200 l 1
 150 200 l 1
 150 144.76953125 194.76953125 100 250 100 c 0
 287.01953125 100 319.330078125 120.110351562 336.620117188 150 c 1
 443.700195312 150 l 1
 439.129882812 132.259765625 432.190429688 115.469726562 423.240234375 100 c 0
 405.6796875 69.6396484375 380.360351562 44.3203125 350 26.759765625 c 0
 320.58984375 9.740234375 286.4296875 0 250 0 c 0
 213.5703125 0 179.41015625 9.740234375 150 26.759765625 c 0
250 400 m 0
 194.76953125 400 150 355.23046875 150 300 c 1
 350 300 l 1
 350 355.23046875 305.23046875 400 250 400 c 0
EndSplineSet
Validated: 1
EndChar

StartChar: f
Encoding: 102 102 69
Width: 500
Flags: MW
LayerCount: 2
Fore
SplineSet
300 675 m 2
 300 552.5 l 1
 300 490 l 1
 450 490 l 1
 450 390 l 1
 300 390 l 1
 300 10 l 1
 200 10 l 1
 200 390 l 1
 50 390 l 1
 50 490 l 1
 200 490 l 1
 200 675 l 2
 200 726.620117188 231.280273438 770.919921875 275.919921875 790 c 0
 290.990234375 796.440429688 307.580078125 800 325 800 c 0
 394.040039062 800 450 744.040039062 450 675 c 1
 350 675 l 1
 350 688.809570312 338.809570312 700 325 700 c 0
 311.190429688 700 300 688.809570312 300 675 c 2
EndSplineSet
Validated: 1
EndChar

StartChar: g
Encoding: 103 103 70
Width: 500
Flags: MW
LayerCount: 2
Fore
SplineSet
76.759765625 100 m 0
 67.8095703125 115.469726562 60.8701171875 132.259765625 56.3095703125 150 c 0
 52.1904296875 165.98046875 50 182.73046875 50 200 c 2
 50 300 l 2
 50 336.4296875 59.740234375 370.58984375 76.759765625 400 c 0
 94.3203125 430.360351562 119.639648438 455.6796875 150 473.240234375 c 0
 179.41015625 490.259765625 213.5703125 500 250 500 c 0
 286.4296875 500 320.58984375 490.259765625 350 473.240234375 c 1
 350 490 l 1
 450 490 l 1
 450 300 l 1
 450 200 l 1
 450 100 l 1
 450 0 l 2
 450 -36.4296875 440.259765625 -70.58984375 423.240234375 -100 c 0
 405.6796875 -130.360351562 380.360351562 -155.6796875 350 -173.240234375 c 0
 320.58984375 -190.259765625 286.4296875 -200 250 -200 c 0
 213.5703125 -200 179.41015625 -190.259765625 150 -173.240234375 c 0
 119.639648438 -155.6796875 94.3203125 -130.360351562 76.759765625 -100 c 0
 67.8095703125 -84.5302734375 60.8701171875 -67.740234375 56.3095703125 -50 c 1
 163.379882812 -50 l 1
 180.669921875 -79.8896484375 212.98046875 -100 250 -100 c 0
 305.23046875 -100 350 -55.23046875 350 0 c 2
 350 26.759765625 l 1
 320.610351562 9.75 286.469726562 0.009765625 250.059570312 0 c 2
 250 0 l 2
 213.5703125 0 179.41015625 9.740234375 150 26.759765625 c 0
 119.639648438 44.3203125 94.3203125 69.6396484375 76.759765625 100 c 0
150 300 m 2
 150 273.240234375 l 1
 150 200 l 2
 150 181.780273438 154.870117188 164.709960938 163.379882812 150 c 0
 180.669921875 120.110351562 212.98046875 100 250 100 c 0
 287.01953125 100 319.330078125 120.110351562 336.620117188 150 c 0
 345.129882812 164.709960938 350 181.780273438 350 200 c 2
 350 273.240234375 l 1
 350 300 l 2
 350 355.23046875 305.23046875 400 250 400 c 0
 194.76953125 400 150 355.23046875 150 300 c 2
EndSplineSet
Validated: 1
EndChar

StartChar: h
Encoding: 104 104 71
Width: 500
Flags: MW
LayerCount: 2
Fore
SplineSet
350 473.240234375 m 0
 409.780273438 438.66015625 450 374.030273438 450 300 c 2
 450 10 l 1
 350 10 l 1
 350 300 l 2
 350 355.23046875 305.23046875 400 250 400 c 0
 194.76953125 400 150 355.23046875 150 300 c 2
 150 10 l 1
 50 10 l 1
 50 300 l 1
 50 790 l 1
 150 790 l 1
 150 473.240234375 l 1
 179.41015625 490.259765625 213.5703125 500 250 500 c 0
 286.4296875 500 320.58984375 490.259765625 350 473.240234375 c 0
EndSplineSet
Validated: 1
EndChar

StartChar: i
Encoding: 105 105 72
Width: 210
Flags: MW
LayerCount: 2
Fore
SplineSet
55 0 m 1
 55 500 l 1
 155 500 l 1
 155 0 l 1
 55 0 l 1
50 627.5 m 0
 50 657.875976562 74.6240234375 682.5 105 682.5 c 0
 135.375976562 682.5 160 657.875976562 160 627.5 c 0
 160 597.124023438 135.375976562 572.5 105 572.5 c 0
 74.6240234375 572.5 50 597.124023438 50 627.5 c 0
EndSplineSet
Validated: 1
EndChar

StartChar: j
Encoding: 106 106 73
Width: 355
Flags: MW
LayerCount: 2
Fore
SplineSet
175 -100 m 0
 188.809570312 -100 200 -88.8095703125 200 -75 c 2
 200 47.5 l 1
 200 500 l 1
 300 500 l 1
 300 -75 l 2
 300 -126.620117188 268.719726562 -170.919921875 224.080078125 -190 c 0
 209.009765625 -196.440429688 192.419921875 -200 175 -200 c 0
 105.959960938 -200 50 -144.040039062 50 -75 c 1
 150 -75 l 1
 150 -88.8095703125 161.190429688 -100 175 -100 c 0
195 627.5 m 0
 195 657.875976562 219.624023438 682.5 250 682.5 c 0
 280.375976562 682.5 305 657.875976562 305 627.5 c 0
 305 597.124023438 280.375976562 572.5 250 572.5 c 0
 219.624023438 572.5 195 597.124023438 195 627.5 c 0
EndSplineSet
Validated: 1
EndChar

StartChar: k
Encoding: 107 107 74
Width: 500
Flags: MW
LayerCount: 2
Fore
SplineSet
340 490 m 1
 450 490 l 1
 260 250 l 1
 450 10 l 1
 339 10 l 1
 150 248.740234375 l 1
 150 10 l 1
 50 10 l 1
 50 790 l 1
 150 790 l 1
 150 250 l 1
 340 490 l 1
EndSplineSet
Validated: 1
EndChar

StartChar: l
Encoding: 108 108 75
Width: 200
Flags: MW
LayerCount: 2
Fore
SplineSet
50 10 m 1
 50 790 l 1
 150 790 l 1
 150 10 l 1
 50 10 l 1
EndSplineSet
Validated: 1
EndChar

StartChar: m
Encoding: 109 109 76
Width: 800
Flags: MW
LayerCount: 2
Fore
SplineSet
650 473.240234375 m 0
 709.780273438 438.66015625 750 374.030273438 750 300 c 2
 750 10 l 1
 650 10 l 1
 650 300 l 2
 650 355.23046875 605.23046875 400 550 400 c 0
 494.76953125 400 450 355.23046875 450 300 c 2
 450 10 l 1
 350 10 l 1
 350 300 l 2
 350 355.23046875 305.23046875 400 250 400 c 0
 194.76953125 400 150 355.23046875 150 300 c 2
 150 10 l 1
 50 10 l 1
 50 300 l 1
 50 490 l 1
 150 490 l 1
 150 473.240234375 l 1
 179.41015625 490.259765625 213.5703125 500 250 500 c 0
 286.4296875 500 320.58984375 490.259765625 350 473.240234375 c 0
 368.8203125 462.349609375 385.700195312 448.48046875 400 432.280273438 c 1
 414.299804688 448.48046875 431.1796875 462.349609375 450 473.240234375 c 0
 479.41015625 490.259765625 513.5703125 500 550 500 c 0
 586.4296875 500 620.58984375 490.259765625 650 473.240234375 c 0
EndSplineSet
Validated: 1
EndChar

StartChar: n
Encoding: 110 110 77
Width: 500
Flags: MW
LayerCount: 2
Fore
SplineSet
350 473.240234375 m 0
 409.780273438 438.66015625 450 374.030273438 450 300 c 2
 450 10 l 1
 350 10 l 1
 350 300 l 2
 350 355.23046875 305.23046875 400 250 400 c 0
 194.76953125 400 150 355.23046875 150 300 c 2
 150 10 l 1
 50 10 l 1
 50 300 l 1
 50 490 l 1
 150 490 l 1
 150 473.240234375 l 1
 179.41015625 490.259765625 213.5703125 500 250 500 c 0
 286.4296875 500 320.58984375 490.259765625 350 473.240234375 c 0
EndSplineSet
Validated: 1
EndChar

StartChar: o
Encoding: 111 111 78
Width: 500
Flags: MW
LayerCount: 2
Fore
SplineSet
76.759765625 99.98046875 m 0
 67.8095703125 115.450195312 60.8701171875 132.240234375 56.3095703125 149.98046875 c 0
 52.1904296875 165.959960938 50 182.709960938 50 199.98046875 c 2
 50 299.98046875 l 2
 50 336.41015625 59.740234375 370.5703125 76.759765625 399.98046875 c 0
 94.3203125 430.33984375 119.639648438 455.66015625 150 473.219726562 c 0
 179.41015625 490.240234375 213.5703125 499.98046875 250 499.98046875 c 0
 286.4296875 499.98046875 320.58984375 490.240234375 350 473.219726562 c 0
 380.360351562 455.66015625 405.6796875 430.33984375 423.240234375 399.98046875 c 0
 440.259765625 370.5703125 450 336.41015625 450 299.98046875 c 2
 450 199.98046875 l 2
 450 182.709960938 447.809570312 165.959960938 443.690429688 149.98046875 c 0
 439.129882812 132.240234375 432.190429688 115.450195312 423.240234375 99.98046875 c 0
 405.6796875 69.6201171875 380.360351562 44.2998046875 350 26.740234375 c 0
 320.610351562 9.73046875 286.469726562 -0.009765625 250.059570312 -0.01953125 c 2
 250 -0.01953125 l 2
 213.5703125 -0.01953125 179.41015625 9.7197265625 150 26.740234375 c 0
 119.639648438 44.2998046875 94.3203125 69.6201171875 76.759765625 99.98046875 c 0
150 299.98046875 m 2
 150 199.98046875 l 2
 150 181.759765625 154.870117188 164.690429688 163.379882812 149.98046875 c 0
 180.669921875 120.08984375 212.98046875 99.98046875 250 99.98046875 c 0
 287.01953125 99.98046875 319.330078125 120.08984375 336.620117188 149.98046875 c 0
 345.129882812 164.690429688 350 181.759765625 350 199.98046875 c 2
 350 299.98046875 l 2
 350 355.209960938 305.23046875 399.98046875 250 399.98046875 c 0
 194.76953125 399.98046875 150 355.209960938 150 299.98046875 c 2
EndSplineSet
Validated: 1
EndChar

StartChar: p
Encoding: 112 112 79
Width: 500
Flags: MW
LayerCount: 2
Fore
SplineSet
350 473.240234375 m 0
 380.360351562 455.6796875 405.6796875 430.360351562 423.240234375 400 c 0
 440.259765625 370.58984375 450 336.4296875 450 300 c 2
 450 200 l 2
 450 182.73046875 447.809570312 165.98046875 443.690429688 150 c 0
 439.129882812 132.259765625 432.190429688 115.469726562 423.240234375 100 c 0
 405.6796875 69.6396484375 380.360351562 44.3203125 350 26.759765625 c 0
 320.610351562 9.75 286.469726562 0.009765625 250.059570312 0 c 2
 250 0 l 2
 213.5703125 0 179.41015625 9.740234375 150 26.759765625 c 1
 150 -200 l 1
 50 -200 l 1
 50 200 l 1
 50 300 l 1
 50 490 l 1
 150 490 l 1
 150 473.240234375 l 1
 179.41015625 490.259765625 213.5703125 500 250 500 c 0
 286.4296875 500 320.58984375 490.259765625 350 473.240234375 c 0
350 200 m 2
 350 300 l 2
 350 355.23046875 305.23046875 400 250 400 c 0
 194.76953125 400 150 355.23046875 150 300 c 2
 150 200 l 2
 150 181.780273438 154.870117188 164.709960938 163.379882812 150 c 0
 180.669921875 120.110351562 212.98046875 100 250 100 c 0
 287.01953125 100 319.330078125 120.110351562 336.620117188 150 c 0
 345.129882812 164.709960938 350 181.780273438 350 200 c 2
EndSplineSet
Validated: 1
EndChar

StartChar: q
Encoding: 113 113 80
Width: 500
Flags: MW
LayerCount: 2
Fore
SplineSet
350 473.240234375 m 1
 350 490 l 1
 450 490 l 1
 450 300 l 1
 450 200 l 1
 450 -200 l 1
 350 -200 l 1
 350 26.759765625 l 1
 320.58984375 9.740234375 286.4296875 0 250 0 c 2
 249.940429688 0 l 2
 213.530273438 0.009765625 179.389648438 9.75 150 26.759765625 c 0
 119.639648438 44.3203125 94.3203125 69.6396484375 76.759765625 100 c 0
 67.8095703125 115.469726562 60.8701171875 132.259765625 56.3095703125 150 c 0
 52.1904296875 165.98046875 50 182.73046875 50 200 c 2
 50 300 l 2
 50 336.4296875 59.740234375 370.58984375 76.759765625 400 c 0
 94.3203125 430.360351562 119.639648438 455.6796875 150 473.240234375 c 0
 179.41015625 490.259765625 213.5703125 500 250 500 c 0
 286.4296875 500 320.58984375 490.259765625 350 473.240234375 c 1
336.620117188 150 m 0
 345.129882812 164.709960938 350 181.780273438 350 200 c 2
 350 300 l 2
 350 355.23046875 305.23046875 400 250 400 c 0
 194.76953125 400 150 355.23046875 150 300 c 2
 150 200 l 2
 150 181.780273438 154.870117188 164.709960938 163.379882812 150 c 0
 180.669921875 120.110351562 212.98046875 100 250 100 c 0
 287.01953125 100 319.330078125 120.110351562 336.620117188 150 c 0
EndSplineSet
Validated: 1
EndChar

StartChar: r
Encoding: 114 114 81
Width: 500
Flags: MW
LayerCount: 2
Fore
SplineSet
250 500 m 0
 324.030273438 500 388.66015625 459.780273438 423.240234375 400 c 0
 440.259765625 370.58984375 450 336.4296875 450 300 c 1
 350 300 l 1
 350 355.23046875 305.23046875 400 250 400 c 0
 194.76953125 400 150 355.23046875 150 300 c 2
 150 10 l 1
 50 10 l 1
 50 490 l 1
 150 490 l 1
 150 473.240234375 l 1
 179.41015625 490.259765625 213.5703125 500 250 500 c 0
EndSplineSet
Validated: 1
EndChar

StartChar: s
Encoding: 115 115 82
Width: 500
Flags: MW
LayerCount: 2
Fore
SplineSet
290.709960938 296.879882812 m 0
 337.459960938 290.849609375 384.08984375 269.139648438 415.870117188 233.83984375 c 0
 436.620117188 210.790039062 450 181.3203125 450 150 c 0
 450 67.16015625 360.459960938 0 250 0 c 0
 139.540039062 0 50 67.16015625 50 150 c 1
 150 150 l 1
 150 122.389648438 194.76953125 100 250 100 c 0
 273.16015625 100 297.219726562 103.599609375 318.330078125 113.490234375 c 0
 328.1796875 118.099609375 338.129882812 124.309570312 344.509765625 133.330078125 c 0
 354.610351562 147.620117188 348.599609375 164.1796875 336.509765625 175 c 0
 325 185.309570312 310.23046875 191.41015625 295.16015625 194.799804688 c 0
 273.530273438 199.669921875 251.120117188 199.26953125 229.040039062 201.259765625 c 0
 183.240234375 205.379882812 138.849609375 221.459960938 104.860351562 253.200195312 c 0
 76.8798828125 279.3203125 60 313.110351562 60 350 c 0
 60 432.83984375 145.0703125 500 250 500 c 0
 354.9296875 500 440 432.83984375 440 350 c 1
 340 350 l 1
 340 377.610351562 299.709960938 400 250 400 c 0
 200.290039062 400 160 377.610351562 160 350 c 0
 160 330.240234375 177.080078125 317.58984375 193.669921875 310.629882812 c 0
 216.120117188 301.219726562 240.549804688 300.469726562 264.51953125 299.08984375 c 0
 273.259765625 298.58984375 282.01953125 298 290.709960938 296.879882812 c 0
EndSplineSet
Validated: 33
EndChar

StartChar: t
Encoding: 116 116 83
Width: 500
Flags: MW
LayerCount: 2
Fore
SplineSet
300 790 m 1
 300 490 l 1
 450 490 l 1
 450 390 l 1
 300 390 l 1
 300 10 l 1
 200 10 l 1
 200 390 l 1
 50 390 l 1
 50 490 l 1
 200 490 l 1
 200 790 l 1
 300 790 l 1
EndSplineSet
Validated: 1
EndChar

StartChar: u
Encoding: 117 117 84
Width: 500
Flags: MW
LayerCount: 2
Fore
SplineSet
350 200 m 2
 350 490 l 1
 450 490 l 1
 450 200 l 2
 450 125.969726562 409.780273438 61.33984375 350 26.759765625 c 0
 320.58984375 9.740234375 286.4296875 0 250 0 c 0
 213.5703125 0 179.41015625 9.740234375 150 26.759765625 c 0
 90.2197265625 61.33984375 50 125.969726562 50 200 c 2
 50 490 l 1
 150 490 l 1
 150 200 l 2
 150 144.76953125 194.76953125 100 250 100 c 0
 305.23046875 100 350 144.76953125 350 200 c 2
EndSplineSet
Validated: 1
EndChar

StartChar: v
Encoding: 118 118 85
Width: 500
Flags: MW
LayerCount: 2
Fore
SplineSet
250 170 m 1
 350 490 l 1
 450 490 l 1
 300 10 l 1
 200 10 l 1
 50 490 l 1
 150 490 l 1
 250 170 l 1
EndSplineSet
Validated: 1
EndChar

StartChar: w
Encoding: 119 119 86
Width: 800
Flags: MW
LayerCount: 2
Fore
SplineSet
650 200 m 2
 650 490 l 1
 750 490 l 1
 750 200 l 2
 750 125.969726562 709.780273438 61.33984375 650 26.759765625 c 0
 620.58984375 9.740234375 586.4296875 0 550 0 c 0
 513.5703125 0 479.41015625 9.740234375 450 26.759765625 c 0
 431.1796875 37.650390625 414.299804688 51.51953125 400 67.7197265625 c 1
 385.700195312 51.51953125 368.8203125 37.650390625 350 26.759765625 c 0
 320.58984375 9.740234375 286.4296875 0 250 0 c 0
 213.5703125 0 179.41015625 9.740234375 150 26.759765625 c 0
 90.2197265625 61.33984375 50 125.969726562 50 200 c 2
 50 490 l 1
 150 490 l 1
 150 200 l 2
 150 144.76953125 194.76953125 100 250 100 c 0
 305.23046875 100 350 144.76953125 350 200 c 2
 350 490 l 1
 450 490 l 1
 450 200 l 2
 450 144.76953125 494.76953125 100 550 100 c 0
 605.23046875 100 650 144.76953125 650 200 c 2
EndSplineSet
Validated: 1
EndChar

StartChar: x
Encoding: 120 120 87
Width: 500
Flags: MW
LayerCount: 2
Fore
SplineSet
340 490 m 1
 450 490 l 1
 305 250 l 1
 450 10 l 1
 340 10 l 1
 250 158.969726562 l 1
 160 10 l 1
 50 10 l 1
 195 250 l 1
 50 490 l 1
 160 490 l 1
 250 341.030273438 l 1
 340 490 l 1
EndSplineSet
Validated: 1
EndChar

StartChar: y
Encoding: 121 121 88
Width: 500
Flags: MW
LayerCount: 2
Fore
SplineSet
350 290 m 1
 350 490 l 1
 450 490 l 1
 450 290 l 1
 450 200 l 1
 450 0 l 2
 450 -74.0302734375 409.780273438 -138.66015625 350 -173.240234375 c 0
 320.58984375 -190.259765625 286.4296875 -200 250 -200 c 0
 213.5703125 -200 179.41015625 -190.259765625 150 -173.240234375 c 0
 104.16015625 -146.719726562 69.8203125 -102.540039062 56.2998046875 -50 c 1
 163.379882812 -50 l 1
 180.669921875 -79.8896484375 212.98046875 -100 250 -100 c 0
 305.23046875 -100 350 -55.23046875 350 0 c 2
 350 26.759765625 l 1
 320.58984375 9.740234375 286.4296875 0 250 0 c 0
 213.5703125 0 179.41015625 9.740234375 150 26.759765625 c 0
 90.2197265625 61.33984375 50 125.969726562 50 200 c 2
 50 490 l 1
 150 490 l 1
 150 200 l 2
 150 144.76953125 194.76953125 100 250 100 c 0
 305.23046875 100 350 144.76953125 350 200 c 2
 350 290 l 1
EndSplineSet
Validated: 1
EndChar

StartChar: z
Encoding: 122 122 89
Width: 500
Flags: MW
LayerCount: 2
Fore
SplineSet
50 390 m 1
 50 490 l 1
 450 490 l 1
 450 390 l 1
 170 110 l 1
 450 110 l 1
 450 10 l 1
 50 10 l 1
 50 110 l 1
 330 390 l 1
 50 390 l 1
EndSplineSet
Validated: 1
EndChar

StartChar: braceleft
Encoding: 123 123 90
Width: 400
Flags: MW
LayerCount: 2
Fore
SplineSet
176.759765625 800 m 0
 211.33984375 859.780273438 275.969726562 900 350 900 c 1
 350 800 l 1
 294.76953125 800 250 755.23046875 250 700 c 2
 250 450 l 1
 250 350 l 1
 250 100 l 2
 250 44.76953125 294.76953125 0 350 0 c 1
 350 -100 l 1
 313.5703125 -100 279.41015625 -90.259765625 250 -73.240234375 c 0
 219.639648438 -55.6796875 194.3203125 -30.3603515625 176.759765625 0 c 0
 159.740234375 29.41015625 150 63.5703125 150 100 c 2
 150 350 l 1
 50 350 l 1
 50 450 l 1
 150 450 l 1
 150 700 l 2
 150 736.4296875 159.740234375 770.58984375 176.759765625 800 c 0
EndSplineSet
Validated: 1
EndChar

StartChar: bar
Encoding: 124 124 91
Width: 200
Flags: MW
LayerCount: 2
Fore
SplineSet
50 -90 m 1
 50 790 l 1
 150 790 l 1
 150 -90 l 1
 50 -90 l 1
EndSplineSet
Validated: 1
EndChar

StartChar: braceright
Encoding: 125 125 92
Width: 400
Flags: MW
LayerCount: 2
Fore
SplineSet
250 700 m 2
 250 450 l 1
 350 450 l 1
 350 350 l 1
 250 350 l 1
 250 100 l 2
 250 63.5703125 240.259765625 29.41015625 223.240234375 0 c 0
 205.6796875 -30.3603515625 180.360351562 -55.6796875 150 -73.240234375 c 0
 120.58984375 -90.259765625 86.4296875 -100 50 -100 c 1
 50 0 l 1
 105.23046875 0 150 44.76953125 150 100 c 2
 150 350 l 1
 150 450 l 1
 150 700 l 2
 150 755.23046875 105.23046875 800 50 800 c 1
 50 900 l 1
 124.030273438 900 188.66015625 859.780273438 223.240234375 800 c 0
 240.259765625 770.58984375 250 736.4296875 250 700 c 2
EndSplineSet
Validated: 1
EndChar

StartChar: asciitilde
Encoding: 126 126 93
Width: 500
Flags: MW
LayerCount: 2
Fore
SplineSet
355.290039062 408.639648438 m 1
 354.98046875 407.950195312 354.849609375 407.559570312 354.849609375 407.549804688 c 2
 450 372.440429688 l 1
 448.610351562 368.790039062 440.759765625 349.629882812 422.8203125 330.799804688 c 0
 397.389648438 304.110351562 363.98046875 290 326.209960938 290 c 0
 285.75 290 247.440429688 307.73046875 223.719726562 337.4296875 c 0
 216.549804688 346.419921875 211.139648438 355.6796875 206.799804688 363.559570312 c 0
 206.129882812 364.790039062 205.459960938 366.009765625 204.790039062 367.240234375 c 0
 202.330078125 371.759765625 200 376.030273438 197.879882812 379.08984375 c 0
 197.73046875 379.309570312 197.5703125 379.51953125 197.419921875 379.73046875 c 0
 192.959960938 385.780273438 183.240234375 390.009765625 173.790039062 390.009765625 c 0
 165.040039062 390.009765625 158.5703125 387.639648438 152.83984375 382.3203125 c 0
 147.349609375 377.23046875 144.75 371.4296875 144.719726562 371.370117188 c 1
 145.01953125 372.059570312 145.150390625 372.450195312 145.150390625 372.450195312 c 1
 50 407.559570312 l 1
 51.3896484375 411.209960938 59.240234375 430.370117188 77.1796875 449.200195312 c 0
 102.610351562 475.889648438 136.01953125 490 173.790039062 490 c 0
 215.669921875 490 256.240234375 470.23046875 279.700195312 438.400390625 c 0
 280.4296875 437.41015625 281.150390625 436.400390625 281.8203125 435.440429688 c 0
 286.98046875 428.009765625 290.889648438 420.830078125 294.33984375 414.5 c 0
 294.9296875 413.41015625 295.530273438 412.3203125 296.129882812 411.23046875 c 0
 298.559570312 406.8203125 301.150390625 402.3203125 303.629882812 399.209960938 c 0
 308.030273438 393.700195312 317.110351562 390 326.219726562 390 c 0
 334.969726562 390 341.440429688 392.370117188 347.169921875 397.690429688 c 0
 352.66015625 402.780273438 355.259765625 408.580078125 355.290039062 408.639648438 c 1
EndSplineSet
Validated: 1
EndChar

StartChar: exclamdown
Encoding: 161 161 94
Width: 210
Flags: MW
LayerCount: 2
Fore
SplineSet
55 -200 m 1
 55 400 l 1
 155 400 l 1
 155 -200 l 1
 55 -200 l 1
50 545 m 0
 50 575.375976562 74.6240234375 600 105 600 c 0
 135.375976562 600 160 575.375976562 160 545 c 0
 160 514.624023438 135.375976562 490 105 490 c 0
 74.6240234375 490 50 514.624023438 50 545 c 0
EndSplineSet
Validated: 1
EndChar

StartChar: cent
Encoding: 162 162 95
Width: 500
Flags: MW
LayerCount: 2
Fore
SplineSet
350 300 m 1
 350 337.009765625 329.889648438 369.330078125 300 386.620117188 c 1
 300 113.379882812 l 1
 329.889648438 130.669921875 350 162.990234375 350 200 c 1
 450 200 l 1
 450 163.5703125 440.259765625 129.41015625 423.240234375 100 c 0
 405.6796875 69.6396484375 380.360351562 44.3203125 350 26.759765625 c 0
 334.530273438 17.7998046875 317.740234375 10.8701171875 300 6.2998046875 c 1
 300 -90 l 1
 200 -90 l 1
 200 6.2998046875 l 1
 182.259765625 10.8701171875 165.469726562 17.8095703125 150 26.759765625 c 0
 119.639648438 44.3203125 94.3203125 69.6396484375 76.759765625 100 c 0
 59.740234375 129.41015625 50 163.5703125 50 200 c 2
 50 300 l 2
 50 336.4296875 59.740234375 370.58984375 76.759765625 400 c 0
 94.3203125 430.360351562 119.639648438 455.6796875 150 473.240234375 c 0
 165.469726562 482.200195312 182.259765625 489.129882812 200 493.700195312 c 1
 200 590 l 1
 300 590 l 1
 300 493.700195312 l 1
 317.740234375 489.129882812 334.530273438 482.190429688 350 473.240234375 c 0
 380.360351562 455.6796875 405.6796875 430.360351562 423.240234375 400 c 0
 440.259765625 370.58984375 450 336.4296875 450 300 c 1
 350 300 l 1
200 113.379882812 m 1
 200 386.620117188 l 1
 170.110351562 369.330078125 150 337.009765625 150 300 c 2
 150 200 l 2
 150 162.98046875 170.110351562 130.669921875 200 113.379882812 c 1
EndSplineSet
Validated: 1
EndChar

StartChar: sterling
Encoding: 163 163 96
Width: 500
Flags: MW
LayerCount: 2
Fore
SplineSet
300 700 m 0
 272.389648438 700 250 677.610351562 250 650 c 2
 250 490 l 1
 350 490 l 1
 350 390 l 1
 250 390 l 1
 250 110 l 1
 450 110 l 1
 450 10 l 1
 50 10 l 1
 50 110 l 1
 150 110 l 1
 150 390 l 1
 50 390 l 1
 50 490 l 1
 150 490 l 1
 150 650 l 2
 150 713.8203125 189.860351562 768.33984375 246.049804688 790 c 0
 262.790039062 796.459960938 280.98046875 800 300 800 c 0
 382.83984375 800 450 732.83984375 450 650 c 1
 350 650 l 1
 350 677.610351562 327.610351562 700 300 700 c 0
EndSplineSet
Validated: 1
EndChar

StartChar: currency
Encoding: 164 164 97
Width: 500
Flags: MW
LayerCount: 2
Fore
SplineSet
120.799804688 100.51953125 m 1
 50 171.23046875 l 1
 114.559570312 235.709960938 l 1
 105.23046875 255.259765625 100 277.150390625 100 300.259765625 c 0
 100 323.370117188 105.23046875 345.259765625 114.559570312 364.809570312 c 1
 50 429.290039062 l 1
 120.799804688 500 l 1
 185.26953125 435.610351562 l 1
 204.870117188 445 226.8203125 450.259765625 250 450.259765625 c 0
 273.1796875 450.259765625 295.129882812 445 314.73046875 435.610351562 c 1
 379.200195312 500 l 1
 450 429.290039062 l 1
 385.440429688 364.809570312 l 1
 394.76953125 345.259765625 400 323.370117188 400 300.259765625 c 0
 400 277.150390625 394.76953125 255.259765625 385.440429688 235.709960938 c 1
 450 171.23046875 l 1
 379.200195312 100.51953125 l 1
 314.73046875 164.91015625 l 1
 295.129882812 155.51953125 273.1796875 150.259765625 250 150.259765625 c 0
 226.8203125 150.259765625 204.870117188 155.51953125 185.26953125 164.91015625 c 1
 120.799804688 100.51953125 l 1
198.469726562 319.5 m 0
 196.219726562 313.509765625 195 307.030273438 195 300.259765625 c 0
 195 293.490234375 196.219726562 287.009765625 198.469726562 281.01953125 c 0
 204.030273438 266.099609375 215.900390625 254.25 230.830078125 248.700195312 c 0
 236.799804688 246.469726562 243.259765625 245.259765625 250 245.259765625 c 0
 256.740234375 245.259765625 263.200195312 246.469726562 269.169921875 248.700195312 c 0
 284.099609375 254.25 295.969726562 266.099609375 301.530273438 281.01953125 c 0
 303.780273438 287.009765625 305 293.490234375 305 300.259765625 c 0
 305 307.030273438 303.780273438 313.509765625 301.530273438 319.5 c 0
 295.969726562 334.419921875 284.099609375 346.26953125 269.169921875 351.8203125 c 0
 263.200195312 354.049804688 256.740234375 355.259765625 250 355.259765625 c 0
 243.259765625 355.259765625 236.799804688 354.049804688 230.830078125 351.8203125 c 0
 215.900390625 346.26953125 204.030273438 334.419921875 198.469726562 319.5 c 0
EndSplineSet
Validated: 1
EndChar

StartChar: yen
Encoding: 165 165 98
Width: 500
Flags: MW
LayerCount: 2
Fore
SplineSet
350.16015625 790 m 1
 450.16015625 790 l 1
 347.780273438 489.6796875 l 1
 449.83984375 489.6796875 l 1
 449.83984375 389.6796875 l 1
 313.690429688 389.6796875 l 1
 300.16015625 350 l 1
 300.16015625 300 l 1
 450.16015625 300 l 1
 450.16015625 200 l 1
 300.16015625 200 l 1
 300.16015625 10 l 1
 200.16015625 10 l 1
 200.16015625 200 l 1
 50.16015625 200 l 1
 50.16015625 300 l 1
 200.16015625 300 l 1
 200.16015625 350 l 1
 186.629882812 389.6796875 l 1
 49.83984375 389.6796875 l 1
 49.83984375 489.6796875 l 1
 152.540039062 489.6796875 l 1
 50.16015625 790 l 1
 150.16015625 790 l 1
 200.16015625 643.330078125 l 1
 250.16015625 496.669921875 l 1
 300.16015625 643.330078125 l 1
 350.16015625 790 l 1
EndSplineSet
Validated: 524289
EndChar

StartChar: brokenbar
Encoding: 166 166 99
Width: 200
Flags: MW
LayerCount: 2
Fore
SplineSet
50 400 m 1
 50 790 l 1
 150 790 l 1
 150 400 l 1
 50 400 l 1
50 -190 m 1
 50 200 l 1
 150 200 l 1
 150 -190 l 1
 50 -190 l 1
EndSplineSet
Validated: 1
EndChar

StartChar: section
Encoding: 167 167 100
Width: 500
Flags: MW
LayerCount: 2
Fore
SplineSet
250 700 m 0
 194.76953125 700 150 655.23046875 150 600 c 0
 150 544.76953125 194.76953125 500 250 500 c 0
 286.4296875 500 320.58984375 490.259765625 350 473.240234375 c 0
 361.540039062 466.5703125 372.360351562 458.76953125 382.290039062 450 c 0
 398.490234375 435.700195312 412.360351562 418.8203125 423.240234375 400 c 0
 440.259765625 370.58984375 450 336.4296875 450 300 c 0
 450 263.5703125 440.259765625 229.41015625 423.240234375 200 c 0
 412.360351562 181.1796875 398.490234375 164.299804688 382.290039062 150 c 1
 398.490234375 135.700195312 412.360351562 118.8203125 423.240234375 100 c 0
 440.259765625 70.58984375 450 36.4296875 450 0 c 0
 450 -36.4296875 440.259765625 -70.58984375 423.240234375 -100 c 0
 405.6796875 -130.360351562 380.360351562 -155.6796875 350 -173.240234375 c 0
 320.58984375 -190.259765625 286.4296875 -200 250 -200 c 0
 213.5703125 -200 179.41015625 -190.259765625 150 -173.240234375 c 0
 119.639648438 -155.6796875 94.3203125 -130.360351562 76.759765625 -100 c 0
 59.740234375 -70.58984375 50 -36.4296875 50 0 c 1
 150 0 l 1
 150 -55.23046875 194.76953125 -100 250 -100 c 0
 305.23046875 -100 350 -55.23046875 350 0 c 0
 350 55.23046875 305.23046875 100 250 100 c 0
 213.5703125 100 179.41015625 109.740234375 150 126.759765625 c 0
 138.459960938 133.4296875 127.639648438 141.23046875 117.709960938 150 c 0
 101.509765625 164.299804688 87.6396484375 181.1796875 76.759765625 200 c 0
 59.740234375 229.41015625 50 263.5703125 50 300 c 0
 50 336.4296875 59.740234375 370.58984375 76.759765625 400 c 0
 87.6396484375 418.8203125 101.509765625 435.700195312 117.709960938 450 c 1
 101.509765625 464.299804688 87.6396484375 481.1796875 76.759765625 500 c 0
 59.740234375 529.41015625 50 563.5703125 50 600 c 0
 50 636.4296875 59.740234375 670.58984375 76.759765625 700 c 0
 94.3203125 730.360351562 119.639648438 755.6796875 150 773.240234375 c 0
 179.41015625 790.259765625 213.5703125 800 250 800 c 0
 286.4296875 800 320.58984375 790.259765625 350 773.240234375 c 0
 380.360351562 755.6796875 405.6796875 730.360351562 423.240234375 700 c 0
 440.259765625 670.58984375 450 636.4296875 450 600 c 1
 350 600 l 1
 350 655.23046875 305.23046875 700 250 700 c 0
250 400 m 0
 194.76953125 400 150 355.23046875 150 300 c 0
 150 244.76953125 194.76953125 200 250 200 c 0
 305.23046875 200 350 244.76953125 350 300 c 0
 350 355.23046875 305.23046875 400 250 400 c 0
EndSplineSet
Validated: 1
EndChar

StartChar: dieresis
Encoding: 168 168 101
Width: 370
Flags: MW
LayerCount: 2
Fore
SplineSet
50 745 m 0
 50 775.375976562 74.625 800 105 800 c 0
 135.375976562 800 160 775.375976562 160 745 c 0
 160 714.624023438 135.375976562 690 105 690 c 0
 74.625 690 50 714.624023438 50 745 c 0
210 745 m 0
 210 775.375976562 234.625 800 265 800 c 0
 295.375976562 800 320 775.375976562 320 745 c 0
 320 714.624023438 295.375976562 690 265 690 c 0
 234.625 690 210 714.624023438 210 745 c 0
EndSplineSet
Validated: 1
EndChar

StartChar: copyright
Encoding: 169 169 102
Width: 725
Flags: MW
LayerCount: 2
Fore
SplineSet
362.5 750 m 0
 445.969726562 750 524.450195312 717.5 583.469726562 658.469726562 c 0
 642.5 599.450195312 675 520.969726562 675 437.5 c 2
 675 362.5 l 2
 675 279.030273438 642.5 200.549804688 583.469726562 141.530273438 c 0
 524.450195312 82.5 445.969726562 50 362.5 50 c 0
 279.030273438 50 200.549804688 82.5 141.530273438 141.530273438 c 0
 82.5 200.549804688 50 279.030273438 50 362.5 c 2
 50 437.5 l 2
 50 520.969726562 82.5 599.450195312 141.530273438 658.469726562 c 0
 200.549804688 717.5 279.030273438 750 362.5 750 c 0
575 362.5 m 2
 575 437.5 l 2
 575 554.669921875 479.669921875 650 362.5 650 c 0
 245.330078125 650 150 554.669921875 150 437.5 c 2
 150 362.5 l 2
 150 245.330078125 245.330078125 150 362.5 150 c 0
 479.669921875 150 575 245.330078125 575 362.5 c 2
443.759765625 578.25 m 0
 468.419921875 563.990234375 488.990234375 543.419921875 503.25 518.759765625 c 0
 517.48046875 494.169921875 525 466.0703125 525 437.5 c 2
 525 425 l 1
 425 425 l 1
 425 437.5 l 2
 425 471.959960938 396.959960938 500 362.5 500 c 0
 328.040039062 500 300 471.959960938 300 437.5 c 2
 300 362.5 l 2
 300 328.040039062 328.040039062 300 362.5 300 c 0
 396.959960938 300 425 328.040039062 425 362.5 c 2
 425 375 l 1
 525 375 l 1
 525 362.5 l 2
 525 333.9296875 517.48046875 305.830078125 503.25 281.240234375 c 0
 488.990234375 256.580078125 468.419921875 236.009765625 443.759765625 221.75 c 0
 419.169921875 207.51953125 391.0703125 200 362.5 200 c 0
 333.9296875 200 305.830078125 207.51953125 281.240234375 221.75 c 0
 256.580078125 236.009765625 236.009765625 256.580078125 221.75 281.240234375 c 0
 207.51953125 305.830078125 200 333.9296875 200 362.5 c 2
 200 437.5 l 2
 200 466.0703125 207.51953125 494.169921875 221.75 518.759765625 c 0
 236.009765625 543.419921875 256.580078125 563.990234375 281.240234375 578.25 c 0
 305.830078125 592.48046875 333.9296875 600 362.5 600 c 0
 391.0703125 600 419.169921875 592.48046875 443.759765625 578.25 c 0
EndSplineSet
Validated: 1
EndChar

StartChar: ordfeminine
Encoding: 170 170 103
Width: 300
Flags: MW
LayerCount: 2
Fore
SplineSet
200 795 m 1
 250 795 l 1
 250 700 l 1
 250 650 l 1
 250 555 l 1
 200 555 l 1
 200 563.379882812 l 1
 185.290039062 554.870117188 168.209960938 550 150 550 c 0
 131.790039062 550 114.709960938 554.870117188 100 563.379882812 c 0
 84.8203125 572.16015625 72.16015625 584.8203125 63.3798828125 600 c 0
 54.8701171875 614.709960938 50 631.790039062 50 650 c 2
 50 700 l 2
 50 718.219726562 54.8701171875 735.299804688 63.3798828125 750 c 0
 72.16015625 765.1796875 84.8203125 777.83984375 100 786.620117188 c 0
 114.709960938 795.129882812 131.790039062 800 150 800 c 0
 168.209960938 800 185.290039062 795.129882812 200 786.620117188 c 1
 200 795 l 1
200 650 m 2
 200 700 l 2
 200 727.620117188 177.620117188 750 150 750 c 0
 122.379882812 750 100 727.620117188 100 700 c 2
 100 650 l 2
 100 622.389648438 122.379882812 600 150 600 c 0
 177.620117188 600 200 622.389648438 200 650 c 2
EndSplineSet
Validated: 1
EndChar

StartChar: guillemotleft
Encoding: 171 171 104
Width: 500
Flags: MW
LayerCount: 2
Fore
SplineSet
250 190 m 1
 150 190 l 1
 50 340 l 1
 150 490 l 1
 250 490 l 1
 150 340 l 1
 250 190 l 1
350 490 m 1
 450 490 l 1
 350 340 l 1
 450 190 l 1
 350 190 l 1
 250 340 l 1
 350 490 l 1
EndSplineSet
Validated: 1
EndChar

StartChar: logicalnot
Encoding: 172 172 105
Width: 400
Flags: MW
LayerCount: 2
Fore
SplineSet
350 190 m 1
 250 190 l 1
 250 290 l 1
 50 290 l 1
 50 390 l 1
 250 390 l 1
 350 390 l 1
 350 290 l 1
 350 190 l 1
EndSplineSet
Validated: 1
EndChar

StartChar: uni00AD
Encoding: 173 173 106
Width: 400
Flags: MW
LayerCount: 2
Fore
SplineSet
50 290 m 1
 50 390 l 1
 350 390 l 1
 350 290 l 1
 50 290 l 1
EndSplineSet
Validated: 1
EndChar

StartChar: registered
Encoding: 174 174 107
Width: 719
Flags: MW
LayerCount: 2
Fore
SplineSet
359.5 809.5 m 0
 442.169921875 809.5 519.889648438 777.309570312 578.349609375 718.849609375 c 0
 636.809570312 660.389648438 669 582.669921875 669 500 c 0
 669 417.330078125 636.809570312 339.610351562 578.349609375 281.150390625 c 0
 519.889648438 222.690429688 442.169921875 190.5 359.5 190.5 c 0
 276.830078125 190.5 199.110351562 222.690429688 140.650390625 281.150390625 c 0
 82.1904296875 339.610351562 50 417.330078125 50 500 c 0
 50 582.669921875 82.1904296875 660.389648438 140.650390625 718.849609375 c 0
 199.110351562 777.309570312 276.830078125 809.5 359.5 809.5 c 0
359.5 260.349609375 m 0
 491.639648438 260.349609375 599.150390625 367.860351562 599.150390625 500 c 0
 599.150390625 632.139648438 491.639648438 739.650390625 359.5 739.650390625 c 0
 227.360351562 739.650390625 119.849609375 632.139648438 119.849609375 500 c 0
 119.849609375 367.860351562 227.360351562 260.349609375 359.5 260.349609375 c 0
470.700195312 596.610351562 m 0
 470.700195312 577.059570312 465.549804688 557.830078125 455.809570312 541 c 0
 451.490234375 533.530273438 446.330078125 526.610351562 440.419921875 520.33984375 c 1
 446.330078125 514.0703125 451.490234375 507.150390625 455.809570312 499.669921875 c 0
 460.6796875 491.259765625 464.400390625 482.25 466.91015625 472.889648438 c 0
 469.41015625 463.540039062 470.700195312 453.83984375 470.700195312 444.0703125 c 2
 470.700195312 292.200195312 l 1
 400.849609375 292.200195312 l 1
 400.849609375 444.0703125 l 2
 400.849609375 466.870117188 382.299804688 485.419921875 359.5 485.419921875 c 2
 318.150390625 485.419921875 l 1
 318.150390625 292.200195312 l 1
 248.299804688 292.200195312 l 1
 248.299804688 707.799804688 l 1
 359.5 707.799804688 l 2
 379.049804688 707.799804688 398.280273438 702.66015625 415.110351562 692.919921875 c 0
 431.98046875 683.16015625 446.049804688 669.08984375 455.809570312 652.209960938 c 0
 465.549804688 635.389648438 470.700195312 616.16015625 470.700195312 596.610351562 c 0
359.5 555.259765625 m 2
 382.299804688 555.259765625 400.849609375 573.809570312 400.849609375 596.610351562 c 0
 400.849609375 619.41015625 382.299804688 637.959960938 359.5 637.959960938 c 2
 318.150390625 637.959960938 l 1
 318.150390625 555.259765625 l 1
 359.5 555.259765625 l 2
EndSplineSet
Validated: 1
EndChar

StartChar: macron
Encoding: 175 175 108
Width: 400
Flags: MW
LayerCount: 2
Fore
SplineSet
50 690 m 1
 50 790 l 1
 350 790 l 1
 350 690 l 1
 50 690 l 1
EndSplineSet
Validated: 1
EndChar

StartChar: degree
Encoding: 176 176 109
Width: 300
Flags: MW
LayerCount: 2
Fore
SplineSet
150 800 m 0
 205.23046875 800 250 755.23046875 250 700 c 0
 250 644.76953125 205.23046875 600 150 600 c 0
 94.76953125 600 50 644.76953125 50 700 c 0
 50 755.23046875 94.76953125 800 150 800 c 0
150 650 m 0
 177.610351562 650 200 672.389648438 200 700 c 0
 200 727.610351562 177.610351562 750 150 750 c 0
 122.389648438 750 100 727.610351562 100 700 c 0
 100 672.389648438 122.389648438 650 150 650 c 0
EndSplineSet
Validated: 1
EndChar

StartChar: plusminus
Encoding: 177 177 110
Width: 500
Flags: MW
LayerCount: 2
Fore
SplineSet
50 10 m 1
 50 110 l 1
 450 110 l 1
 450 10 l 1
 50 10 l 1
300 540 m 1
 300 390 l 1
 450 390 l 1
 450 290 l 1
 300 290 l 1
 300 140 l 1
 200 140 l 1
 200 290 l 1
 50 290 l 1
 50 390 l 1
 200 390 l 1
 200 540 l 1
 300 540 l 1
EndSplineSet
Validated: 1
EndChar

StartChar: uni00B2
Encoding: 178 178 111
Width: 238
Flags: MW
LayerCount: 2
Fore
SplineSet
142.080078125 650.360351562 m 0
 125.709960938 640.129882812 112.83984375 622.419921875 106.330078125 601.33984375 c 1
 188 601.33984375 l 1
 188 549.799804688 l 1
 50 549.799804688 l 1
 50.2001953125 575.780273438 l 2
 50.2197265625 578.209960938 50.3603515625 580.389648438 50.5 582.200195312 c 0
 51.1103515625 590.25 52.4599609375 598.599609375 54.490234375 607.009765625 c 0
 54.75 608.080078125 55.01953125 609.169921875 55.3095703125 610.259765625 c 0
 59.7998046875 627.309570312 66.98046875 643.099609375 76.650390625 657.169921875 c 0
 87.099609375 672.370117188 99.9296875 684.780273438 114.790039062 694.0703125 c 0
 122.990234375 699.190429688 129.450195312 706.549804688 132.990234375 714.799804688 c 0
 137.469726562 725.23046875 136.849609375 734.83984375 134.389648438 739.360351562 c 0
 131.419921875 744.799804688 125.280273438 748.459960938 119.099609375 748.459960938 c 0
 109.509765625 748.459960938 101.709960938 740.639648438 101.709960938 731.040039062 c 2
 101.709960938 719.669921875 l 1
 50.2001953125 719.669921875 l 1
 50.2001953125 731.040039062 l 2
 50.2001953125 769.059570312 81.1103515625 799.990234375 119.099609375 799.990234375 c 0
 131.41015625 799.990234375 143.5703125 796.629882812 154.26953125 790.26953125 c 0
 164.950195312 783.919921875 173.719726562 774.83984375 179.610351562 764.030273438 c 0
 185.389648438 753.4296875 188.209960938 740.76953125 187.759765625 727.419921875 c 0
 187.400390625 716.360351562 184.830078125 704.959960938 180.330078125 694.48046875 c 0
 172.690429688 676.669921875 159.110351562 661 142.080078125 650.360351562 c 0
EndSplineSet
Validated: 33
EndChar

StartChar: uni00B3
Encoding: 179 179 112
Width: 238
Flags: MW
LayerCount: 2
Fore
SplineSet
153.509765625 790.759765625 m 0
 163.969726562 784.709960938 172.709960938 775.969726562 178.759765625 765.509765625 c 0
 184.809570312 755.059570312 188 743.129882812 188 731 c 2
 188 728.139648438 l 2
 188 716.009765625 184.799804688 704.080078125 178.759765625 693.629882812 c 0
 177.009765625 690.599609375 175.040039062 687.719726562 172.870117188 685.009765625 c 0
 175.040039062 682.290039062 177.009765625 679.419921875 178.759765625 676.389648438 c 0
 184.809570312 665.940429688 188 654.009765625 188 641.879882812 c 2
 188 616 l 2
 188 603.870117188 184.799804688 591.940429688 178.759765625 581.490234375 c 0
 172.709960938 571.030273438 163.98046875 562.290039062 153.509765625 556.240234375 c 0
 143.059570312 550.190429688 131.129882812 547 119 547 c 0
 106.870117188 547 94.9404296875 550.200195312 84.490234375 556.240234375 c 0
 74.0302734375 562.290039062 65.2900390625 571.01953125 59.240234375 581.490234375 c 0
 53.1904296875 591.940429688 50 603.870117188 50 616 c 2
 50 627.5 l 1
 101.75 627.5 l 1
 101.75 616 l 2
 101.75 606.490234375 109.490234375 598.75 119 598.75 c 0
 128.509765625 598.75 136.25 606.490234375 136.25 616 c 2
 136.25 641.870117188 l 2
 136.25 651.379882812 128.509765625 659.120117188 119 659.120117188 c 2
 93.23046875 659.120117188 l 1
 93.23046875 710.870117188 l 1
 119 710.870117188 l 2
 128.509765625 710.870117188 136.25 718.610351562 136.25 728.120117188 c 2
 136.25 731 l 2
 136.25 740.509765625 128.509765625 748.25 119 748.25 c 0
 109.490234375 748.25 101.75 740.509765625 101.75 731 c 2
 101.75 719.5 l 1
 50 719.5 l 1
 50 731 l 2
 50 743.129882812 53.1904296875 755.059570312 59.240234375 765.509765625 c 0
 65.2900390625 775.969726562 74.01953125 784.709960938 84.490234375 790.759765625 c 0
 94.9404296875 796.809570312 106.870117188 800 119 800 c 0
 131.129882812 800 143.059570312 796.809570312 153.509765625 790.759765625 c 0
EndSplineSet
Validated: 1
EndChar

StartChar: acute
Encoding: 180 180 113
Width: 250
Flags: MW
LayerCount: 2
Fore
SplineSet
200 790 m 1
 150 600 l 1
 50 600 l 1
 100 790 l 1
 200 790 l 1
EndSplineSet
Validated: 1
EndChar

StartChar: mu
Encoding: 181 181 114
Width: 500
Flags: MW
LayerCount: 2
Fore
SplineSet
350 200 m 2
 350 490 l 1
 450 490 l 1
 450 200 l 1
 450 10 l 1
 350 10 l 1
 350 26.759765625 l 1
 320.58984375 9.740234375 286.4296875 0 250 0 c 0
 213.5703125 0 179.41015625 9.740234375 150 26.759765625 c 1
 150 -190 l 1
 50 -190 l 1
 50 200 l 1
 50 490 l 1
 150 490 l 1
 150 200 l 2
 150 144.76953125 194.76953125 100 250 100 c 0
 305.23046875 100 350 144.76953125 350 200 c 2
EndSplineSet
Validated: 1
EndChar

StartChar: paragraph
Encoding: 182 182 115
Width: 500
Flags: MW
LayerCount: 2
Fore
SplineSet
300 790 m 1
 350 790 l 1
 450 790 l 1
 450 -200 l 1
 350 -200 l 1
 350 690 l 1
 300 690 l 1
 300 490 l 1
 300 390 l 1
 300 -200 l 1
 200 -200 l 1
 200 396.299804688 l 1
 147.459960938 409.8203125 103.280273438 444.16015625 76.759765625 490 c 0
 59.740234375 519.41015625 50 553.5703125 50 590 c 0
 50 626.4296875 59.740234375 660.58984375 76.759765625 690 c 0
 103.280273438 735.83984375 147.459960938 770.1796875 200 783.700195312 c 0
 214.580078125 787.450195312 229.799804688 789.580078125 245.469726562 789.9296875 c 0
 246.969726562 789.969726562 248.48046875 790 250 790 c 2
 300 790 l 1
200 503.379882812 m 1
 200 676.620117188 l 1
 170.110351562 659.330078125 150 627.01953125 150 590 c 0
 150 552.98046875 170.110351562 520.669921875 200 503.379882812 c 1
EndSplineSet
Validated: 1
EndChar

StartChar: periodcentered
Encoding: 183 183 116
Width: 210
Flags: MW
LayerCount: 2
Fore
SplineSet
50 345 m 0
 50 375.375976562 74.6240234375 400 105 400 c 0
 135.375976562 400 160 375.375976562 160 345 c 0
 160 314.624023438 135.375976562 290 105 290 c 0
 74.6240234375 290 50 314.624023438 50 345 c 0
EndSplineSet
Validated: 1
EndChar

StartChar: cedilla
Encoding: 184 184 117
Width: 200
Flags: MW
LayerCount: 2
Fore
SplineSet
50 -95 m 1
 50 95 l 1
 150 95 l 1
 150 -95 l 1
 50 -95 l 1
EndSplineSet
Validated: 1
EndChar

StartChar: uni00B9
Encoding: 185 185 118
Width: 193
Flags: MW
LayerCount: 2
Fore
SplineSet
50 710.48046875 m 1
 50 762.799804688 l 1
 143 800 l 1
 143 747.6796875 l 1
 143 549.030273438 l 1
 92.400390625 549.030273438 l 1
 92.400390625 727.440429688 l 1
 50 710.48046875 l 1
EndSplineSet
Validated: 1
EndChar

StartChar: ordmasculine
Encoding: 186 186 119
Width: 300
Flags: MW
LayerCount: 2
Fore
SplineSet
200 786.620117188 m 0
 215.1796875 777.83984375 227.83984375 765.1796875 236.620117188 750 c 0
 245.129882812 735.290039062 250 718.219726562 250 700 c 2
 250 650 l 2
 250 641.360351562 248.900390625 632.990234375 246.83984375 625 c 0
 244.559570312 616.129882812 241.08984375 607.740234375 236.620117188 600 c 0
 227.83984375 584.8203125 215.1796875 572.16015625 200 563.379882812 c 0
 185.299804688 554.879882812 168.23046875 550 150.030273438 550 c 2
 150 550 l 2
 131.790039062 550 114.709960938 554.870117188 100 563.379882812 c 0
 84.8203125 572.16015625 72.16015625 584.8203125 63.3798828125 600 c 0
 58.91015625 607.740234375 55.4404296875 616.129882812 53.16015625 625 c 0
 51.08984375 632.990234375 50 641.360351562 50 650 c 2
 50 700 l 2
 50 718.219726562 54.8701171875 735.290039062 63.3798828125 750 c 0
 72.16015625 765.1796875 84.8203125 777.83984375 100 786.620117188 c 0
 114.709960938 795.129882812 131.790039062 800 150 800 c 0
 168.209960938 800 185.290039062 795.129882812 200 786.620117188 c 0
200 650 m 2
 200 700 l 2
 200 727.610351562 177.620117188 750 150 750 c 0
 122.379882812 750 100 727.610351562 100 700 c 2
 100 650 l 2
 100 640.889648438 102.440429688 632.349609375 106.690429688 625 c 0
 115.330078125 610.049804688 131.490234375 600 150 600 c 0
 168.509765625 600 184.66015625 610.049804688 193.309570312 625 c 0
 197.559570312 632.349609375 200 640.889648438 200 650 c 2
EndSplineSet
Validated: 1
EndChar

StartChar: guillemotright
Encoding: 187 187 120
Width: 500
Flags: MW
LayerCount: 2
Fore
SplineSet
250 490 m 1
 350 490 l 1
 450 340 l 1
 350 190 l 1
 250 190 l 1
 350 340 l 1
 250 490 l 1
150 490 m 1
 250 340 l 1
 150 190 l 1
 50 190 l 1
 150 340 l 1
 50 490 l 1
 150 490 l 1
EndSplineSet
Validated: 1
EndChar

StartChar: onequarter
Encoding: 188 188 121
Width: 500
Flags: MW
LayerCount: 2
Fore
SplineSet
50 10 m 1
 390 790 l 1
 450 790 l 1
 110 10 l 1
 50 10 l 1
92.240234375 550 m 1
 92.240234375 727.719726562 l 1
 50 710.830078125 l 1
 50 762.940429688 l 1
 142.639648438 800 l 1
 142.639648438 747.879882812 l 1
 142.639648438 550 l 1
 92.240234375 550 l 1
398.129882812 172.58984375 m 1
 398.129882812 260 l 1
 450 260 l 1
 450 10 l 1
 398.139648438 10 l 1
 398.139648438 120.709960938 l 1
 380.370117188 120.709960938 l 2
 368.129882812 120.709960938 356.080078125 123.940429688 345.540039062 130.040039062 c 0
 341.549804688 132.349609375 337.759765625 135.0703125 334.299804688 138.129882812 c 0
 328.620117188 143.139648438 323.830078125 149 320.049804688 155.530273438 c 0
 313.950195312 166.0703125 310.73046875 178.120117188 310.73046875 190.360351562 c 2
 310.73046875 260 l 1
 362.58984375 260 l 1
 362.58984375 190.360351562 l 2
 362.58984375 180.559570312 370.559570312 172.58984375 380.360351562 172.58984375 c 2
 398.129882812 172.58984375 l 1
EndSplineSet
Validated: 1
EndChar

StartChar: onehalf
Encoding: 189 189 122
Width: 500
Flags: MW
LayerCount: 2
Fore
SplineSet
404.110351562 110.48046875 m 0
 387.759765625 100.259765625 374.900390625 82.5595703125 368.400390625 61.5 c 1
 450 61.5 l 1
 450 10 l 1
 312.110351562 10 l 1
 312.309570312 35.9501953125 l 2
 312.330078125 38.3798828125 312.469726562 40.5595703125 312.610351562 42.3701171875 c 0
 313.23046875 50.41015625 314.5703125 58.75 316.599609375 67.16015625 c 0
 316.860351562 68.23046875 317.129882812 69.330078125 317.419921875 70.41015625 c 0
 321.91015625 87.4501953125 329.080078125 103.23046875 338.740234375 117.290039062 c 0
 349.1796875 132.469726562 362 144.879882812 376.849609375 154.16015625 c 0
 385.049804688 159.280273438 391.509765625 166.639648438 395.040039062 174.879882812 c 0
 399.509765625 185.299804688 398.900390625 194.900390625 396.440429688 199.419921875 c 0
 393.469726562 204.849609375 387.330078125 208.509765625 381.16015625 208.509765625 c 0
 371.5703125 208.509765625 363.780273438 200.700195312 363.780273438 191.099609375 c 2
 363.780273438 179.759765625 l 1
 312.309570312 179.759765625 l 1
 312.309570312 191.120117188 l 2
 312.309570312 229.110351562 343.190429688 260.01953125 381.150390625 260.01953125 c 0
 393.450195312 260.01953125 405.599609375 256.66015625 416.290039062 250.299804688 c 0
 426.959960938 243.950195312 435.719726562 234.879882812 441.610351562 224.080078125 c 0
 447.389648438 213.48046875 450.209960938 200.830078125 449.759765625 187.490234375 c 0
 449.389648438 176.4296875 446.8203125 165.049804688 442.330078125 154.5703125 c 0
 434.700195312 136.76953125 421.120117188 121.110351562 404.110351562 110.48046875 c 0
52.5 10 m 1
 390 790 l 1
 450 790 l 1
 112.5 10 l 1
 52.5 10 l 1
142.639648438 550 m 1
 92.240234375 550 l 1
 92.240234375 727.719726562 l 1
 50 710.830078125 l 1
 50 762.940429688 l 1
 142.639648438 800 l 1
 142.639648438 747.879882812 l 1
 142.639648438 550 l 1
EndSplineSet
Validated: 1
EndChar

StartChar: threequarters
Encoding: 190 190 123
Width: 500
Flags: MW
LayerCount: 2
Fore
SplineSet
84.080078125 559.129882812 m 0
 73.740234375 565.110351562 65.1103515625 573.740234375 59.1298828125 584.0703125 c 0
 53.16015625 594.389648438 50 606.1796875 50 618.169921875 c 2
 50 629.530273438 l 1
 101.139648438 629.530273438 l 1
 101.139648438 618.169921875 l 2
 101.139648438 608.76953125 108.790039062 601.120117188 118.190429688 601.120117188 c 0
 127.58984375 601.120117188 135.240234375 608.76953125 135.240234375 618.169921875 c 2
 135.240234375 643.740234375 l 2
 135.240234375 653.139648438 127.58984375 660.790039062 118.190429688 660.790039062 c 2
 92.7197265625 660.790039062 l 1
 92.7197265625 711.9296875 l 1
 118.190429688 711.9296875 l 2
 127.58984375 711.9296875 135.240234375 719.580078125 135.240234375 728.98046875 c 2
 135.240234375 731.8203125 l 2
 135.240234375 741.219726562 127.58984375 748.870117188 118.190429688 748.870117188 c 0
 108.790039062 748.870117188 101.139648438 741.219726562 101.139648438 731.8203125 c 2
 101.139648438 720.459960938 l 1
 50 720.459960938 l 1
 50 731.8203125 l 2
 50 743.809570312 53.16015625 755.599609375 59.1298828125 765.919921875 c 0
 65.1103515625 776.259765625 73.740234375 784.889648438 84.080078125 790.870117188 c 0
 94.400390625 796.83984375 106.190429688 800 118.1796875 800 c 0
 130.169921875 800 141.959960938 796.83984375 152.280273438 790.870117188 c 0
 162.620117188 784.889648438 171.25 776.259765625 177.23046875 765.919921875 c 0
 183.200195312 755.599609375 186.360351562 743.809570312 186.360351562 731.8203125 c 2
 186.360351562 728.98046875 l 2
 186.360351562 716.990234375 183.200195312 705.200195312 177.23046875 694.879882812 c 0
 175.5 691.889648438 173.559570312 689.049804688 171.41015625 686.370117188 c 0
 173.559570312 683.6796875 175.5 680.83984375 177.23046875 677.849609375 c 0
 183.200195312 667.530273438 186.360351562 655.740234375 186.360351562 643.75 c 2
 186.360351562 618.1796875 l 2
 186.360351562 606.190429688 183.200195312 594.400390625 177.23046875 584.080078125 c 0
 171.25 573.740234375 162.620117188 565.110351562 152.280273438 559.129882812 c 0
 141.959960938 553.16015625 130.169921875 550 118.1796875 550 c 0
 106.190429688 550 94.400390625 553.16015625 84.080078125 559.129882812 c 0
50 10 m 1
 390 790 l 1
 450 790 l 1
 110 10 l 1
 50 10 l 1
398.129882812 172.58984375 m 1
 398.129882812 260 l 1
 450 260 l 1
 450 10 l 1
 398.139648438 10 l 1
 398.139648438 120.709960938 l 1
 380.370117188 120.709960938 l 2
 368.129882812 120.709960938 356.080078125 123.940429688 345.540039062 130.040039062 c 0
 341.549804688 132.349609375 337.759765625 135.0703125 334.299804688 138.129882812 c 0
 328.620117188 143.139648438 323.830078125 149 320.049804688 155.530273438 c 0
 313.950195312 166.0703125 310.73046875 178.120117188 310.73046875 190.360351562 c 2
 310.73046875 260 l 1
 362.58984375 260 l 1
 362.58984375 190.360351562 l 2
 362.58984375 180.559570312 370.559570312 172.58984375 380.360351562 172.58984375 c 2
 398.129882812 172.58984375 l 1
EndSplineSet
Validated: 1
EndChar

StartChar: questiondown
Encoding: 191 191 124
Width: 500
Flags: MW
LayerCount: 2
Fore
SplineSet
250 -100 m 0
 305.23046875 -100 350 -55.23046875 350 0 c 1
 450 0 l 1
 450 -36.4296875 440.259765625 -70.58984375 423.240234375 -100 c 0
 388.66015625 -159.780273438 324.030273438 -200 250 -200 c 0
 175.969726562 -200 111.33984375 -159.780273438 76.759765625 -100 c 0
 59.740234375 -70.58984375 50 -36.4296875 50 0 c 2
 50 10 l 2
 50 46.4296875 59.740234375 80.58984375 76.759765625 110 c 0
 87.6396484375 128.8203125 101.509765625 145.700195312 117.709960938 160 c 0
 140.959960938 180.530273438 169.030273438 195.73046875 200 203.690429688 c 1
 200 400 l 1
 300 400 l 1
 300 110 l 1
 250 110 l 2
 194.76953125 110 150 65.23046875 150 10 c 2
 150 0 l 2
 150 -55.23046875 194.76953125 -100 250 -100 c 0
195 545 m 0
 195 575.375976562 219.624023438 600 250 600 c 0
 280.375976562 600 305 575.375976562 305 545 c 0
 305 514.624023438 280.375976562 490 250 490 c 0
 219.624023438 490 195 514.624023438 195 545 c 0
EndSplineSet
Validated: 1
EndChar

StartChar: Agrave
Encoding: 192 192 125
Width: 500
Flags: MW
LayerCount: 2
Fore
SplineSet
394.23046875 300 m 1
 413.459960938 200 l 1
 450 10 l 1
 350 10 l 1
 313.459960938 200 l 1
 186.540039062 200 l 1
 150 10 l 1
 50 10 l 1
 86.5400390625 200 l 1
 105.76953125 300 l 1
 200 790 l 1
 300 790 l 1
 394.23046875 300 l 1
205.76953125 300 m 1
 294.23046875 300 l 1
 250 530 l 1
 205.76953125 300 l 1
325 835 m 1
 225 835 l 1
 175 1000 l 1
 275 1000 l 1
 325 835 l 1
EndSplineSet
Validated: 1
EndChar

StartChar: Aacute
Encoding: 193 193 126
Width: 500
Flags: MW
LayerCount: 2
Fore
SplineSet
394.23046875 300 m 1
 413.459960938 200 l 1
 450 10 l 1
 350 10 l 1
 313.459960938 200 l 1
 186.540039062 200 l 1
 150 10 l 1
 50 10 l 1
 86.5400390625 200 l 1
 105.76953125 300 l 1
 200 790 l 1
 300 790 l 1
 394.23046875 300 l 1
205.76953125 300 m 1
 294.23046875 300 l 1
 250 530 l 1
 205.76953125 300 l 1
325 1000 m 1
 275 835 l 1
 175 835 l 1
 225 1000 l 1
 325 1000 l 1
EndSplineSet
Validated: 1
EndChar

StartChar: Acircumflex
Encoding: 194 194 127
Width: 500
Flags: MW
LayerCount: 2
Fore
SplineSet
394.23046875 300 m 1
 413.459960938 200 l 1
 450 10 l 1
 350 10 l 1
 313.459960938 200 l 1
 186.540039062 200 l 1
 150 10 l 1
 50 10 l 1
 86.5400390625 200 l 1
 105.76953125 300 l 1
 200 790 l 1
 300 790 l 1
 394.23046875 300 l 1
205.76953125 300 m 1
 294.23046875 300 l 1
 250 530 l 1
 205.76953125 300 l 1
351.059570312 825 m 1
 251.059570312 900 l 1
 151.059570312 825 l 1
 151.059570312 925 l 1
 251.059570312 1000 l 1
 351.059570312 925 l 1
 351.059570312 825 l 1
EndSplineSet
Validated: 1
EndChar

StartChar: Atilde
Encoding: 195 195 128
Width: 500
Flags: MW
LayerCount: 2
Fore
SplineSet
394.23046875 300 m 1
 413.459960938 200 l 1
 450 10 l 1
 350 10 l 1
 313.459960938 200 l 1
 186.540039062 200 l 1
 150 10 l 1
 50 10 l 1
 86.5400390625 200 l 1
 105.76953125 300 l 1
 200 790 l 1
 300 790 l 1
 394.23046875 300 l 1
205.76953125 300 m 1
 294.23046875 300 l 1
 250 530 l 1
 205.76953125 300 l 1
197.5 930 m 0
 187.83984375 930 180 922.16015625 180 912.5 c 1
 110 912.5 l 1
 110 960.8203125 149.1796875 1000 197.5 1000 c 0
 217.200195312 1000 235.379882812 993.490234375 250 982.5 c 0
 271.259765625 966.540039062 285 941.120117188 285 912.5 c 0
 285 902.83984375 292.83984375 895 302.5 895 c 0
 312.169921875 895 320 902.83984375 320 912.5 c 1
 390 912.5 l 1
 390 864.1796875 350.830078125 825 302.5 825 c 0
 282.799804688 825 264.620117188 831.509765625 250 842.5 c 0
 228.75 858.459960938 215 883.879882812 215 912.5 c 0
 215 922.16015625 207.169921875 930 197.5 930 c 0
EndSplineSet
Validated: 1
EndChar

StartChar: Adieresis
Encoding: 196 196 129
Width: 500
Flags: MW
LayerCount: 2
Fore
SplineSet
394.23046875 300 m 1
 413.459960938 200 l 1
 450 10 l 1
 350 10 l 1
 313.459960938 200 l 1
 186.540039062 200 l 1
 150 10 l 1
 50 10 l 1
 86.5400390625 200 l 1
 105.76953125 300 l 1
 200 790 l 1
 300 790 l 1
 394.23046875 300 l 1
205.76953125 300 m 1
 294.23046875 300 l 1
 250 530 l 1
 205.76953125 300 l 1
115 917.5 m 0
 115 947.875976562 139.624023438 972.5 170 972.5 c 0
 200.375976562 972.5 225 947.875976562 225 917.5 c 0
 225 887.124023438 200.375976562 862.5 170 862.5 c 0
 139.624023438 862.5 115 887.124023438 115 917.5 c 0
275 917.5 m 0
 275 947.875976562 299.624023438 972.5 330 972.5 c 0
 360.375976562 972.5 385 947.875976562 385 917.5 c 0
 385 887.124023438 360.375976562 862.5 330 862.5 c 0
 299.624023438 862.5 275 887.124023438 275 917.5 c 0
EndSplineSet
Validated: 1
EndChar

StartChar: Aring
Encoding: 197 197 130
Width: 500
Flags: MW
LayerCount: 2
Fore
SplineSet
394.23046875 300 m 1
 413.459960938 200 l 1
 450 10 l 1
 350 10 l 1
 313.459960938 200 l 1
 186.540039062 200 l 1
 150 10 l 1
 50 10 l 1
 86.5400390625 200 l 1
 105.76953125 300 l 1
 200 790 l 1
 300 790 l 1
 394.23046875 300 l 1
205.76953125 300 m 1
 294.23046875 300 l 1
 250 530 l 1
 205.76953125 300 l 1
250 825 m 0
 201.6796875 825 162.5 864.1796875 162.5 912.5 c 0
 162.5 960.8203125 201.6796875 1000 250 1000 c 0
 298.3203125 1000 337.5 960.8203125 337.5 912.5 c 0
 337.5 864.1796875 298.3203125 825 250 825 c 0
250 937.5 m 0
 236.190429688 937.5 225 926.309570312 225 912.5 c 0
 225 898.690429688 236.190429688 887.5 250 887.5 c 0
 263.809570312 887.5 275 898.690429688 275 912.5 c 0
 275 926.309570312 263.809570312 937.5 250 937.5 c 0
EndSplineSet
Validated: 1
EndChar

StartChar: AE
Encoding: 198 198 131
Width: 810
Flags: MW
LayerCount: 2
Fore
SplineSet
460 790 m 1
 465 790 l 1
 760 790 l 1
 760 690 l 1
 460 690 l 1
 460 490 l 1
 760 490 l 1
 760 390 l 1
 460 390 l 1
 460 300 l 1
 460 200 l 1
 460 110 l 1
 760 110 l 1
 760 10 l 1
 460 10 l 1
 360 10 l 1
 360 110 l 1
 360 200 l 1
 241.860351562 200 l 1
 160 10 l 1
 50 10 l 1
 131.860351562 200 l 1
 169.6796875 300 l 1
 355 790 l 1
 360 790 l 1
 460 790 l 1
360 390 m 1
 360 490 l 1
 360 512.370117188 l 1
 279.6796875 300 l 1
 360 300 l 1
 360 390 l 1
EndSplineSet
Validated: 1
EndChar

StartChar: Ccedilla
Encoding: 199 199 132
Width: 500
Flags: MW
LayerCount: 2
Fore
SplineSet
150 26.759765625 m 0
 90.2197265625 61.33984375 50 125.969726562 50 200 c 2
 50 600 l 2
 50 674.030273438 90.2197265625 738.66015625 150 773.240234375 c 0
 179.41015625 790.259765625 213.5703125 800 250 800 c 0
 286.4296875 800 320.58984375 790.259765625 350 773.240234375 c 0
 409.780273438 738.66015625 450 674.030273438 450 600 c 1
 350 600 l 1
 350 655.23046875 305.23046875 700 250 700 c 0
 194.76953125 700 150 655.23046875 150 600 c 2
 150 200 l 2
 150 144.76953125 194.76953125 100 250 100 c 0
 305.23046875 100 350 144.76953125 350 200 c 1
 450 200 l 1
 450 125.969726562 409.780273438 61.33984375 350 26.759765625 c 0
 334.530273438 17.7998046875 317.740234375 10.8701171875 300 6.2998046875 c 1
 300 -100 l 1
 200 -100 l 1
 200 6.2998046875 l 1
 182.259765625 10.8701171875 165.469726562 17.8095703125 150 26.759765625 c 0
EndSplineSet
Validated: 1
EndChar

StartChar: Egrave
Encoding: 200 200 133
Width: 500
Flags: MW
LayerCount: 2
Fore
SplineSet
325 835 m 1
 225 835 l 1
 175 1000 l 1
 275 1000 l 1
 325 835 l 1
50 790 m 1
 150 790 l 1
 450 790 l 1
 450 690 l 1
 150 690 l 1
 150 490 l 1
 450 490 l 1
 450 390 l 1
 150 390 l 1
 150 110 l 1
 450 110 l 1
 450 10 l 1
 150 10 l 1
 50 10 l 1
 50 110 l 1
 50 390 l 1
 50 490 l 1
 50 690 l 1
 50 790 l 1
EndSplineSet
Validated: 1
EndChar

StartChar: Eacute
Encoding: 201 201 134
Width: 500
Flags: MW
LayerCount: 2
Fore
SplineSet
325 1000 m 1
 275 835 l 1
 175 835 l 1
 225 1000 l 1
 325 1000 l 1
450 690 m 1
 150 690 l 1
 150 490 l 1
 450 490 l 1
 450 390 l 1
 150 390 l 1
 150 110 l 1
 450 110 l 1
 450 10 l 1
 150 10 l 1
 50 10 l 1
 50 110 l 1
 50 390 l 1
 50 490 l 1
 50 690 l 1
 50 790 l 1
 150 790 l 1
 450 790 l 1
 450 690 l 1
EndSplineSet
Validated: 1
EndChar

StartChar: Ecircumflex
Encoding: 202 202 135
Width: 500
Flags: MW
LayerCount: 2
Fore
SplineSet
50 790 m 1
 150 790 l 1
 450 790 l 1
 450 690 l 1
 150 690 l 1
 150 490 l 1
 450 490 l 1
 450 390 l 1
 150 390 l 1
 150 110 l 1
 450 110 l 1
 450 10 l 1
 150 10 l 1
 50 10 l 1
 50 110 l 1
 50 390 l 1
 50 490 l 1
 50 690 l 1
 50 790 l 1
350 925 m 1
 350 825 l 1
 250 900 l 1
 150 825 l 1
 150 925 l 1
 250 1000 l 1
 350 925 l 1
EndSplineSet
Validated: 1
EndChar

StartChar: Edieresis
Encoding: 203 203 136
Width: 500
Flags: MW
LayerCount: 2
Fore
SplineSet
115 917.5 m 0
 115 947.875976562 139.624023438 972.5 170 972.5 c 0
 200.375976562 972.5 225 947.875976562 225 917.5 c 0
 225 887.124023438 200.375976562 862.5 170 862.5 c 0
 139.624023438 862.5 115 887.124023438 115 917.5 c 0
275 917.5 m 0
 275 947.875976562 299.624023438 972.5 330 972.5 c 0
 360.375976562 972.5 385 947.875976562 385 917.5 c 0
 385 887.124023438 360.375976562 862.5 330 862.5 c 0
 299.624023438 862.5 275 887.124023438 275 917.5 c 0
50 790 m 1
 150 790 l 1
 450 790 l 1
 450 690 l 1
 150 690 l 1
 150 490 l 1
 450 490 l 1
 450 390 l 1
 150 390 l 1
 150 110 l 1
 450 110 l 1
 450 10 l 1
 150 10 l 1
 50 10 l 1
 50 110 l 1
 50 390 l 1
 50 490 l 1
 50 690 l 1
 50 790 l 1
EndSplineSet
Validated: 1
EndChar

StartChar: Igrave
Encoding: 204 204 137
Width: 300
Flags: MW
LayerCount: 2
Fore
SplineSet
225 835 m 1
 125 835 l 1
 75 1000 l 1
 175 1000 l 1
 225 835 l 1
50 110 m 1
 100 110 l 1
 100 690 l 1
 50 690 l 1
 50 790 l 1
 100 790 l 1
 200 790 l 1
 250 790 l 1
 250 690 l 1
 200 690 l 1
 200 110 l 1
 250 110 l 1
 250 10 l 1
 200 10 l 1
 100 10 l 1
 50 10 l 1
 50 110 l 1
EndSplineSet
Validated: 1
EndChar

StartChar: Iacute
Encoding: 205 205 138
Width: 300
Flags: MW
LayerCount: 2
Fore
SplineSet
225 1000 m 1
 175 835 l 1
 75 835 l 1
 125 1000 l 1
 225 1000 l 1
50 110 m 1
 100 110 l 1
 100 690 l 1
 50 690 l 1
 50 790 l 1
 100 790 l 1
 200 790 l 1
 250 790 l 1
 250 690 l 1
 200 690 l 1
 200 110 l 1
 250 110 l 1
 250 10 l 1
 200 10 l 1
 100 10 l 1
 50 10 l 1
 50 110 l 1
EndSplineSet
Validated: 1
EndChar

StartChar: Icircumflex
Encoding: 206 206 139
Width: 300
Flags: MW
LayerCount: 2
Fore
SplineSet
250 825 m 1
 150 900 l 1
 50 825 l 1
 50 925 l 1
 150 1000 l 1
 250 925 l 1
 250 825 l 1
50 110 m 1
 100 110 l 1
 100 690 l 1
 50 690 l 1
 50 790 l 1
 100 790 l 1
 200 790 l 1
 250 790 l 1
 250 690 l 1
 200 690 l 1
 200 110 l 1
 250 110 l 1
 250 10 l 1
 200 10 l 1
 100 10 l 1
 50 10 l 1
 50 110 l 1
EndSplineSet
Validated: 1
EndChar

StartChar: Idieresis
Encoding: 207 207 140
Width: 370
Flags: MW
LayerCount: 2
Fore
SplineSet
50 917.5 m 0
 50 947.875976562 74.6240234375 972.5 105 972.5 c 0
 135.375976562 972.5 160 947.875976562 160 917.5 c 0
 160 887.124023438 135.375976562 862.5 105 862.5 c 0
 74.6240234375 862.5 50 887.124023438 50 917.5 c 0
210 917.5 m 0
 210 947.875976562 234.624023438 972.5 265 972.5 c 0
 295.375976562 972.5 320 947.875976562 320 917.5 c 0
 320 887.124023438 295.375976562 862.5 265 862.5 c 0
 234.624023438 862.5 210 887.124023438 210 917.5 c 0
85 790 m 1
 135 790 l 1
 235 790 l 1
 285 790 l 1
 285 690 l 1
 235 690 l 1
 235 110 l 1
 285 110 l 1
 285 10 l 1
 235 10 l 1
 135 10 l 1
 85 10 l 1
 85 110 l 1
 135 110 l 1
 135 690 l 1
 85 690 l 1
 85 790 l 1
EndSplineSet
Validated: 1
EndChar

StartChar: Eth
Encoding: 208 208 141
Width: 550
Flags: MW
LayerCount: 2
Fore
SplineSet
400 763.240234375 m 0
 430.360351562 745.6796875 455.6796875 720.360351562 473.240234375 690 c 0
 490.259765625 660.58984375 500 626.4296875 500 590 c 2
 500 210 l 2
 500 173.5703125 490.259765625 139.41015625 473.240234375 110 c 0
 455.6796875 79.6396484375 430.360351562 54.3203125 400 36.759765625 c 0
 370.58984375 19.740234375 336.4296875 10 300 10 c 2
 200 10 l 1
 100 10 l 1
 100 390 l 1
 50 390 l 1
 50 490 l 1
 100 490 l 1
 100 790 l 1
 200 790 l 1
 300 790 l 2
 336.4296875 790 370.58984375 780.259765625 400 763.240234375 c 0
400 210 m 2
 400 590 l 2
 400 645.23046875 355.23046875 690 300 690 c 2
 200 690 l 1
 200 490 l 1
 250 490 l 1
 250 390 l 1
 200 390 l 1
 200 110 l 1
 300 110 l 2
 355.23046875 110 400 154.76953125 400 210 c 2
EndSplineSet
Validated: 1
EndChar

StartChar: Ntilde
Encoding: 209 209 142
Width: 500
Flags: MW
LayerCount: 2
Fore
SplineSet
302.5 895 m 0
 312.169921875 895 320 902.83984375 320 912.5 c 1
 390 912.5 l 1
 390 864.1796875 350.830078125 825 302.5 825 c 0
 282.799804688 825 264.620117188 831.509765625 250 842.5 c 0
 228.75 858.459960938 215 883.879882812 215 912.5 c 0
 215 922.16015625 207.169921875 930 197.5 930 c 0
 187.83984375 930 180 922.16015625 180 912.5 c 1
 110 912.5 l 1
 110 960.8203125 149.1796875 1000 197.5 1000 c 0
 217.200195312 1000 235.379882812 993.490234375 250 982.5 c 0
 271.259765625 966.540039062 285 941.120117188 285 912.5 c 0
 285 902.83984375 292.83984375 895 302.5 895 c 0
150 640 m 1
 150 10 l 1
 50 10 l 1
 50 790 l 1
 150 790 l 1
 350 525 l 1
 350 790 l 1
 450 790 l 1
 450 10 l 1
 350 10 l 1
 350 375 l 1
 150 640 l 1
EndSplineSet
Validated: 1
EndChar

StartChar: Ograve
Encoding: 210 210 143
Width: 500
Flags: MW
LayerCount: 2
Fore
SplineSet
275 1000 m 1
 325 835 l 1
 225 835 l 1
 175 1000 l 1
 275 1000 l 1
350 773.240234375 m 0
 409.780273438 738.66015625 450 674.030273438 450 600 c 2
 450 200 l 2
 450 125.969726562 409.780273438 61.33984375 350 26.759765625 c 0
 320.58984375 9.740234375 286.4296875 0 250 0 c 0
 213.5703125 0 179.41015625 9.740234375 150 26.759765625 c 0
 90.2197265625 61.33984375 50 125.969726562 50 200 c 2
 50 600 l 2
 50 674.030273438 90.2197265625 738.66015625 150 773.240234375 c 0
 179.41015625 790.259765625 213.5703125 800 250 800 c 0
 286.4296875 800 320.58984375 790.259765625 350 773.240234375 c 0
350 200 m 2
 350 600 l 2
 350 655.23046875 305.23046875 700 250 700 c 0
 194.76953125 700 150 655.23046875 150 600 c 2
 150 200 l 2
 150 144.76953125 194.76953125 100 250 100 c 0
 305.23046875 100 350 144.76953125 350 200 c 2
EndSplineSet
Validated: 1
EndChar

StartChar: Oacute
Encoding: 211 211 144
Width: 500
Flags: MW
LayerCount: 2
Fore
SplineSet
325 1000 m 1
 275 835 l 1
 175 835 l 1
 225 1000 l 1
 325 1000 l 1
350 773.240234375 m 0
 409.780273438 738.66015625 450 674.030273438 450 600 c 2
 450 200 l 2
 450 125.969726562 409.780273438 61.33984375 350 26.759765625 c 0
 320.58984375 9.740234375 286.4296875 0 250 0 c 0
 213.5703125 0 179.41015625 9.740234375 150 26.759765625 c 0
 90.2197265625 61.33984375 50 125.969726562 50 200 c 2
 50 600 l 2
 50 674.030273438 90.2197265625 738.66015625 150 773.240234375 c 0
 179.41015625 790.259765625 213.5703125 800 250 800 c 0
 286.4296875 800 320.58984375 790.259765625 350 773.240234375 c 0
350 200 m 2
 350 600 l 2
 350 655.23046875 305.23046875 700 250 700 c 0
 194.76953125 700 150 655.23046875 150 600 c 2
 150 200 l 2
 150 144.76953125 194.76953125 100 250 100 c 0
 305.23046875 100 350 144.76953125 350 200 c 2
EndSplineSet
Validated: 1
EndChar

StartChar: Ocircumflex
Encoding: 212 212 145
Width: 500
Flags: MW
LayerCount: 2
Fore
SplineSet
350 825 m 1
 250 900 l 1
 150 825 l 1
 150 925 l 1
 250 1000 l 1
 350 925 l 1
 350 825 l 1
350 773.240234375 m 0
 409.780273438 738.66015625 450 674.030273438 450 600 c 2
 450 200 l 2
 450 125.969726562 409.780273438 61.33984375 350 26.759765625 c 0
 320.58984375 9.740234375 286.4296875 0 250 0 c 0
 213.5703125 0 179.41015625 9.740234375 150 26.759765625 c 0
 90.2197265625 61.33984375 50 125.969726562 50 200 c 2
 50 600 l 2
 50 674.030273438 90.2197265625 738.66015625 150 773.240234375 c 0
 179.41015625 790.259765625 213.5703125 800 250 800 c 0
 286.4296875 800 320.58984375 790.259765625 350 773.240234375 c 0
350 200 m 2
 350 600 l 2
 350 655.23046875 305.23046875 700 250 700 c 0
 194.76953125 700 150 655.23046875 150 600 c 2
 150 200 l 2
 150 144.76953125 194.76953125 100 250 100 c 0
 305.23046875 100 350 144.76953125 350 200 c 2
EndSplineSet
Validated: 1
EndChar

StartChar: Otilde
Encoding: 213 213 146
Width: 500
Flags: MW
LayerCount: 2
Fore
SplineSet
197.5 930 m 0
 187.83984375 930 180 922.16015625 180 912.5 c 1
 110 912.5 l 1
 110 960.8203125 149.1796875 1000 197.5 1000 c 0
 217.200195312 1000 235.379882812 993.490234375 250 982.5 c 0
 271.259765625 966.540039062 285 941.120117188 285 912.5 c 0
 285 902.83984375 292.83984375 895 302.5 895 c 0
 312.169921875 895 320 902.83984375 320 912.5 c 1
 390 912.5 l 1
 390 864.1796875 350.830078125 825 302.5 825 c 0
 282.799804688 825 264.620117188 831.509765625 250 842.5 c 0
 228.75 858.459960938 215 883.879882812 215 912.5 c 0
 215 922.16015625 207.169921875 930 197.5 930 c 0
350 773.240234375 m 0
 409.780273438 738.66015625 450 674.030273438 450 600 c 2
 450 200 l 2
 450 125.969726562 409.780273438 61.33984375 350 26.759765625 c 0
 320.58984375 9.740234375 286.4296875 0 250 0 c 0
 213.5703125 0 179.41015625 9.740234375 150 26.759765625 c 0
 90.2197265625 61.33984375 50 125.969726562 50 200 c 2
 50 600 l 2
 50 674.030273438 90.2197265625 738.66015625 150 773.240234375 c 0
 179.41015625 790.259765625 213.5703125 800 250 800 c 0
 286.4296875 800 320.58984375 790.259765625 350 773.240234375 c 0
350 200 m 2
 350 600 l 2
 350 655.23046875 305.23046875 700 250 700 c 0
 194.76953125 700 150 655.23046875 150 600 c 2
 150 200 l 2
 150 144.76953125 194.76953125 100 250 100 c 0
 305.23046875 100 350 144.76953125 350 200 c 2
EndSplineSet
Validated: 1
EndChar

StartChar: Odieresis
Encoding: 214 214 147
Width: 500
Flags: MW
LayerCount: 2
Fore
SplineSet
115 912.5 m 0
 115 942.875976562 139.624023438 967.5 170 967.5 c 0
 200.375976562 967.5 225 942.875976562 225 912.5 c 0
 225 882.124023438 200.375976562 857.5 170 857.5 c 0
 139.624023438 857.5 115 882.124023438 115 912.5 c 0
275 912.5 m 0
 275 942.875976562 299.624023438 967.5 330 967.5 c 0
 360.375976562 967.5 385 942.875976562 385 912.5 c 0
 385 882.124023438 360.375976562 857.5 330 857.5 c 0
 299.624023438 857.5 275 882.124023438 275 912.5 c 0
350 773.240234375 m 0
 409.780273438 738.66015625 450 674.030273438 450 600 c 2
 450 200 l 2
 450 125.969726562 409.780273438 61.33984375 350 26.759765625 c 0
 320.58984375 9.740234375 286.4296875 0 250 0 c 0
 213.5703125 0 179.41015625 9.740234375 150 26.759765625 c 0
 90.2197265625 61.33984375 50 125.969726562 50 200 c 2
 50 600 l 2
 50 674.030273438 90.2197265625 738.66015625 150 773.240234375 c 0
 179.41015625 790.259765625 213.5703125 800 250 800 c 0
 286.4296875 800 320.58984375 790.259765625 350 773.240234375 c 0
350 200 m 2
 350 600 l 2
 350 655.23046875 305.23046875 700 250 700 c 0
 194.76953125 700 150 655.23046875 150 600 c 2
 150 200 l 2
 150 144.76953125 194.76953125 100 250 100 c 0
 305.23046875 100 350 144.76953125 350 200 c 2
EndSplineSet
Validated: 1
EndChar

StartChar: multiply
Encoding: 215 215 148
Width: 450
Flags: MW
LayerCount: 2
Fore
SplineSet
330 515 m 1
 400 445 l 1
 295 340 l 1
 400 235 l 1
 330 165 l 1
 225 270 l 1
 120 165 l 1
 50 235 l 1
 155 340 l 1
 50 445 l 1
 120 515 l 1
 225 410 l 1
 330 515 l 1
EndSplineSet
Validated: 1
EndChar

StartChar: Oslash
Encoding: 216 216 149
Width: 500
Flags: MW
LayerCount: 2
Fore
SplineSet
356.639648438 800 m 1
 450 764.16015625 l 1
 423.83984375 698.959960938 l 1
 440.490234375 669.780273438 450 636 450 600 c 2
 450 200 l 2
 450 125.969726562 409.780273438 61.33984375 350 26.759765625 c 0
 320.58984375 9.740234375 286.4296875 0 250 0 c 0
 214.940429688 0 181.990234375 9.0302734375 153.33984375 24.8798828125 c 1
 143.360351562 0 l 1
 50 35.83984375 l 1
 76.16015625 101.040039062 l 1
 59.509765625 130.219726562 50 164 50 200 c 2
 50 600 l 2
 50 674.030273438 90.2197265625 738.66015625 150 773.240234375 c 0
 179.41015625 790.259765625 213.5703125 800 250 800 c 0
 285.059570312 800 318.01953125 790.98046875 346.66015625 775.129882812 c 1
 356.639648438 800 l 1
150 600 m 2
 150 285.040039062 l 1
 308.830078125 680.860351562 l 1
 292.3203125 692.889648438 271.990234375 700 250 700 c 0
 194.76953125 700 150 655.23046875 150 600 c 2
350 200 m 2
 350 514.959960938 l 1
 191.169921875 119.139648438 l 1
 207.669921875 107.110351562 228.009765625 100 250 100 c 0
 305.23046875 100 350 144.76953125 350 200 c 2
EndSplineSet
Validated: 1
EndChar

StartChar: Ugrave
Encoding: 217 217 150
Width: 500
Flags: MW
LayerCount: 2
Fore
SplineSet
175 1000 m 1
 275 1000 l 1
 325 835 l 1
 225 835 l 1
 175 1000 l 1
350 200 m 2
 350 790 l 1
 450 790 l 1
 450 200 l 2
 450 125.969726562 409.780273438 61.33984375 350 26.759765625 c 0
 320.58984375 9.740234375 286.4296875 0 250 0 c 0
 213.5703125 0 179.41015625 9.740234375 150 26.759765625 c 0
 90.2197265625 61.33984375 50 125.969726562 50 200 c 2
 50 790 l 1
 150 790 l 1
 150 200 l 2
 150 144.76953125 194.76953125 100 250 100 c 0
 305.23046875 100 350 144.76953125 350 200 c 2
EndSplineSet
Validated: 1
EndChar

StartChar: Uacute
Encoding: 218 218 151
Width: 500
Flags: MW
LayerCount: 2
Fore
SplineSet
175 835 m 1
 225 1000 l 1
 325 1000 l 1
 275 835 l 1
 175 835 l 1
350 200 m 2
 350 790 l 1
 450 790 l 1
 450 200 l 2
 450 125.969726562 409.780273438 61.33984375 350 26.759765625 c 0
 320.58984375 9.740234375 286.4296875 0 250 0 c 0
 213.5703125 0 179.41015625 9.740234375 150 26.759765625 c 0
 90.2197265625 61.33984375 50 125.969726562 50 200 c 2
 50 790 l 1
 150 790 l 1
 150 200 l 2
 150 144.76953125 194.76953125 100 250 100 c 0
 305.23046875 100 350 144.76953125 350 200 c 2
EndSplineSet
Validated: 1
EndChar

StartChar: Ucircumflex
Encoding: 219 219 152
Width: 500
Flags: MW
LayerCount: 2
Fore
SplineSet
350 825 m 1
 250 900 l 1
 150 825 l 1
 150 925 l 1
 250 1000 l 1
 350 925 l 1
 350 825 l 1
350 200 m 2
 350 790 l 1
 450 790 l 1
 450 200 l 2
 450 125.969726562 409.780273438 61.33984375 350 26.759765625 c 0
 320.58984375 9.740234375 286.4296875 0 250 0 c 0
 213.5703125 0 179.41015625 9.740234375 150 26.759765625 c 0
 90.2197265625 61.33984375 50 125.969726562 50 200 c 2
 50 790 l 1
 150 790 l 1
 150 200 l 2
 150 144.76953125 194.76953125 100 250 100 c 0
 305.23046875 100 350 144.76953125 350 200 c 2
EndSplineSet
Validated: 1
EndChar

StartChar: Udieresis
Encoding: 220 220 153
Width: 500
Flags: MW
LayerCount: 2
Fore
SplineSet
115 917.5 m 0
 115 947.875976562 139.624023438 972.5 170 972.5 c 0
 200.375976562 972.5 225 947.875976562 225 917.5 c 0
 225 887.124023438 200.375976562 862.5 170 862.5 c 0
 139.624023438 862.5 115 887.124023438 115 917.5 c 0
275 917.5 m 0
 275 947.875976562 299.624023438 972.5 330 972.5 c 0
 360.375976562 972.5 385 947.875976562 385 917.5 c 0
 385 887.124023438 360.375976562 862.5 330 862.5 c 0
 299.624023438 862.5 275 887.124023438 275 917.5 c 0
150 26.759765625 m 0
 90.2197265625 61.33984375 50 125.969726562 50 200 c 2
 50 790 l 1
 150 790 l 1
 150 200 l 2
 150 144.76953125 194.76953125 100 250 100 c 0
 305.23046875 100 350 144.76953125 350 200 c 2
 350 790 l 1
 450 790 l 1
 450 200 l 2
 450 125.969726562 409.780273438 61.33984375 350 26.759765625 c 0
 320.58984375 9.740234375 286.4296875 0 250 0 c 0
 213.5703125 0 179.41015625 9.740234375 150 26.759765625 c 0
EndSplineSet
Validated: 1
EndChar

StartChar: Yacute
Encoding: 221 221 154
Width: 500
Flags: MW
LayerCount: 2
Fore
SplineSet
325 1000 m 1
 275 835 l 1
 175 835 l 1
 225 1000 l 1
 325 1000 l 1
300 643.330078125 m 1
 350 790 l 1
 450 790 l 1
 300 350 l 1
 300 10 l 1
 200 10 l 1
 200 350 l 1
 50 790 l 1
 150 790 l 1
 200 643.330078125 l 1
 250 496.669921875 l 1
 300 643.330078125 l 1
EndSplineSet
Validated: 1
EndChar

StartChar: Thorn
Encoding: 222 222 155
Width: 500
Flags: MW
LayerCount: 2
Fore
SplineSet
250 450 m 2
 324.030273438 450 388.66015625 409.780273438 423.240234375 350 c 0
 440.259765625 320.58984375 450 286.4296875 450 250 c 0
 450 213.5703125 440.259765625 179.41015625 423.240234375 150 c 0
 388.66015625 90.2197265625 324.030273438 50 250 50 c 2
 150 50 l 1
 150 10 l 1
 50 10 l 1
 50 490 l 1
 150 490 l 1
 150 450 l 1
 250 450 l 2
250 150 m 2
 305.23046875 150 350 194.76953125 350 250 c 0
 350 305.23046875 305.23046875 350 250 350 c 2
 150 350 l 1
 150 150 l 1
 250 150 l 2
EndSplineSet
Validated: 1
EndChar

StartChar: germandbls
Encoding: 223 223 156
Width: 500
Flags: MW
LayerCount: 2
Fore
SplineSet
350 773.240234375 m 0
 380.360351562 755.6796875 405.6796875 730.360351562 423.240234375 700 c 0
 440.259765625 670.58984375 450 636.4296875 450 600 c 2
 450 590 l 2
 450 553.5703125 440.259765625 519.41015625 423.240234375 490 c 0
 412.360351562 471.1796875 398.490234375 454.299804688 382.290039062 440 c 1
 398.490234375 425.700195312 412.360351562 408.8203125 423.240234375 390 c 0
 440.259765625 360.58984375 450 326.4296875 450 290 c 2
 450 200 l 2
 450 163.5703125 440.259765625 129.41015625 423.240234375 100 c 0
 405.6796875 69.6396484375 380.360351562 44.3203125 350 26.759765625 c 0
 320.58984375 9.740234375 286.4296875 0 250 0 c 1
 250 100 l 1
 305.23046875 100 350 144.76953125 350 200 c 2
 350 290 l 2
 350 345.23046875 305.23046875 390 250 390 c 1
 250 490 l 1
 305.23046875 490 350 534.76953125 350 590 c 2
 350 600 l 2
 350 655.23046875 305.23046875 700 250 700 c 0
 194.76953125 700 150 655.23046875 150 600 c 2
 150 10 l 1
 50 10 l 1
 50 600 l 2
 50 636.4296875 59.740234375 670.58984375 76.759765625 700 c 0
 94.3203125 730.360351562 119.639648438 755.6796875 150 773.240234375 c 0
 179.41015625 790.259765625 213.5703125 800 250 800 c 0
 286.4296875 800 320.58984375 790.259765625 350 773.240234375 c 0
EndSplineSet
Validated: 1
EndChar

StartChar: agrave
Encoding: 224 224 157
Width: 500
Flags: MW
LayerCount: 2
Fore
SplineSet
275 700 m 1
 325 535 l 1
 225 535 l 1
 175 700 l 1
 275 700 l 1
350 473.240234375 m 1
 350 490 l 1
 450 490 l 1
 450 300 l 1
 450 200 l 1
 450 10 l 1
 350 10 l 1
 350 26.759765625 l 1
 320.58984375 9.740234375 286.4296875 0 250 0 c 0
 213.5703125 0 179.41015625 9.740234375 150 26.759765625 c 0
 119.639648438 44.3203125 94.3203125 69.6396484375 76.759765625 100 c 0
 59.740234375 129.41015625 50 163.5703125 50 200 c 2
 50 300 l 2
 50 336.4296875 59.740234375 370.58984375 76.759765625 400 c 0
 94.3203125 430.360351562 119.639648438 455.6796875 150 473.240234375 c 0
 179.41015625 490.259765625 213.5703125 500 250 500 c 0
 286.4296875 500 320.58984375 490.259765625 350 473.240234375 c 1
250 100 m 0
 305.23046875 100 350 144.76953125 350 200 c 2
 350 300 l 2
 350 355.23046875 305.23046875 400 250 400 c 0
 194.76953125 400 150 355.23046875 150 300 c 2
 150 200 l 2
 150 144.76953125 194.76953125 100 250 100 c 0
EndSplineSet
Validated: 1
EndChar

StartChar: aacute
Encoding: 225 225 158
Width: 500
Flags: MW
LayerCount: 2
Fore
SplineSet
325 700 m 1
 275 535 l 1
 175 535 l 1
 225 700 l 1
 325 700 l 1
350 473.240234375 m 1
 350 490 l 1
 450 490 l 1
 450 300 l 1
 450 200 l 1
 450 10 l 1
 350 10 l 1
 350 26.759765625 l 1
 320.58984375 9.740234375 286.4296875 0 250 0 c 0
 213.5703125 0 179.41015625 9.740234375 150 26.759765625 c 0
 119.639648438 44.3203125 94.3203125 69.6396484375 76.759765625 100 c 0
 59.740234375 129.41015625 50 163.5703125 50 200 c 2
 50 300 l 2
 50 336.4296875 59.740234375 370.58984375 76.759765625 400 c 0
 94.3203125 430.360351562 119.639648438 455.6796875 150 473.240234375 c 0
 179.41015625 490.259765625 213.5703125 500 250 500 c 0
 286.4296875 500 320.58984375 490.259765625 350 473.240234375 c 1
250 100 m 0
 305.23046875 100 350 144.76953125 350 200 c 2
 350 300 l 2
 350 355.23046875 305.23046875 400 250 400 c 0
 194.76953125 400 150 355.23046875 150 300 c 2
 150 200 l 2
 150 144.76953125 194.76953125 100 250 100 c 0
EndSplineSet
Validated: 1
EndChar

StartChar: acircumflex
Encoding: 226 226 159
Width: 500
Flags: MW
LayerCount: 2
Fore
SplineSet
351.059570312 525 m 1
 251.059570312 600 l 1
 151.059570312 525 l 1
 151.059570312 625 l 1
 251.059570312 700 l 1
 351.059570312 625 l 1
 351.059570312 525 l 1
350 473.240234375 m 1
 350 490 l 1
 450 490 l 1
 450 300 l 1
 450 200 l 1
 450 10 l 1
 350 10 l 1
 350 26.759765625 l 1
 320.58984375 9.740234375 286.4296875 0 250 0 c 0
 213.5703125 0 179.41015625 9.740234375 150 26.759765625 c 0
 119.639648438 44.3203125 94.3203125 69.6396484375 76.759765625 100 c 0
 59.740234375 129.41015625 50 163.5703125 50 200 c 2
 50 300 l 2
 50 336.4296875 59.740234375 370.58984375 76.759765625 400 c 0
 94.3203125 430.360351562 119.639648438 455.6796875 150 473.240234375 c 0
 179.41015625 490.259765625 213.5703125 500 250 500 c 0
 286.4296875 500 320.58984375 490.259765625 350 473.240234375 c 1
250 100 m 0
 305.23046875 100 350 144.76953125 350 200 c 2
 350 300 l 2
 350 355.23046875 305.23046875 400 250 400 c 0
 194.76953125 400 150 355.23046875 150 300 c 2
 150 200 l 2
 150 144.76953125 194.76953125 100 250 100 c 0
EndSplineSet
Validated: 1
EndChar

StartChar: atilde
Encoding: 227 227 160
Width: 500
Flags: MW
LayerCount: 2
Fore
SplineSet
197.5 630 m 0
 187.83984375 630 180 622.16015625 180 612.5 c 1
 110 612.5 l 1
 110 660.8203125 149.1796875 700 197.5 700 c 0
 217.200195312 700 235.379882812 693.490234375 250 682.5 c 0
 271.259765625 666.540039062 285 641.120117188 285 612.5 c 0
 285 602.83984375 292.83984375 595 302.5 595 c 0
 312.169921875 595 320 602.83984375 320 612.5 c 1
 390 612.5 l 1
 390 564.1796875 350.830078125 525 302.5 525 c 0
 282.799804688 525 264.620117188 531.509765625 250 542.5 c 0
 228.75 558.459960938 215 583.879882812 215 612.5 c 0
 215 622.16015625 207.169921875 630 197.5 630 c 0
350 473.240234375 m 1
 350 490 l 1
 450 490 l 1
 450 300 l 1
 450 200 l 1
 450 10 l 1
 350 10 l 1
 350 26.759765625 l 1
 320.58984375 9.740234375 286.4296875 0 250 0 c 0
 213.5703125 0 179.41015625 9.740234375 150 26.759765625 c 0
 119.639648438 44.3203125 94.3203125 69.6396484375 76.759765625 100 c 0
 59.740234375 129.41015625 50 163.5703125 50 200 c 2
 50 300 l 2
 50 336.4296875 59.740234375 370.58984375 76.759765625 400 c 0
 94.3203125 430.360351562 119.639648438 455.6796875 150 473.240234375 c 0
 179.41015625 490.259765625 213.5703125 500 250 500 c 0
 286.4296875 500 320.58984375 490.259765625 350 473.240234375 c 1
250 100 m 0
 305.23046875 100 350 144.76953125 350 200 c 2
 350 300 l 2
 350 355.23046875 305.23046875 400 250 400 c 0
 194.76953125 400 150 355.23046875 150 300 c 2
 150 200 l 2
 150 144.76953125 194.76953125 100 250 100 c 0
EndSplineSet
Validated: 1
EndChar

StartChar: adieresis
Encoding: 228 228 161
Width: 500
Flags: MW
LayerCount: 2
Fore
SplineSet
115 617.5 m 0
 115 647.875976562 139.624023438 672.5 170 672.5 c 0
 200.375976562 672.5 225 647.875976562 225 617.5 c 0
 225 587.124023438 200.375976562 562.5 170 562.5 c 0
 139.624023438 562.5 115 587.124023438 115 617.5 c 0
275 617.5 m 0
 275 647.875976562 299.624023438 672.5 330 672.5 c 0
 360.375976562 672.5 385 647.875976562 385 617.5 c 0
 385 587.124023438 360.375976562 562.5 330 562.5 c 0
 299.624023438 562.5 275 587.124023438 275 617.5 c 0
350 473.240234375 m 1
 350 490 l 1
 450 490 l 1
 450 300 l 1
 450 200 l 1
 450 10 l 1
 350 10 l 1
 350 26.759765625 l 1
 320.58984375 9.740234375 286.4296875 0 250 0 c 0
 213.5703125 0 179.41015625 9.740234375 150 26.759765625 c 0
 119.639648438 44.3203125 94.3203125 69.6396484375 76.759765625 100 c 0
 59.740234375 129.41015625 50 163.5703125 50 200 c 2
 50 300 l 2
 50 336.4296875 59.740234375 370.58984375 76.759765625 400 c 0
 94.3203125 430.360351562 119.639648438 455.6796875 150 473.240234375 c 0
 179.41015625 490.259765625 213.5703125 500 250 500 c 0
 286.4296875 500 320.58984375 490.259765625 350 473.240234375 c 1
250 100 m 0
 305.23046875 100 350 144.76953125 350 200 c 2
 350 300 l 2
 350 355.23046875 305.23046875 400 250 400 c 0
 194.76953125 400 150 355.23046875 150 300 c 2
 150 200 l 2
 150 144.76953125 194.76953125 100 250 100 c 0
EndSplineSet
Validated: 1
EndChar

StartChar: aring
Encoding: 229 229 162
Width: 500
Flags: MW
LayerCount: 2
Fore
SplineSet
337.5 612.5 m 0
 337.5 564.1796875 298.3203125 525 250 525 c 0
 201.6796875 525 162.5 564.1796875 162.5 612.5 c 0
 162.5 660.8203125 201.6796875 700 250 700 c 0
 298.3203125 700 337.5 660.8203125 337.5 612.5 c 0
225 612.5 m 0
 225 598.690429688 236.190429688 587.5 250 587.5 c 0
 263.809570312 587.5 275 598.690429688 275 612.5 c 0
 275 626.309570312 263.809570312 637.5 250 637.5 c 0
 236.190429688 637.5 225 626.309570312 225 612.5 c 0
350 473.240234375 m 1
 350 490 l 1
 450 490 l 1
 450 300 l 1
 450 200 l 1
 450 10 l 1
 350 10 l 1
 350 26.759765625 l 1
 320.58984375 9.740234375 286.4296875 0 250 0 c 0
 213.5703125 0 179.41015625 9.740234375 150 26.759765625 c 0
 119.639648438 44.3203125 94.3203125 69.6396484375 76.759765625 100 c 0
 59.740234375 129.41015625 50 163.5703125 50 200 c 2
 50 300 l 2
 50 336.4296875 59.740234375 370.58984375 76.759765625 400 c 0
 94.3203125 430.360351562 119.639648438 455.6796875 150 473.240234375 c 0
 179.41015625 490.259765625 213.5703125 500 250 500 c 0
 286.4296875 500 320.58984375 490.259765625 350 473.240234375 c 1
250 100 m 0
 305.23046875 100 350 144.76953125 350 200 c 2
 350 300 l 2
 350 355.23046875 305.23046875 400 250 400 c 0
 194.76953125 400 150 355.23046875 150 300 c 2
 150 200 l 2
 150 144.76953125 194.76953125 100 250 100 c 0
EndSplineSet
Validated: 1
EndChar

StartChar: ae
Encoding: 230 230 163
Width: 800
Flags: MW
LayerCount: 2
Fore
SplineSet
650 473.240234375 m 0
 680.360351562 455.6796875 705.6796875 430.360351562 723.240234375 400 c 0
 740.259765625 370.58984375 750 336.4296875 750 300 c 2
 750 200 l 1
 739 200 l 1
 650 200 l 1
 450 200 l 1
 450 144.76953125 494.76953125 100 550 100 c 0
 587.01953125 100 619.330078125 120.110351562 636.620117188 150 c 1
 743.700195312 150 l 1
 739.129882812 132.259765625 732.190429688 115.469726562 723.240234375 100 c 0
 705.6796875 69.6396484375 680.360351562 44.3203125 650 26.759765625 c 0
 620.58984375 9.740234375 586.4296875 0 550 0 c 0
 513.5703125 0 479.41015625 9.740234375 450 26.759765625 c 1
 450 10 l 1
 350 10 l 1
 350 26.759765625 l 1
 320.58984375 9.740234375 286.4296875 0 250 0 c 0
 213.5703125 0 179.41015625 9.740234375 150 26.759765625 c 0
 119.639648438 44.3203125 94.3203125 69.6396484375 76.759765625 100 c 0
 59.740234375 129.41015625 50 163.5703125 50 200 c 2
 50 300 l 2
 50 336.4296875 59.740234375 370.58984375 76.759765625 400 c 0
 94.3203125 430.360351562 119.639648438 455.6796875 150 473.240234375 c 0
 179.41015625 490.259765625 213.5703125 500 250 500 c 0
 286.4296875 500 320.58984375 490.259765625 350 473.240234375 c 1
 350 490 l 1
 450 490 l 1
 450 473.240234375 l 1
 479.41015625 490.259765625 513.5703125 500 550 500 c 0
 586.4296875 500 620.58984375 490.259765625 650 473.240234375 c 0
250 100 m 0
 305.23046875 100 350 144.76953125 350 200 c 2
 350 300 l 2
 350 355.23046875 305.23046875 400 250 400 c 0
 194.76953125 400 150 355.23046875 150 300 c 2
 150 200 l 2
 150 144.76953125 194.76953125 100 250 100 c 0
450 300 m 1
 650 300 l 1
 650 355.23046875 605.23046875 400 550 400 c 0
 494.76953125 400 450 355.23046875 450 300 c 1
EndSplineSet
Validated: 1
EndChar

StartChar: ccedilla
Encoding: 231 231 164
Width: 500
Flags: MW
LayerCount: 2
Fore
SplineSet
250 400 m 0
 194.76953125 400 150 355.23046875 150 300 c 2
 150 200 l 2
 150 144.76953125 194.76953125 100 250 100 c 0
 305.23046875 100 350 144.76953125 350 200 c 1
 450 200 l 1
 450 163.5703125 440.259765625 129.41015625 423.240234375 100 c 0
 405.6796875 69.6396484375 380.360351562 44.3203125 350 26.759765625 c 0
 334.530273438 17.7998046875 317.740234375 10.8701171875 300 6.2998046875 c 1
 300 -100 l 1
 200 -100 l 1
 200 6.2998046875 l 1
 182.259765625 10.8701171875 165.469726562 17.8095703125 150 26.759765625 c 0
 119.639648438 44.3203125 94.3203125 69.6396484375 76.759765625 100 c 0
 59.740234375 129.41015625 50 163.5703125 50 200 c 2
 50 300 l 2
 50 336.4296875 59.740234375 370.58984375 76.759765625 400 c 0
 94.3203125 430.360351562 119.639648438 455.6796875 150 473.240234375 c 0
 179.41015625 490.259765625 213.5703125 500 250 500 c 0
 286.4296875 500 320.58984375 490.259765625 350 473.240234375 c 0
 380.360351562 455.6796875 405.6796875 430.360351562 423.240234375 400 c 0
 440.259765625 370.58984375 450 336.4296875 450 300 c 1
 350 300 l 1
 350 355.23046875 305.23046875 400 250 400 c 0
EndSplineSet
Validated: 1
EndChar

StartChar: egrave
Encoding: 232 232 165
Width: 500
Flags: MW
LayerCount: 2
Fore
SplineSet
275 700 m 1
 325 535 l 1
 225 535 l 1
 175 700 l 1
 275 700 l 1
350 473.240234375 m 0
 380.360351562 455.6796875 405.6796875 430.360351562 423.240234375 400 c 0
 440.259765625 370.58984375 450 336.4296875 450 300 c 2
 450 200 l 1
 439 200 l 1
 350 200 l 1
 150 200 l 1
 150 144.76953125 194.76953125 100 250 100 c 0
 287.01953125 100 319.330078125 120.110351562 336.620117188 150 c 1
 443.700195312 150 l 1
 439.129882812 132.259765625 432.190429688 115.469726562 423.240234375 100 c 0
 405.6796875 69.6396484375 380.360351562 44.3203125 350 26.759765625 c 0
 320.58984375 9.740234375 286.4296875 0 250 0 c 0
 213.5703125 0 179.41015625 9.740234375 150 26.759765625 c 0
 119.639648438 44.3203125 94.3203125 69.6396484375 76.759765625 100 c 0
 59.740234375 129.41015625 50 163.5703125 50 200 c 2
 50 300 l 2
 50 336.4296875 59.740234375 370.58984375 76.759765625 400 c 0
 94.3203125 430.360351562 119.639648438 455.6796875 150 473.240234375 c 0
 179.41015625 490.259765625 213.5703125 500 250 500 c 0
 286.4296875 500 320.58984375 490.259765625 350 473.240234375 c 0
150 300 m 1
 350 300 l 1
 350 355.23046875 305.23046875 400 250 400 c 0
 194.76953125 400 150 355.23046875 150 300 c 1
EndSplineSet
Validated: 1
EndChar

StartChar: eacute
Encoding: 233 233 166
Width: 500
Flags: MW
LayerCount: 2
Fore
SplineSet
325 700 m 1
 275 535 l 1
 175 535 l 1
 225 700 l 1
 325 700 l 1
350 473.240234375 m 0
 380.360351562 455.6796875 405.6796875 430.360351562 423.240234375 400 c 0
 440.259765625 370.58984375 450 336.4296875 450 300 c 2
 450 200 l 1
 439 200 l 1
 350 200 l 1
 150 200 l 1
 150 144.76953125 194.76953125 100 250 100 c 0
 287.01953125 100 319.330078125 120.110351562 336.620117188 150 c 1
 443.700195312 150 l 1
 439.129882812 132.259765625 432.190429688 115.469726562 423.240234375 100 c 0
 405.6796875 69.6396484375 380.360351562 44.3203125 350 26.759765625 c 0
 320.58984375 9.740234375 286.4296875 0 250 0 c 0
 213.5703125 0 179.41015625 9.740234375 150 26.759765625 c 0
 119.639648438 44.3203125 94.3203125 69.6396484375 76.759765625 100 c 0
 59.740234375 129.41015625 50 163.5703125 50 200 c 2
 50 300 l 2
 50 336.4296875 59.740234375 370.58984375 76.759765625 400 c 0
 94.3203125 430.360351562 119.639648438 455.6796875 150 473.240234375 c 0
 179.41015625 490.259765625 213.5703125 500 250 500 c 0
 286.4296875 500 320.58984375 490.259765625 350 473.240234375 c 0
150 300 m 1
 350 300 l 1
 350 355.23046875 305.23046875 400 250 400 c 0
 194.76953125 400 150 355.23046875 150 300 c 1
EndSplineSet
Validated: 1
EndChar

StartChar: ecircumflex
Encoding: 234 234 167
Width: 500
Flags: MW
LayerCount: 2
Fore
SplineSet
350 525.540039062 m 1
 250 600.540039062 l 1
 150 525.540039062 l 1
 150 625.540039062 l 1
 250 700.540039062 l 1
 350 625.540039062 l 1
 350 525.540039062 l 1
350 473.240234375 m 0
 380.360351562 455.6796875 405.6796875 430.360351562 423.240234375 400 c 0
 440.259765625 370.58984375 450 336.4296875 450 300 c 2
 450 200 l 1
 439 200 l 1
 350 200 l 1
 150 200 l 1
 150 144.76953125 194.76953125 100 250 100 c 0
 287.01953125 100 319.330078125 120.110351562 336.620117188 150 c 1
 443.700195312 150 l 1
 439.129882812 132.259765625 432.190429688 115.469726562 423.240234375 100 c 0
 405.6796875 69.6396484375 380.360351562 44.3203125 350 26.759765625 c 0
 320.58984375 9.740234375 286.4296875 0 250 0 c 0
 213.5703125 0 179.41015625 9.740234375 150 26.759765625 c 0
 119.639648438 44.3203125 94.3203125 69.6396484375 76.759765625 100 c 0
 59.740234375 129.41015625 50 163.5703125 50 200 c 2
 50 300 l 2
 50 336.4296875 59.740234375 370.58984375 76.759765625 400 c 0
 94.3203125 430.360351562 119.639648438 455.6796875 150 473.240234375 c 0
 179.41015625 490.259765625 213.5703125 500 250 500 c 0
 286.4296875 500 320.58984375 490.259765625 350 473.240234375 c 0
150 300 m 1
 350 300 l 1
 350 355.23046875 305.23046875 400 250 400 c 0
 194.76953125 400 150 355.23046875 150 300 c 1
EndSplineSet
Validated: 1
EndChar

StartChar: edieresis
Encoding: 235 235 168
Width: 500
Flags: MW
LayerCount: 2
Fore
SplineSet
115 617.5 m 0
 115 647.875976562 139.624023438 672.5 170 672.5 c 0
 200.375976562 672.5 225 647.875976562 225 617.5 c 0
 225 587.124023438 200.375976562 562.5 170 562.5 c 0
 139.624023438 562.5 115 587.124023438 115 617.5 c 0
275 617.5 m 0
 275 647.875976562 299.624023438 672.5 330 672.5 c 0
 360.375976562 672.5 385 647.875976562 385 617.5 c 0
 385 587.124023438 360.375976562 562.5 330 562.5 c 0
 299.624023438 562.5 275 587.124023438 275 617.5 c 0
350 473.240234375 m 0
 380.360351562 455.6796875 405.6796875 430.360351562 423.240234375 400 c 0
 440.259765625 370.58984375 450 336.4296875 450 300 c 2
 450 200 l 1
 439 200 l 1
 350 200 l 1
 150 200 l 1
 150 144.76953125 194.76953125 100 250 100 c 0
 287.01953125 100 319.330078125 120.110351562 336.620117188 150 c 1
 443.700195312 150 l 1
 439.129882812 132.259765625 432.190429688 115.469726562 423.240234375 100 c 0
 405.6796875 69.6396484375 380.360351562 44.3203125 350 26.759765625 c 0
 320.58984375 9.740234375 286.4296875 0 250 0 c 0
 213.5703125 0 179.41015625 9.740234375 150 26.759765625 c 0
 119.639648438 44.3203125 94.3203125 69.6396484375 76.759765625 100 c 0
 59.740234375 129.41015625 50 163.5703125 50 200 c 2
 50 300 l 2
 50 336.4296875 59.740234375 370.58984375 76.759765625 400 c 0
 94.3203125 430.360351562 119.639648438 455.6796875 150 473.240234375 c 0
 179.41015625 490.259765625 213.5703125 500 250 500 c 0
 286.4296875 500 320.58984375 490.259765625 350 473.240234375 c 0
150 300 m 1
 350 300 l 1
 350 355.23046875 305.23046875 400 250 400 c 0
 194.76953125 400 150 355.23046875 150 300 c 1
EndSplineSet
Validated: 1
EndChar

StartChar: igrave
Encoding: 236 236 169
Width: 250
Flags: MW
LayerCount: 2
Fore
SplineSet
50 700 m 1
 150 700 l 1
 200 535 l 1
 100 535 l 1
 50 700 l 1
75 10 m 1
 75 490 l 1
 175 490 l 1
 175 10 l 1
 75 10 l 1
EndSplineSet
Validated: 1
EndChar

StartChar: iacute
Encoding: 237 237 170
Width: 250
Flags: MW
LayerCount: 2
Fore
SplineSet
100 700 m 1
 200 700 l 1
 150 535 l 1
 50 535 l 1
 100 700 l 1
75 10 m 1
 75 490 l 1
 175 490 l 1
 175 10 l 1
 75 10 l 1
EndSplineSet
Validated: 1
EndChar

StartChar: icircumflex
Encoding: 238 238 171
Width: 300
Flags: MW
LayerCount: 2
Fore
SplineSet
250 625.540039062 m 1
 250 525.540039062 l 1
 150 600.540039062 l 1
 50 525.540039062 l 1
 50 625.540039062 l 1
 150 700.540039062 l 1
 250 625.540039062 l 1
100 10 m 1
 100 490 l 1
 200 490 l 1
 200 10 l 1
 100 10 l 1
EndSplineSet
Validated: 1
EndChar

StartChar: idieresis
Encoding: 239 239 172
Width: 370
Flags: MW
LayerCount: 2
Fore
SplineSet
50 617.5 m 0
 50 647.875976562 74.6240234375 672.5 105 672.5 c 0
 135.375976562 672.5 160 647.875976562 160 617.5 c 0
 160 587.124023438 135.375976562 562.5 105 562.5 c 0
 74.6240234375 562.5 50 587.124023438 50 617.5 c 0
210 617.5 m 0
 210 647.875976562 234.624023438 672.5 265 672.5 c 0
 295.375976562 672.5 320 647.875976562 320 617.5 c 0
 320 587.124023438 295.375976562 562.5 265 562.5 c 0
 234.624023438 562.5 210 587.124023438 210 617.5 c 0
135 10 m 1
 135 490 l 1
 235 490 l 1
 235 10 l 1
 135 10 l 1
EndSplineSet
Validated: 1
EndChar

StartChar: eth
Encoding: 240 240 173
Width: 550
Flags: MW
LayerCount: 2
Fore
SplineSet
449.91015625 790 m 1
 449.91015625 650 l 1
 500.08984375 650 l 1
 500.08984375 550 l 1
 449.91015625 550 l 1
 449.91015625 300 l 1
 449.91015625 200 l 1
 449.91015625 10 l 1
 349.91015625 10 l 1
 349.91015625 26.759765625 l 1
 320.5 9.740234375 286.33984375 0 249.91015625 0 c 0
 213.48046875 0 179.3203125 9.740234375 149.91015625 26.759765625 c 0
 119.549804688 44.3203125 94.23046875 69.6396484375 76.669921875 100 c 0
 59.650390625 129.41015625 49.91015625 163.5703125 49.91015625 200 c 2
 49.91015625 300 l 2
 49.91015625 336.4296875 59.650390625 370.58984375 76.669921875 400 c 0
 94.23046875 430.360351562 119.549804688 455.6796875 149.91015625 473.240234375 c 0
 179.3203125 490.259765625 213.48046875 500 249.91015625 500 c 0
 286.33984375 500 320.5 490.259765625 349.91015625 473.240234375 c 1
 349.91015625 550 l 1
 300.08984375 550 l 1
 300.08984375 650 l 1
 349.91015625 650 l 1
 349.91015625 790 l 1
 449.91015625 790 l 1
249.91015625 100 m 0
 305.140625 100 349.91015625 144.76953125 349.91015625 200 c 2
 349.91015625 300 l 2
 349.91015625 355.23046875 305.140625 400 249.91015625 400 c 0
 194.6796875 400 149.91015625 355.23046875 149.91015625 300 c 2
 149.91015625 200 l 2
 149.91015625 144.76953125 194.6796875 100 249.91015625 100 c 0
EndSplineSet
Validated: 524289
EndChar

StartChar: ntilde
Encoding: 241 241 174
Width: 500
Flags: MW
LayerCount: 2
Fore
SplineSet
197.5 630 m 0
 187.83984375 630 180 622.16015625 180 612.5 c 1
 110 612.5 l 1
 110 660.8203125 149.1796875 700 197.5 700 c 0
 217.200195312 700 235.379882812 693.490234375 250 682.5 c 0
 271.259765625 666.540039062 285 641.120117188 285 612.5 c 0
 285 602.83984375 292.83984375 595 302.5 595 c 0
 312.169921875 595 320 602.83984375 320 612.5 c 1
 390 612.5 l 1
 390 564.1796875 350.830078125 525 302.5 525 c 0
 282.799804688 525 264.620117188 531.509765625 250 542.5 c 0
 228.75 558.459960938 215 583.879882812 215 612.5 c 0
 215 622.16015625 207.169921875 630 197.5 630 c 0
350 473.240234375 m 0
 409.780273438 438.66015625 450 374.030273438 450 300 c 2
 450 10 l 1
 350 10 l 1
 350 300 l 2
 350 355.23046875 305.23046875 400 250 400 c 0
 194.76953125 400 150 355.23046875 150 300 c 2
 150 10 l 1
 50 10 l 1
 50 300 l 1
 50 490 l 1
 150 490 l 1
 150 473.240234375 l 1
 179.41015625 490.259765625 213.5703125 500 250 500 c 0
 286.4296875 500 320.58984375 490.259765625 350 473.240234375 c 0
EndSplineSet
Validated: 1
EndChar

StartChar: ograve
Encoding: 242 242 175
Width: 500
Flags: MW
LayerCount: 2
Fore
SplineSet
275 700 m 1
 325 535 l 1
 225 535 l 1
 175 700 l 1
 275 700 l 1
350 473.240234375 m 0
 380.360351562 455.6796875 405.6796875 430.360351562 423.240234375 400 c 0
 440.259765625 370.58984375 450 336.4296875 450 300 c 2
 450 200 l 2
 450 182.73046875 447.809570312 165.98046875 443.690429688 150 c 0
 439.129882812 132.259765625 432.190429688 115.469726562 423.240234375 100 c 0
 405.6796875 69.6396484375 380.360351562 44.3203125 350 26.759765625 c 0
 320.610351562 9.75 286.469726562 0.009765625 250.059570312 0 c 2
 250 0 l 2
 213.5703125 0 179.41015625 9.740234375 150 26.759765625 c 0
 119.639648438 44.3203125 94.3203125 69.6396484375 76.759765625 100 c 0
 67.8095703125 115.469726562 60.8701171875 132.259765625 56.3095703125 150 c 0
 52.1904296875 165.98046875 50 182.73046875 50 200 c 2
 50 300 l 2
 50 336.4296875 59.740234375 370.58984375 76.759765625 400 c 0
 94.3203125 430.360351562 119.639648438 455.6796875 150 473.240234375 c 0
 179.41015625 490.259765625 213.5703125 500 250 500 c 0
 286.4296875 500 320.58984375 490.259765625 350 473.240234375 c 0
350 200 m 2
 350 300 l 2
 350 355.23046875 305.23046875 400 250 400 c 0
 194.76953125 400 150 355.23046875 150 300 c 2
 150 200 l 2
 150 181.780273438 154.870117188 164.709960938 163.379882812 150 c 0
 180.669921875 120.110351562 212.98046875 100 250 100 c 0
 287.01953125 100 319.330078125 120.110351562 336.620117188 150 c 0
 345.129882812 164.709960938 350 181.780273438 350 200 c 2
EndSplineSet
Validated: 1
EndChar

StartChar: oacute
Encoding: 243 243 176
Width: 500
Flags: MW
LayerCount: 2
Fore
SplineSet
325 700 m 1
 275 535 l 1
 175 535 l 1
 225 700 l 1
 325 700 l 1
350 473.240234375 m 0
 380.360351562 455.6796875 405.6796875 430.360351562 423.240234375 400 c 0
 440.259765625 370.58984375 450 336.4296875 450 300 c 2
 450 200 l 2
 450 182.73046875 447.809570312 165.98046875 443.690429688 150 c 0
 439.129882812 132.259765625 432.190429688 115.469726562 423.240234375 100 c 0
 405.6796875 69.6396484375 380.360351562 44.3203125 350 26.759765625 c 0
 320.610351562 9.75 286.469726562 0.009765625 250.059570312 0 c 2
 250 0 l 2
 213.5703125 0 179.41015625 9.740234375 150 26.759765625 c 0
 119.639648438 44.3203125 94.3203125 69.6396484375 76.759765625 100 c 0
 67.8095703125 115.469726562 60.8701171875 132.259765625 56.3095703125 150 c 0
 52.1904296875 165.98046875 50 182.73046875 50 200 c 2
 50 300 l 2
 50 336.4296875 59.740234375 370.58984375 76.759765625 400 c 0
 94.3203125 430.360351562 119.639648438 455.6796875 150 473.240234375 c 0
 179.41015625 490.259765625 213.5703125 500 250 500 c 0
 286.4296875 500 320.58984375 490.259765625 350 473.240234375 c 0
350 200 m 2
 350 300 l 2
 350 355.23046875 305.23046875 400 250 400 c 0
 194.76953125 400 150 355.23046875 150 300 c 2
 150 200 l 2
 150 181.780273438 154.870117188 164.709960938 163.379882812 150 c 0
 180.669921875 120.110351562 212.98046875 100 250 100 c 0
 287.01953125 100 319.330078125 120.110351562 336.620117188 150 c 0
 345.129882812 164.709960938 350 181.780273438 350 200 c 2
EndSplineSet
Validated: 1
EndChar

StartChar: ocircumflex
Encoding: 244 244 177
Width: 500
Flags: MW
LayerCount: 2
Fore
SplineSet
350 525 m 1
 250 600 l 1
 150 525 l 1
 150 625 l 1
 250 700 l 1
 350 625 l 1
 350 525 l 1
350 473.240234375 m 0
 380.360351562 455.6796875 405.6796875 430.360351562 423.240234375 400 c 0
 440.259765625 370.58984375 450 336.4296875 450 300 c 2
 450 200 l 2
 450 182.73046875 447.809570312 165.98046875 443.690429688 150 c 0
 439.129882812 132.259765625 432.190429688 115.469726562 423.240234375 100 c 0
 405.6796875 69.6396484375 380.360351562 44.3203125 350 26.759765625 c 0
 320.610351562 9.75 286.469726562 0.009765625 250.059570312 0 c 2
 250 0 l 2
 213.5703125 0 179.41015625 9.740234375 150 26.759765625 c 0
 119.639648438 44.3203125 94.3203125 69.6396484375 76.759765625 100 c 0
 67.8095703125 115.469726562 60.8701171875 132.259765625 56.3095703125 150 c 0
 52.1904296875 165.98046875 50 182.73046875 50 200 c 2
 50 300 l 2
 50 336.4296875 59.740234375 370.58984375 76.759765625 400 c 0
 94.3203125 430.360351562 119.639648438 455.6796875 150 473.240234375 c 0
 179.41015625 490.259765625 213.5703125 500 250 500 c 0
 286.4296875 500 320.58984375 490.259765625 350 473.240234375 c 0
350 200 m 2
 350 300 l 2
 350 355.23046875 305.23046875 400 250 400 c 0
 194.76953125 400 150 355.23046875 150 300 c 2
 150 200 l 2
 150 181.780273438 154.870117188 164.709960938 163.379882812 150 c 0
 180.669921875 120.110351562 212.98046875 100 250 100 c 0
 287.01953125 100 319.330078125 120.110351562 336.620117188 150 c 0
 345.129882812 164.709960938 350 181.780273438 350 200 c 2
EndSplineSet
Validated: 1
EndChar

StartChar: otilde
Encoding: 245 245 178
Width: 500
Flags: MW
LayerCount: 2
Fore
SplineSet
197.5 630 m 0
 187.83984375 630 180 622.16015625 180 612.5 c 1
 110 612.5 l 1
 110 660.8203125 149.1796875 700 197.5 700 c 0
 217.200195312 700 235.379882812 693.490234375 250 682.5 c 0
 271.259765625 666.540039062 285 641.120117188 285 612.5 c 0
 285 602.83984375 292.83984375 595 302.5 595 c 0
 312.169921875 595 320 602.83984375 320 612.5 c 1
 390 612.5 l 1
 390 564.1796875 350.830078125 525 302.5 525 c 0
 282.799804688 525 264.620117188 531.509765625 250 542.5 c 0
 228.75 558.459960938 215 583.879882812 215 612.5 c 0
 215 622.16015625 207.169921875 630 197.5 630 c 0
350 473.240234375 m 0
 380.360351562 455.6796875 405.6796875 430.360351562 423.240234375 400 c 0
 440.259765625 370.58984375 450 336.4296875 450 300 c 2
 450 200 l 2
 450 182.73046875 447.809570312 165.98046875 443.690429688 150 c 0
 439.129882812 132.259765625 432.190429688 115.469726562 423.240234375 100 c 0
 405.6796875 69.6396484375 380.360351562 44.3203125 350 26.759765625 c 0
 320.610351562 9.75 286.469726562 0.009765625 250.059570312 0 c 2
 250 0 l 2
 213.5703125 0 179.41015625 9.740234375 150 26.759765625 c 0
 119.639648438 44.3203125 94.3203125 69.6396484375 76.759765625 100 c 0
 67.8095703125 115.469726562 60.8701171875 132.259765625 56.3095703125 150 c 0
 52.1904296875 165.98046875 50 182.73046875 50 200 c 2
 50 300 l 2
 50 336.4296875 59.740234375 370.58984375 76.759765625 400 c 0
 94.3203125 430.360351562 119.639648438 455.6796875 150 473.240234375 c 0
 179.41015625 490.259765625 213.5703125 500 250 500 c 0
 286.4296875 500 320.58984375 490.259765625 350 473.240234375 c 0
350 200 m 2
 350 300 l 2
 350 355.23046875 305.23046875 400 250 400 c 0
 194.76953125 400 150 355.23046875 150 300 c 2
 150 200 l 2
 150 181.780273438 154.870117188 164.709960938 163.379882812 150 c 0
 180.669921875 120.110351562 212.98046875 100 250 100 c 0
 287.01953125 100 319.330078125 120.110351562 336.620117188 150 c 0
 345.129882812 164.709960938 350 181.780273438 350 200 c 2
EndSplineSet
Validated: 1
EndChar

StartChar: odieresis
Encoding: 246 246 179
Width: 500
Flags: MW
LayerCount: 2
Fore
SplineSet
115 617.5 m 0
 115 647.875976562 139.624023438 672.5 170 672.5 c 0
 200.375976562 672.5 225 647.875976562 225 617.5 c 0
 225 587.124023438 200.375976562 562.5 170 562.5 c 0
 139.624023438 562.5 115 587.124023438 115 617.5 c 0
275 617.5 m 0
 275 647.875976562 299.624023438 672.5 330 672.5 c 0
 360.375976562 672.5 385 647.875976562 385 617.5 c 0
 385 587.124023438 360.375976562 562.5 330 562.5 c 0
 299.624023438 562.5 275 587.124023438 275 617.5 c 0
350 473.240234375 m 0
 380.360351562 455.6796875 405.6796875 430.360351562 423.240234375 400 c 0
 440.259765625 370.58984375 450 336.4296875 450 300 c 2
 450 200 l 2
 450 182.73046875 447.809570312 165.98046875 443.690429688 150 c 0
 439.129882812 132.259765625 432.190429688 115.469726562 423.240234375 100 c 0
 405.6796875 69.6396484375 380.360351562 44.3203125 350 26.759765625 c 0
 320.610351562 9.75 286.469726562 0.009765625 250.059570312 0 c 2
 250 0 l 2
 213.5703125 0 179.41015625 9.740234375 150 26.759765625 c 0
 119.639648438 44.3203125 94.3203125 69.6396484375 76.759765625 100 c 0
 67.8095703125 115.469726562 60.8701171875 132.259765625 56.3095703125 150 c 0
 52.1904296875 165.98046875 50 182.73046875 50 200 c 2
 50 300 l 2
 50 336.4296875 59.740234375 370.58984375 76.759765625 400 c 0
 94.3203125 430.360351562 119.639648438 455.6796875 150 473.240234375 c 0
 179.41015625 490.259765625 213.5703125 500 250 500 c 0
 286.4296875 500 320.58984375 490.259765625 350 473.240234375 c 0
350 200 m 2
 350 300 l 2
 350 355.23046875 305.23046875 400 250 400 c 0
 194.76953125 400 150 355.23046875 150 300 c 2
 150 200 l 2
 150 181.780273438 154.870117188 164.709960938 163.379882812 150 c 0
 180.669921875 120.110351562 212.98046875 100 250 100 c 0
 287.01953125 100 319.330078125 120.110351562 336.620117188 150 c 0
 345.129882812 164.709960938 350 181.780273438 350 200 c 2
EndSplineSet
Validated: 1
EndChar

StartChar: divide
Encoding: 247 247 180
Width: 500
Flags: MW
LayerCount: 2
Fore
SplineSet
50 290 m 1
 50 390 l 1
 450 390 l 1
 450 290 l 1
 50 290 l 1
195 495 m 0
 195 525.375976562 219.624023438 550 250 550 c 0
 280.375976562 550 305 525.375976562 305 495 c 0
 305 464.624023438 280.375976562 440 250 440 c 0
 219.624023438 440 195 464.624023438 195 495 c 0
195 185 m 0
 195 215.375976562 219.624023438 240 250 240 c 0
 280.375976562 240 305 215.375976562 305 185 c 0
 305 154.624023438 280.375976562 130 250 130 c 0
 219.624023438 130 195 154.624023438 195 185 c 0
EndSplineSet
Validated: 1
EndChar

StartChar: oslash
Encoding: 248 248 181
Width: 500
Flags: MW
LayerCount: 2
Fore
SplineSet
364.280273438 500 m 1
 450 448.5 l 1
 419.91015625 405.549804688 l 2
 421.049804688 403.719726562 422.16015625 401.870117188 423.240234375 400 c 0
 440.259765625 370.58984375 450 336.4296875 450 300 c 2
 450 200 l 2
 450 182.73046875 447.809570312 165.98046875 443.690429688 150 c 0
 439.129882812 132.259765625 432.190429688 115.469726562 423.240234375 100 c 0
 405.6796875 69.6396484375 380.360351562 44.3203125 350 26.759765625 c 0
 320.610351562 9.75 286.469726562 0.009765625 250.059570312 0 c 2
 250 0 l 2
 214.879882812 0 181.879882812 9.0498046875 153.200195312 24.9501953125 c 1
 135.719726562 0 l 1
 50 51.5 l 1
 80.08984375 94.4501953125 l 2
 78.9501953125 96.2802734375 77.83984375 98.1298828125 76.759765625 100 c 0
 67.8095703125 115.469726562 60.8701171875 132.259765625 56.3095703125 150 c 0
 52.1904296875 165.98046875 50 182.73046875 50 200 c 2
 50 300 l 2
 50 336.4296875 59.740234375 370.58984375 76.759765625 400 c 0
 94.3203125 430.360351562 119.639648438 455.6796875 150 473.240234375 c 0
 179.41015625 490.259765625 213.5703125 500 250 500 c 0
 285.120117188 500 318.120117188 490.950195312 346.799804688 475.049804688 c 1
 364.280273438 500 l 1
150 200 m 2
 150 198.129882812 150.059570312 196.280273438 150.16015625 194.440429688 c 1
 288.75 392.209960938 l 1
 276.830078125 397.23046875 263.740234375 400 250 400 c 0
 194.76953125 400 150 355.23046875 150 300 c 2
 150 200 l 2
350 300 m 2
 350 301.870117188 349.940429688 303.719726562 349.83984375 305.5703125 c 1
 211.25 107.790039062 l 1
 223.169921875 102.780273438 236.259765625 100 250 100 c 0
 287.01953125 100 319.330078125 120.110351562 336.620117188 150 c 0
 345.129882812 164.709960938 350 181.780273438 350 200 c 2
 350 300 l 2
EndSplineSet
Validated: 1
EndChar

StartChar: ugrave
Encoding: 249 249 182
Width: 500
Flags: MW
LayerCount: 2
Fore
SplineSet
225 535 m 1
 175 700 l 1
 275 700 l 1
 325 535 l 1
 225 535 l 1
350 200 m 2
 350 490 l 1
 450 490 l 1
 450 200 l 2
 450 125.969726562 409.780273438 61.33984375 350 26.759765625 c 0
 320.58984375 9.740234375 286.4296875 0 250 0 c 0
 213.5703125 0 179.41015625 9.740234375 150 26.759765625 c 0
 90.2197265625 61.33984375 50 125.969726562 50 200 c 2
 50 490 l 1
 150 490 l 1
 150 200 l 2
 150 144.76953125 194.76953125 100 250 100 c 0
 305.23046875 100 350 144.76953125 350 200 c 2
EndSplineSet
Validated: 1
EndChar

StartChar: uacute
Encoding: 250 250 183
Width: 500
Flags: MW
LayerCount: 2
Fore
SplineSet
175 535 m 1
 225 700 l 1
 325 700 l 1
 275 535 l 1
 175 535 l 1
350 200 m 2
 350 490 l 1
 450 490 l 1
 450 200 l 2
 450 125.969726562 409.780273438 61.33984375 350 26.759765625 c 0
 320.58984375 9.740234375 286.4296875 0 250 0 c 0
 213.5703125 0 179.41015625 9.740234375 150 26.759765625 c 0
 90.2197265625 61.33984375 50 125.969726562 50 200 c 2
 50 490 l 1
 150 490 l 1
 150 200 l 2
 150 144.76953125 194.76953125 100 250 100 c 0
 305.23046875 100 350 144.76953125 350 200 c 2
EndSplineSet
Validated: 1
EndChar

StartChar: ucircumflex
Encoding: 251 251 184
Width: 500
Flags: MW
LayerCount: 2
Fore
SplineSet
350 525 m 1
 250 600 l 1
 150 525 l 1
 150 625 l 1
 250 700 l 1
 350 625 l 1
 350 525 l 1
350 200 m 2
 350 490 l 1
 450 490 l 1
 450 200 l 2
 450 125.969726562 409.780273438 61.33984375 350 26.759765625 c 0
 320.58984375 9.740234375 286.4296875 0 250 0 c 0
 213.5703125 0 179.41015625 9.740234375 150 26.759765625 c 0
 90.2197265625 61.33984375 50 125.969726562 50 200 c 2
 50 490 l 1
 150 490 l 1
 150 200 l 2
 150 144.76953125 194.76953125 100 250 100 c 0
 305.23046875 100 350 144.76953125 350 200 c 2
EndSplineSet
Validated: 1
EndChar

StartChar: udieresis
Encoding: 252 252 185
Width: 500
Flags: MW
LayerCount: 2
Fore
SplineSet
115 612.5 m 0
 115 642.875976562 139.624023438 667.5 170 667.5 c 0
 200.375976562 667.5 225 642.875976562 225 612.5 c 0
 225 582.124023438 200.375976562 557.5 170 557.5 c 0
 139.624023438 557.5 115 582.124023438 115 612.5 c 0
275 612.5 m 0
 275 642.875976562 299.624023438 667.5 330 667.5 c 0
 360.375976562 667.5 385 642.875976562 385 612.5 c 0
 385 582.124023438 360.375976562 557.5 330 557.5 c 0
 299.624023438 557.5 275 582.124023438 275 612.5 c 0
350 200 m 2
 350 490 l 1
 450 490 l 1
 450 200 l 2
 450 125.969726562 409.780273438 61.33984375 350 26.759765625 c 0
 320.58984375 9.740234375 286.4296875 0 250 0 c 0
 213.5703125 0 179.41015625 9.740234375 150 26.759765625 c 0
 90.2197265625 61.33984375 50 125.969726562 50 200 c 2
 50 490 l 1
 150 490 l 1
 150 200 l 2
 150 144.76953125 194.76953125 100 250 100 c 0
 305.23046875 100 350 144.76953125 350 200 c 2
EndSplineSet
Validated: 1
EndChar

StartChar: yacute
Encoding: 253 253 186
Width: 500
Flags: MW
LayerCount: 2
Fore
SplineSet
325 700 m 1
 275 535 l 1
 175 535 l 1
 225 700 l 1
 325 700 l 1
350 290 m 1
 350 490 l 1
 450 490 l 1
 450 290 l 1
 450 200 l 1
 450 0 l 2
 450 -74.0302734375 409.780273438 -138.66015625 350 -173.240234375 c 0
 320.58984375 -190.259765625 286.4296875 -200 250 -200 c 0
 213.5703125 -200 179.41015625 -190.259765625 150 -173.240234375 c 0
 104.16015625 -146.719726562 69.8203125 -102.540039062 56.2998046875 -50 c 1
 163.379882812 -50 l 1
 180.669921875 -79.8896484375 212.98046875 -100 250 -100 c 0
 305.23046875 -100 350 -55.23046875 350 0 c 2
 350 26.759765625 l 1
 320.58984375 9.740234375 286.4296875 0 250 0 c 0
 213.5703125 0 179.41015625 9.740234375 150 26.759765625 c 0
 90.2197265625 61.33984375 50 125.969726562 50 200 c 2
 50 490 l 1
 150 490 l 1
 150 200 l 2
 150 144.76953125 194.76953125 100 250 100 c 0
 305.23046875 100 350 144.76953125 350 200 c 2
 350 290 l 1
EndSplineSet
Validated: 1
EndChar

StartChar: thorn
Encoding: 254 254 187
Width: 500
Flags: MW
LayerCount: 2
Fore
SplineSet
350 368.240234375 m 0
 380.360351562 350.6796875 405.6796875 325.360351562 423.240234375 295 c 0
 440.259765625 265.58984375 450 231.4296875 450 195 c 2
 450 95 l 2
 450 77.73046875 447.809570312 60.98046875 443.690429688 45 c 0
 439.129882812 27.259765625 432.190429688 10.4697265625 423.240234375 -5 c 0
 405.6796875 -35.3603515625 380.360351562 -60.6796875 350 -78.240234375 c 0
 320.610351562 -95.25 286.469726562 -104.990234375 250.059570312 -105 c 2
 250 -105 l 2
 213.5703125 -105 179.41015625 -95.259765625 150 -78.240234375 c 1
 150 -200 l 1
 50 -200 l 1
 50 95 l 1
 50 195 l 1
 50 490 l 1
 150 490 l 1
 150 368.240234375 l 1
 179.41015625 385.259765625 213.5703125 395 250 395 c 0
 286.4296875 395 320.58984375 385.259765625 350 368.240234375 c 0
350 95 m 2
 350 195 l 2
 350 250.23046875 305.23046875 295 250 295 c 0
 194.76953125 295 150 250.23046875 150 195 c 2
 150 95 l 2
 150 76.7802734375 154.870117188 59.7099609375 163.379882812 45 c 0
 180.669921875 15.1103515625 212.98046875 -5 250 -5 c 0
 287.01953125 -5 319.330078125 15.1103515625 336.620117188 45 c 0
 345.129882812 59.7099609375 350 76.7802734375 350 95 c 2
EndSplineSet
Validated: 1
EndChar

StartChar: ydieresis
Encoding: 255 255 188
Width: 500
Flags: MW
LayerCount: 2
Fore
SplineSet
115 617.5 m 0
 115 647.875976562 139.624023438 672.5 170 672.5 c 0
 200.375976562 672.5 225 647.875976562 225 617.5 c 0
 225 587.124023438 200.375976562 562.5 170 562.5 c 0
 139.624023438 562.5 115 587.124023438 115 617.5 c 0
275 617.5 m 0
 275 647.875976562 299.624023438 672.5 330 672.5 c 0
 360.375976562 672.5 385 647.875976562 385 617.5 c 0
 385 587.124023438 360.375976562 562.5 330 562.5 c 0
 299.624023438 562.5 275 587.124023438 275 617.5 c 0
350 290 m 1
 350 490 l 1
 450 490 l 1
 450 290 l 1
 450 200 l 1
 450 0 l 2
 450 -74.0302734375 409.780273438 -138.66015625 350 -173.240234375 c 0
 320.58984375 -190.259765625 286.4296875 -200 250 -200 c 0
 213.5703125 -200 179.41015625 -190.259765625 150 -173.240234375 c 0
 104.16015625 -146.719726562 69.8203125 -102.540039062 56.2998046875 -50 c 1
 163.379882812 -50 l 1
 180.669921875 -79.8896484375 212.98046875 -100 250 -100 c 0
 305.23046875 -100 350 -55.23046875 350 0 c 2
 350 26.759765625 l 1
 320.58984375 9.740234375 286.4296875 0 250 0 c 0
 213.5703125 0 179.41015625 9.740234375 150 26.759765625 c 0
 90.2197265625 61.33984375 50 125.969726562 50 200 c 2
 50 490 l 1
 150 490 l 1
 150 200 l 2
 150 144.76953125 194.76953125 100 250 100 c 0
 305.23046875 100 350 144.76953125 350 200 c 2
 350 290 l 1
EndSplineSet
Validated: 1
EndChar

